<svg id="svg" version="1.1" xmlns="http://www.w3.org/2000/svg" xmlns:xlink="http://www.w3.org/1999/xlink" width="400"
     height="400" viewBox="0, 0, 400,400">
    <g id="svgg">
        <path id="path0"
              d="M94.200 4.450 C 72.295 6.534,58.042 15.893,48.890 34.204 C 44.166 43.657,42.779 51.634,43.557 64.881 L 43.715 67.562 41.686 69.782 C 37.643 74.205,36.616 78.658,38.448 83.814 C 38.914 85.126,41.087 91.330,43.277 97.600 C 46.768 107.597,50.419 118.092,63.387 155.400 C 65.069 160.240,69.396 172.660,73.002 183.000 C 76.608 193.340,82.522 210.350,86.145 220.800 C 89.768 231.250,94.711 245.470,97.129 252.400 C 99.548 259.330,108.848 286.060,117.796 311.800 C 126.744 337.540,136.822 366.520,140.190 376.200 C 143.558 385.880,146.435 394.205,146.584 394.699 C 147.003 396.097,148.151 396.175,161.000 395.677 C 197.393 394.267,216.577 389.975,222.399 381.939 C 223.568 380.324,223.600 380.158,223.606 375.640 C 223.614 369.882,223.196 370.419,229.833 367.637 C 281.379 346.036,307.661 325.087,328.487 289.000 C 349.722 252.203,357.974 228.059,361.024 193.800 C 364.941 149.807,358.592 114.773,339.949 77.504 C 335.994 69.596,335.955 69.456,337.500 68.637 C 342.889 65.781,352.209 54.753,351.501 52.071 C 351.351 51.505,338.247 32.152,329.290 19.267 C 326.092 14.668,326.140 14.685,323.312 17.092 C 315.810 23.478,307.460 27.643,291.400 33.008 C 256.576 44.643,238.073 45.228,201.869 35.840 C 185.903 31.700,179.227 29.194,155.406 18.406 C 142.368 12.500,130.721 7.998,125.340 6.783 C 114.734 4.389,103.612 3.555,94.200 4.450 M114.334 12.662 C 118.868 13.565,123.301 15.281,132.935 19.865 C 143.461 24.872,148.220 26.931,154.862 29.352 C 157.578 30.342,164.750 33.071,170.800 35.416 C 204.283 48.396,213.922 50.573,238.000 50.590 C 271.510 50.615,299.470 44.760,317.345 33.975 C 320.807 31.887,320.058 30.974,326.168 44.720 C 332.157 58.193,332.020 56.759,327.700 60.808 C 303.723 83.282,275.997 88.796,226.294 80.975 C 196.980 76.363,176.450 70.308,154.200 59.712 C 134.197 50.187,128.301 47.738,118.727 44.980 C 108.858 42.137,94.680 41.090,91.200 42.947 C 85.905 45.773,83.155 50.701,82.019 59.400 C 81.439 63.843,82.024 63.369,75.385 64.764 C 61.180 67.748,54.456 67.437,53.767 63.762 C 52.094 54.847,55.163 39.248,60.069 31.733 C 69.106 17.891,94.958 8.805,114.334 12.662 M133.296 33.598 C 130.673 35.197,129.782 37.978,131.043 40.633 C 133.423 45.650,141.375 44.359,141.903 38.870 C 142.354 34.173,137.365 31.117,133.296 33.598 M158.406 42.043 C 155.249 42.710,153.268 46.640,154.659 49.477 C 157.649 55.578,167.382 52.440,165.591 45.953 C 164.814 43.140,161.571 41.375,158.406 42.043 M177.965 50.382 C 174.241 51.511,172.548 55.270,174.398 58.304 C 177.406 63.238,185.204 61.396,185.199 55.753 C 185.195 52.123,181.435 49.331,177.965 50.382 M111.637 53.546 C 118.059 55.762,126.000 59.329,126.000 59.997 C 126.000 60.380,123.480 65.533,120.400 71.447 C 117.320 77.361,112.868 85.940,110.506 90.511 C 107.841 95.671,106.012 98.780,105.684 98.711 C 105.182 98.606,99.485 86.674,98.985 84.682 C 98.781 83.869,99.062 83.557,101.064 82.371 C 106.984 78.865,106.602 73.821,99.768 65.281 C 96.856 61.640,96.873 61.707,98.156 59.000 C 100.640 53.761,105.989 51.597,111.637 53.546 M197.442 57.307 C 190.933 61.038,196.244 69.923,203.117 66.803 C 207.393 64.863,207.194 58.805,202.797 57.045 C 200.626 56.177,199.299 56.242,197.442 57.307 M270.141 61.637 C 269.448 61.838,268.323 62.638,267.641 63.415 C 263.687 67.917,269.331 74.474,274.772 71.699 C 281.048 68.499,276.978 59.656,270.141 61.637 M220.028 62.701 C 215.760 64.877,215.895 70.537,220.261 72.468 C 222.641 73.521,224.809 73.169,226.716 71.422 C 231.382 67.145,225.740 59.788,220.028 62.701 M138.406 65.203 C 141.043 66.525,143.200 67.776,143.200 67.984 C 143.200 68.192,140.027 74.625,136.149 82.281 C 132.271 89.936,126.317 101.690,122.918 108.400 C 115.937 122.181,115.927 122.196,115.080 120.550 C 113.915 118.285,109.200 107.573,109.200 107.191 C 109.200 106.769,131.835 64.126,132.497 63.300 C 133.091 62.560,133.208 62.597,138.406 65.203 M242.941 64.437 C 240.878 65.035,239.200 67.284,239.200 69.452 C 239.200 75.291,246.947 77.314,250.018 72.278 C 252.664 67.937,248.145 62.929,242.941 64.437 M95.697 68.800 C 101.338 75.113,97.772 79.086,83.153 82.778 C 74.730 84.905,67.542 85.829,56.200 86.240 L 49.000 86.502 46.965 84.868 C 39.574 78.937,42.562 72.407,52.017 73.826 C 64.691 75.729,74.327 73.921,89.166 66.855 C 92.187 65.417,92.850 65.614,95.697 68.800 M162.696 76.498 C 163.071 76.795,161.305 80.590,155.412 92.145 C 135.757 130.687,127.662 146.200,127.205 146.200 C 126.648 146.200,119.600 131.053,119.600 129.856 C 119.600 128.855,148.919 71.683,149.702 71.157 C 150.053 70.921,161.700 75.708,162.696 76.498 M178.518 81.483 C 182.902 82.739,186.572 83.983,186.674 84.248 C 186.776 84.513,184.165 89.921,180.874 96.265 C 167.283 122.458,152.173 151.679,146.882 162.000 C 140.373 174.699,140.282 174.847,139.483 174.000 C 138.719 173.190,130.788 155.581,130.795 154.710 C 130.798 154.330,135.097 145.780,140.349 135.710 C 145.601 125.639,154.257 109.030,159.584 98.800 C 168.935 80.843,169.835 79.200,170.322 79.200 C 170.445 79.200,174.133 80.227,178.518 81.483 M329.872 81.486 C 352.701 117.172,357.244 183.213,340.372 234.096 C 319.663 296.549,287.084 332.044,230.800 353.476 C 221.967 356.839,220.064 357.424,219.571 356.931 C 219.052 356.412,203.634 319.414,203.342 317.985 C 203.149 317.042,203.597 316.689,209.667 313.009 C 249.263 289.002,281.037 259.029,292.787 234.600 C 304.934 209.346,310.319 180.896,308.836 149.820 C 308.008 132.459,306.696 121.651,303.141 102.907 C 301.671 95.159,301.521 95.717,305.523 94.081 C 309.273 92.547,316.258 88.010,322.800 82.857 C 328.262 78.556,328.027 78.601,329.872 81.486 M199.046 86.567 C 201.441 87.099,204.435 87.741,205.700 87.995 C 206.965 88.249,208.000 88.648,208.000 88.882 C 208.000 89.289,200.722 104.285,175.913 155.000 C 169.671 167.760,161.962 183.553,158.782 190.095 C 154.865 198.152,152.815 201.959,152.426 201.894 C 151.814 201.793,143.647 184.327,143.618 183.056 C 143.608 182.647,145.158 179.317,147.062 175.656 C 148.967 171.995,155.646 159.190,161.906 147.200 C 168.165 135.210,174.504 123.060,175.993 120.200 C 191.883 89.664,194.069 85.600,194.608 85.600 C 194.655 85.600,196.652 86.035,199.046 86.567 M85.136 89.722 C 85.374 90.010,86.538 92.485,87.722 95.222 C 88.907 97.960,93.398 108.210,97.703 118.000 C 108.974 143.629,125.111 180.397,130.795 193.400 C 133.488 199.560,137.001 207.570,138.603 211.200 C 142.803 220.718,160.980 262.153,170.013 282.800 C 177.908 300.845,181.696 309.485,184.917 316.800 C 208.655 370.706,210.335 374.600,209.989 374.943 C 209.709 375.219,201.382 377.373,195.200 378.768 C 179.099 382.400,168.163 383.691,161.000 382.806 C 154.573 382.011,155.555 383.476,148.932 364.800 C 145.773 355.890,140.951 342.300,138.217 334.600 C 135.483 326.900,130.343 312.410,126.795 302.400 C 123.247 292.390,118.390 278.710,116.001 272.000 C 113.613 265.290,108.210 250.080,103.995 238.200 C 99.780 226.320,93.807 209.490,90.721 200.800 C 87.635 192.110,81.787 175.640,77.726 164.200 C 69.129 139.980,64.632 127.326,58.040 108.800 C 54.460 98.740,53.387 95.291,53.736 94.963 C 53.991 94.723,56.630 94.110,59.600 93.602 C 63.638 92.911,82.533 89.599,84.451 89.246 C 84.589 89.221,84.897 89.435,85.136 89.722 M224.374 91.136 C 228.469 91.785,231.412 92.436,231.504 92.713 C 231.638 93.114,219.876 116.676,214.588 126.600 C 213.650 128.360,207.846 139.700,201.690 151.800 C 164.065 225.750,163.557 226.719,162.908 225.917 C 162.311 225.180,156.000 211.180,156.000 210.594 C 156.000 210.024,165.436 190.822,204.793 111.300 C 214.678 91.328,215.400 90.001,216.368 90.015 C 216.935 90.023,220.538 90.527,224.374 91.136 M249.000 93.977 C 251.640 94.184,256.095 94.472,258.900 94.617 C 264.499 94.906,264.578 94.955,263.236 97.277 C 262.815 98.005,256.632 109.580,249.494 123.000 C 236.729 147.002,229.353 160.852,216.688 184.600 C 213.168 191.200,207.320 202.180,203.692 209.000 C 200.064 215.820,194.355 226.530,191.005 232.800 C 187.655 239.070,183.316 247.215,181.363 250.900 C 179.410 254.585,177.662 257.600,177.480 257.600 C 177.122 257.600,176.057 255.383,170.440 242.936 C 166.103 233.327,166.209 235.028,169.547 228.650 C 171.058 225.762,174.007 220.070,176.101 216.000 C 178.194 211.930,184.133 200.410,189.298 190.400 C 194.463 180.390,201.977 165.810,205.995 158.000 C 210.013 150.190,214.789 140.920,216.608 137.400 C 218.427 133.880,224.185 122.720,229.403 112.600 C 240.564 90.957,239.193 93.053,241.984 93.358 C 243.203 93.491,246.360 93.769,249.000 93.977 M287.310 96.336 C 301.132 117.222,302.516 167.630,290.119 198.600 C 279.108 226.109,255.570 260.476,234.663 279.572 C 222.411 290.761,200.012 306.257,198.483 304.600 C 198.280 304.380,194.201 295.536,189.420 284.947 L 180.726 265.695 188.112 251.947 C 195.132 238.882,214.396 202.931,224.307 184.400 C 226.837 179.670,232.100 169.860,236.004 162.600 C 239.907 155.340,247.966 140.310,253.913 129.200 C 259.859 118.090,266.361 105.951,268.362 102.224 C 272.742 94.063,271.600 94.814,279.647 94.806 L 286.294 94.800 287.310 96.336 M318.635 96.639 C 310.841 99.109,307.882 111.857,312.829 121.657 C 313.916 123.810,314.000 124.302,314.006 128.489 C 314.013 133.533,314.526 136.224,316.183 139.900 C 317.287 142.350,317.298 142.451,316.755 144.900 C 315.980 148.393,316.147 154.386,317.110 157.603 L 317.888 160.207 316.767 163.016 C 314.594 168.459,314.306 173.151,315.787 178.988 L 316.774 182.878 315.816 184.768 C 314.154 188.047,313.463 191.421,313.391 196.600 L 313.324 201.400 311.501 204.074 C 308.268 208.813,306.729 214.322,306.830 220.783 C 306.891 224.647,306.883 224.683,305.456 226.669 C 302.907 230.217,300.400 236.596,300.400 239.534 C 300.400 240.220,299.528 241.314,297.387 243.315 C 293.083 247.338,290.546 251.324,288.802 256.800 C 288.323 258.305,287.801 259.145,287.151 259.459 C 280.851 262.500,279.039 263.519,276.902 265.224 C 273.310 268.090,270.250 271.992,267.873 276.738 L 265.800 280.877 262.883 282.003 C 255.999 284.660,248.783 290.651,245.256 296.637 L 243.584 299.474 240.169 300.317 C 219.358 305.455,207.345 326.678,218.719 338.215 C 230.989 350.661,260.031 342.956,268.213 325.083 C 269.438 322.408,269.443 322.404,273.288 320.813 C 282.907 316.833,291.039 308.224,292.858 300.096 C 293.291 298.161,293.571 297.782,295.921 295.935 C 301.920 291.220,305.553 286.228,307.603 279.880 C 308.349 277.573,308.740 277.001,310.532 275.601 C 316.088 271.257,320.324 263.901,321.358 256.797 C 321.588 255.213,321.883 254.790,323.774 253.327 C 329.661 248.771,334.000 239.771,334.000 232.112 C 334.000 229.484,334.177 228.786,335.582 225.876 C 338.211 220.433,339.289 214.370,338.495 209.496 C 338.141 207.319,338.193 207.043,339.457 204.496 C 342.688 197.984,343.305 189.764,341.017 183.729 L 339.929 180.857 340.764 177.553 C 341.667 173.981,341.841 169.332,341.179 166.461 C 340.838 164.979,340.927 164.293,341.781 161.817 C 343.674 156.332,343.508 150.414,341.303 144.829 C 340.361 142.443,340.321 142.078,340.744 139.783 C 341.774 134.190,341.000 128.685,338.442 123.426 C 336.985 120.429,336.874 119.958,336.891 116.800 C 336.957 104.319,327.468 93.840,318.635 96.639 M76.859 101.230 C 64.877 103.586,62.840 123.330,73.363 135.123 L 75.600 137.630 75.600 140.389 C 75.600 146.210,78.027 153.096,81.576 157.344 C 83.037 159.092,83.200 159.505,83.200 161.460 C 83.200 167.173,85.854 174.288,89.565 178.523 L 91.600 180.847 91.600 184.397 C 91.600 192.315,94.236 199.198,99.335 204.596 C 100.943 206.298,101.161 206.759,101.400 208.950 C 102.076 215.155,104.637 221.278,108.146 225.078 L 110.290 227.400 110.510 232.400 C 110.893 241.092,113.506 247.599,118.895 253.276 L 120.676 255.153 120.927 258.978 C 121.425 266.552,124.326 273.663,128.963 278.671 L 131.597 281.515 131.350 283.876 C 130.547 291.561,134.364 302.635,139.963 308.862 L 141.996 311.124 141.744 314.107 C 141.135 321.311,143.712 330.211,148.314 336.800 L 150.130 339.400 150.217 344.800 C 150.569 366.689,167.958 383.874,182.489 376.694 C 196.957 369.544,197.652 343.528,183.768 328.800 L 181.694 326.600 181.228 322.532 C 180.340 314.781,177.622 308.132,173.182 302.843 L 170.700 299.887 170.917 297.243 C 171.832 286.138,165.888 272.895,157.545 267.455 C 156.610 266.845,156.458 266.418,156.203 263.684 C 155.453 255.667,151.558 247.153,146.975 243.515 C 146.242 242.933,146.069 242.250,145.830 238.992 C 145.146 229.670,141.202 221.260,135.384 216.717 C 133.271 215.066,133.245 215.019,132.991 212.424 C 132.318 205.533,129.936 199.853,125.787 195.246 C 123.381 192.575,123.200 192.241,123.193 190.487 C 123.172 184.791,119.096 176.042,114.643 172.134 C 113.218 170.884,113.200 170.829,113.200 167.760 C 113.200 162.138,111.042 155.999,107.458 151.430 C 105.670 149.150,105.600 148.960,105.600 146.394 C 105.600 140.657,102.880 133.860,98.837 129.493 L 96.647 127.128 96.523 123.464 C 96.156 112.641,89.408 103.059,80.880 101.250 C 79.714 101.002,78.724 100.820,78.680 100.844 C 78.636 100.868,77.816 101.042,76.859 101.230 M325.961 102.380 C 329.597 104.235,332.639 109.232,333.095 114.100 C 333.346 116.776,333.472 116.710,330.772 115.309 C 326.232 112.954,321.365 113.732,317.953 117.359 C 315.795 119.652,315.764 119.649,315.015 117.127 C 312.114 107.356,318.595 98.622,325.961 102.380 M84.018 108.009 C 88.590 110.342,92.400 117.023,92.400 122.708 L 92.400 124.448 89.699 124.182 C 84.874 123.707,81.234 125.434,78.612 129.442 C 77.764 130.739,77.007 131.877,76.931 131.971 C 76.542 132.449,74.177 129.463,72.995 127.000 C 67.376 115.299,74.443 103.125,84.018 108.009 M328.410 119.650 C 331.223 120.493,332.216 121.621,331.451 123.102 C 329.704 126.479,325.183 127.755,321.600 125.882 C 316.910 123.431,322.859 117.987,328.410 119.650 M336.407 128.300 C 338.147 132.934,337.850 138.063,335.912 136.810 C 330.146 133.079,325.577 133.079,321.325 136.812 C 319.662 138.272,319.392 138.143,318.610 135.510 C 318.064 133.670,317.748 129.200,318.164 129.200 C 318.254 129.200,319.469 129.740,320.864 130.400 C 325.551 132.617,330.262 131.632,333.502 127.756 C 335.355 125.538,335.370 125.541,336.407 128.300 M90.611 130.417 C 91.512 131.876,86.789 135.200,83.816 135.200 C 81.728 135.200,81.490 134.640,82.796 132.805 C 84.298 130.697,89.753 129.030,90.611 130.417 M98.130 135.681 C 100.299 138.843,102.242 145.156,101.237 145.777 C 101.006 145.920,99.881 145.758,98.736 145.418 C 93.595 143.891,88.259 146.305,85.569 151.375 C 85.037 152.379,84.401 153.200,84.156 153.200 C 82.879 153.200,80.000 145.537,80.000 142.138 L 80.000 140.445 83.300 140.495 C 88.265 140.570,91.263 138.993,93.851 134.947 C 95.495 132.377,95.912 132.448,98.130 135.681 M332.264 140.261 C 335.344 141.712,335.349 143.275,332.280 144.761 C 328.150 146.761,321.450 143.968,324.077 141.341 C 326.146 139.272,329.284 138.858,332.264 140.261 M323.156 148.330 C 327.775 151.160,333.798 150.947,336.349 147.864 C 338.114 145.730,340.013 150.754,339.374 155.868 C 339.023 158.677,338.453 158.853,336.391 156.791 C 332.741 153.141,328.148 152.408,323.719 154.769 C 322.364 155.491,321.080 155.973,320.865 155.840 C 319.847 155.211,319.865 147.200,320.885 147.200 C 321.119 147.200,322.141 147.708,323.156 148.330 M99.140 151.239 C 102.188 152.302,98.149 157.569,93.785 158.223 C 90.078 158.779,88.192 157.523,89.364 155.280 C 91.184 151.797,95.556 149.990,99.140 151.239 M106.236 157.258 C 107.679 159.542,108.793 162.928,109.075 165.885 L 109.313 168.369 105.864 168.126 C 100.567 167.752,96.884 169.855,93.744 175.047 C 92.418 177.239,87.600 168.318,87.600 163.669 C 87.600 162.824,87.734 162.738,88.700 162.963 C 95.333 164.508,100.522 162.531,103.229 157.428 C 104.424 155.174,104.904 155.147,106.236 157.258 M331.844 159.797 C 335.853 161.795,336.433 163.900,333.351 165.263 C 330.391 166.572,326.245 165.364,324.027 162.544 C 321.926 159.873,327.832 157.798,331.844 159.797 M322.739 167.241 C 326.808 170.829,330.950 171.706,335.023 169.841 C 338.024 168.467,338.782 169.950,337.625 174.932 C 337.136 177.042,337.152 177.039,334.360 175.643 C 330.149 173.539,325.644 174.041,321.692 177.055 C 320.092 178.276,319.400 178.100,319.057 176.384 C 318.353 172.863,319.294 165.600,320.454 165.600 C 320.687 165.600,321.715 166.338,322.739 167.241 M106.567 174.243 C 107.553 174.621,107.326 175.315,105.700 176.895 C 102.666 179.843,97.153 180.275,99.025 177.418 C 100.430 175.274,104.638 173.502,106.567 174.243 M113.608 178.070 C 116.061 180.522,118.072 184.542,118.597 188.040 L 118.866 189.832 114.933 189.816 C 109.209 189.793,106.037 191.877,103.234 197.500 C 101.703 200.573,101.649 200.574,99.629 197.548 C 97.439 194.269,96.326 190.527,96.480 186.963 L 96.600 184.200 99.620 184.337 C 104.761 184.570,108.493 182.591,110.864 178.372 C 111.930 176.475,112.005 176.467,113.608 178.070 M332.713 181.204 C 334.441 182.257,333.944 183.290,331.068 184.629 C 328.227 185.952,325.855 185.762,323.620 184.034 C 320.665 181.748,329.233 179.082,332.713 181.204 M337.669 187.900 C 338.546 190.376,338.331 197.009,337.300 199.300 C 336.245 201.643,336.471 201.671,333.657 198.857 C 329.896 195.096,325.191 194.154,320.274 196.175 C 317.493 197.319,317.374 197.187,317.731 193.358 C 317.960 190.908,319.229 187.200,319.840 187.200 C 319.996 187.200,320.724 187.657,321.456 188.215 C 325.373 191.203,330.256 191.113,334.262 187.981 C 336.707 186.068,337.018 186.061,337.669 187.900 M117.226 196.014 C 120.200 197.606,114.293 204.000,109.849 204.000 C 106.604 204.000,106.225 203.483,107.565 200.884 C 109.542 197.048,114.494 194.552,117.226 196.014 M124.496 200.900 C 126.780 203.897,129.174 210.560,128.550 212.185 C 128.415 212.539,127.414 212.688,125.272 212.674 C 120.238 212.642,115.495 215.502,113.233 219.935 C 112.132 222.094,111.827 222.207,110.603 220.909 C 108.579 218.763,105.462 210.793,106.188 209.619 C 106.295 209.447,107.622 209.394,109.137 209.503 C 114.480 209.885,118.849 207.162,121.336 201.900 C 122.585 199.258,123.116 199.090,124.496 200.900 M328.217 202.352 C 333.074 204.558,332.891 207.851,327.865 208.667 C 324.782 209.167,319.600 206.011,319.600 203.633 C 319.600 201.727,325.055 200.916,328.217 202.352 M317.154 208.996 C 320.488 213.638,326.335 215.252,331.232 212.881 C 332.233 212.397,333.266 212.000,333.526 212.000 C 334.724 212.000,333.639 221.434,332.350 222.231 C 332.114 222.377,331.162 221.670,330.235 220.660 C 326.322 216.398,320.721 215.629,314.635 218.519 C 311.927 219.805,311.536 219.898,311.309 219.306 C 310.592 217.438,314.016 207.200,315.357 207.200 C 315.636 207.200,316.445 208.008,317.154 208.996 M127.200 220.140 C 127.200 223.165,118.574 227.571,117.724 224.980 C 117.508 224.319,120.330 221.257,121.941 220.406 C 123.678 219.489,127.200 219.310,127.200 220.140 M134.940 223.791 C 137.315 226.205,139.660 230.559,140.331 233.800 C 141.425 239.084,141.314 239.491,138.955 238.836 C 133.060 237.199,126.751 240.148,123.634 245.997 C 122.023 249.019,121.579 248.988,119.375 245.698 C 117.090 242.287,115.832 238.242,115.814 234.242 L 115.800 231.084 119.600 231.037 C 125.128 230.968,128.278 228.969,130.846 223.900 C 132.272 221.086,132.277 221.086,134.940 223.791 M323.861 223.767 C 327.197 225.321,328.718 228.004,327.100 229.483 C 322.963 233.266,317.381 232.601,313.839 227.904 C 312.472 226.091,312.646 225.499,314.881 224.358 C 318.473 222.523,320.851 222.366,323.861 223.767 M310.573 232.415 C 314.282 237.578,320.551 238.900,326.565 235.788 C 329.099 234.476,329.442 234.837,328.639 237.972 C 327.710 241.596,326.066 244.683,323.731 247.184 C 321.396 249.686,321.240 249.652,320.185 246.404 C 318.636 241.635,313.854 238.400,308.352 238.400 C 305.052 238.400,305.045 238.390,306.133 235.157 C 307.877 229.974,308.530 229.571,310.573 232.415 M310.200 244.842 C 313.273 245.683,317.209 250.988,315.543 252.044 C 313.217 253.518,307.792 250.730,306.225 247.255 C 304.981 244.498,306.212 243.751,310.200 244.842 M138.991 245.744 C 141.223 247.376,134.900 252.772,130.733 252.791 C 127.202 252.808,126.857 252.166,128.880 249.349 C 131.331 245.936,136.657 244.037,138.991 245.744 M301.636 249.900 C 303.655 254.902,307.820 257.600,313.522 257.600 L 316.502 257.600 316.231 259.300 C 315.508 263.824,309.407 272.620,308.601 270.300 C 306.027 262.891,302.771 259.821,296.431 258.826 C 295.018 258.604,293.704 258.264,293.511 258.071 C 292.389 256.949,298.395 247.600,300.237 247.600 C 300.495 247.600,301.125 248.635,301.636 249.900 M146.523 250.818 C 148.472 253.095,150.234 256.894,150.940 260.341 C 151.753 264.307,151.770 264.285,147.871 264.261 C 142.256 264.225,137.406 267.213,134.383 272.568 C 132.874 275.243,132.845 275.248,131.020 273.115 C 126.749 268.125,124.412 258.345,127.600 258.800 C 134.514 259.788,140.259 257.155,142.981 251.751 C 144.540 248.655,144.647 248.627,146.523 250.818 M296.048 265.817 C 298.927 266.833,301.961 270.455,301.991 272.913 C 302.027 275.844,295.275 272.395,293.546 268.600 C 292.044 265.302,292.657 264.621,296.048 265.817 M288.138 268.199 C 288.923 273.926,294.252 279.168,299.313 279.191 C 300.705 279.198,301.293 279.377,301.475 279.851 C 301.869 280.879,299.104 286.002,296.789 288.536 C 293.615 292.009,293.390 292.053,292.228 289.426 C 289.608 283.501,282.856 279.630,275.100 279.607 C 272.326 279.599,272.216 279.232,274.032 276.064 C 275.987 272.655,279.776 269.162,283.590 267.253 C 287.368 265.362,287.760 265.444,288.138 268.199 M149.600 272.877 C 149.600 274.480,145.644 277.843,143.084 278.416 C 139.216 279.282,138.592 278.276,141.223 275.422 C 144.095 272.306,149.600 270.634,149.600 272.877 M158.570 276.500 C 162.849 280.785,165.819 288.251,165.518 293.961 C 165.385 296.484,165.541 296.425,161.800 295.382 C 155.776 293.702,149.429 296.255,145.713 301.851 C 143.992 304.444,143.569 304.494,141.954 302.300 C 138.897 298.146,137.066 292.319,137.280 287.428 L 137.400 284.678 141.400 284.639 C 147.477 284.580,151.043 282.257,153.974 276.451 C 155.498 273.432,155.507 273.432,158.570 276.500 M279.323 287.492 C 283.308 289.272,286.739 294.154,284.953 295.501 C 282.759 297.156,275.830 295.215,273.520 292.299 C 269.172 286.809,272.193 284.307,279.323 287.492 M265.413 289.300 C 266.774 297.481,272.452 301.882,281.202 301.539 C 285.394 301.374,285.490 301.436,284.491 303.667 C 282.602 307.887,278.240 312.254,273.342 314.831 C 270.736 316.201,270.643 316.156,270.034 313.240 C 268.594 306.348,263.110 301.480,254.794 299.709 C 252.963 299.319,251.405 298.820,251.332 298.600 C 250.864 297.179,257.505 290.933,261.764 288.790 C 264.836 287.243,265.076 287.277,265.413 289.300 M161.598 302.757 C 165.455 303.831,158.947 309.188,153.776 309.196 C 150.227 309.202,149.652 308.630,151.154 306.588 C 153.468 303.442,158.036 301.766,161.598 302.757 M254.893 307.474 C 260.625 310.046,264.296 317.460,259.783 317.351 C 255.316 317.243,250.620 313.656,249.386 309.409 C 248.270 305.573,249.609 305.103,254.893 307.474 M242.083 309.171 C 242.961 317.117,248.838 322.395,257.956 323.427 C 260.861 323.755,261.001 324.155,259.176 326.910 C 252.871 336.430,237.910 341.182,228.757 336.572 C 215.667 329.980,222.053 312.434,239.600 306.782 C 241.498 306.171,241.782 306.443,242.083 309.171 M170.286 308.500 C 172.196 310.498,174.320 314.733,175.243 318.382 C 176.263 322.413,176.063 322.751,173.218 321.806 C 166.128 319.451,158.364 322.537,154.003 329.443 C 153.114 330.849,152.202 332.000,151.974 332.000 C 150.539 332.000,147.620 322.724,147.607 318.124 C 147.598 315.104,147.696 315.036,150.857 315.846 C 157.033 317.428,163.170 314.857,167.201 308.998 C 168.678 306.852,168.706 306.847,170.286 308.500 M173.500 330.232 C 175.568 331.070,174.258 334.810,170.939 337.546 C 166.177 341.471,156.908 340.418,158.928 336.181 C 161.543 330.699,168.072 328.033,173.500 330.232 M182.758 337.586 C 193.293 352.604,186.258 373.884,171.968 370.223 C 163.954 368.170,156.967 358.184,156.686 348.381 C 156.586 344.922,156.325 345.036,161.200 346.407 C 168.200 348.374,175.761 344.538,178.825 337.465 C 180.073 334.583,180.664 334.601,182.758 337.586 "
              stroke="none" fill="#090909" fill-rule="evenodd"></path>
        <path id="path1"
              d="M0.000 200.000 L 0.000 400.000 200.000 400.000 L 400.000 400.000 400.000 200.000 L 400.000 0.000 200.000 0.000 L 0.000 0.000 0.000 200.000 M109.878 4.426 C 114.660 4.823,120.813 5.761,125.340 6.783 C 130.721 7.998,142.368 12.500,155.406 18.406 C 179.227 29.194,185.903 31.700,201.869 35.840 C 238.073 45.228,256.576 44.643,291.400 33.008 C 307.460 27.643,315.810 23.478,323.312 17.092 C 326.140 14.685,326.092 14.668,329.290 19.267 C 338.247 32.152,351.351 51.505,351.501 52.071 C 352.209 54.753,342.889 65.781,337.500 68.637 C 335.955 69.456,335.994 69.596,339.949 77.504 C 356.457 110.504,362.597 137.821,361.866 175.000 C 361.187 209.487,356.066 233.153,343.211 261.200 C 335.460 278.109,321.800 301.141,313.081 312.000 C 296.182 333.045,268.954 351.243,229.833 367.637 C 223.196 370.419,223.614 369.882,223.606 375.640 C 223.600 380.158,223.568 380.324,222.399 381.939 C 216.577 389.975,197.393 394.267,161.000 395.677 C 148.151 396.175,147.003 396.097,146.584 394.699 C 146.435 394.205,143.558 385.880,140.190 376.200 C 136.822 366.520,126.744 337.540,117.796 311.800 C 108.848 286.060,99.548 259.330,97.129 252.400 C 94.711 245.470,89.768 231.250,86.145 220.800 C 82.522 210.350,76.608 193.340,73.002 183.000 C 69.396 172.660,65.069 160.240,63.387 155.400 C 50.419 118.092,46.768 107.597,43.277 97.600 C 41.087 91.330,38.914 85.126,38.448 83.814 C 36.616 78.658,37.643 74.205,41.686 69.782 L 43.715 67.562 43.557 64.881 C 42.612 48.794,45.261 38.422,53.321 26.656 C 64.855 9.815,84.030 2.278,109.878 4.426 M100.847 12.023 C 79.068 13.741,62.379 23.596,56.815 38.024 C 53.319 47.089,52.210 64.009,54.993 65.832 C 57.317 67.355,64.955 66.955,75.385 64.764 C 82.024 63.369,81.439 63.843,82.019 59.400 C 83.155 50.701,85.905 45.773,91.200 42.947 C 94.680 41.090,108.858 42.137,118.727 44.980 C 128.301 47.738,134.197 50.187,154.200 59.712 C 176.450 70.308,196.980 76.363,226.294 80.975 C 275.997 88.796,303.723 83.282,327.700 60.808 C 332.020 56.759,332.157 58.193,326.168 44.720 C 320.058 30.974,320.807 31.887,317.345 33.975 C 303.144 42.544,284.547 47.473,256.600 50.078 C 249.164 50.771,226.455 50.755,220.600 50.053 C 207.417 48.472,195.264 44.900,170.800 35.416 C 164.750 33.071,157.578 30.342,154.862 29.352 C 148.220 26.931,143.461 24.872,132.935 19.865 C 117.527 12.535,111.875 11.153,100.847 12.023 M139.462 33.639 C 141.350 34.805,142.132 36.482,141.903 38.870 C 141.375 44.359,133.423 45.650,131.043 40.633 C 128.667 35.627,134.645 30.661,139.462 33.639 M164.103 43.501 C 165.366 44.708,166.091 46.880,165.730 48.376 C 164.458 53.653,157.066 54.388,154.659 49.477 C 152.048 44.152,159.711 39.302,164.103 43.501 M181.892 50.786 C 186.103 52.697,186.310 58.623,182.233 60.557 C 177.223 62.935,171.947 58.203,174.234 53.384 C 175.594 50.518,178.861 49.410,181.892 50.786 M104.043 53.401 C 101.823 54.093,99.381 56.416,98.156 59.000 C 96.873 61.707,96.856 61.640,99.768 65.281 C 106.602 73.821,106.984 78.865,101.064 82.371 C 99.062 83.557,98.781 83.869,98.985 84.682 C 99.485 86.674,105.182 98.606,105.684 98.711 C 106.012 98.780,107.841 95.671,110.506 90.511 C 112.868 85.940,117.320 77.361,120.400 71.447 C 123.480 65.533,126.000 60.380,126.000 59.997 C 126.000 59.473,124.477 58.674,119.900 56.796 C 109.444 52.505,107.946 52.184,104.043 53.401 M202.797 57.045 C 203.684 57.401,204.746 58.166,205.155 58.745 C 208.664 63.711,202.792 69.761,197.442 66.693 C 191.126 63.072,195.984 54.320,202.797 57.045 M274.786 62.100 C 278.954 64.238,278.947 69.570,274.772 71.699 C 269.331 74.474,263.687 67.917,267.641 63.415 C 269.628 61.151,272.062 60.703,274.786 62.100 M224.932 62.546 C 228.686 64.114,229.620 68.760,226.716 71.422 C 224.809 73.169,222.641 73.521,220.261 72.468 C 213.489 69.473,218.095 59.689,224.932 62.546 M132.497 63.300 C 131.835 64.126,109.200 106.769,109.200 107.191 C 109.200 107.573,113.915 118.285,115.080 120.550 C 115.927 122.196,115.937 122.181,122.918 108.400 C 126.317 101.690,132.271 89.936,136.149 82.281 C 140.027 74.625,143.200 68.192,143.200 67.984 C 143.200 67.615,133.963 62.800,133.255 62.800 C 133.059 62.800,132.718 63.025,132.497 63.300 M247.492 64.786 C 252.689 67.145,251.402 74.312,245.643 75.085 C 240.604 75.761,237.182 69.926,240.441 66.215 C 242.369 64.018,244.742 63.537,247.492 64.786 M89.166 66.855 C 74.327 73.921,64.691 75.729,52.017 73.826 C 42.562 72.407,39.574 78.937,46.965 84.868 L 49.000 86.502 56.200 86.240 C 83.119 85.263,100.938 79.149,97.875 71.941 C 95.890 67.269,92.480 65.277,89.166 66.855 M149.702 71.157 C 148.919 71.683,119.600 128.855,119.600 129.856 C 119.600 131.053,126.648 146.200,127.205 146.200 C 127.662 146.200,135.757 130.687,155.412 92.145 C 161.305 80.590,163.071 76.795,162.696 76.498 C 161.700 75.708,150.053 70.921,149.702 71.157 M169.684 79.700 C 169.456 79.975,164.911 88.570,159.584 98.800 C 154.257 109.030,145.601 125.639,140.349 135.710 C 135.097 145.780,130.798 154.330,130.795 154.710 C 130.788 155.581,138.719 173.190,139.483 174.000 C 140.282 174.847,140.373 174.699,146.882 162.000 C 152.173 151.679,167.283 122.458,180.874 96.265 C 184.165 89.921,186.776 84.513,186.674 84.248 C 186.532 83.879,171.377 79.200,170.322 79.200 C 170.199 79.200,169.912 79.425,169.684 79.700 M322.800 82.857 C 316.258 88.010,309.273 92.547,305.523 94.081 C 301.521 95.717,301.671 95.159,303.141 102.907 C 306.696 121.651,308.008 132.459,308.836 149.820 C 310.319 180.896,304.934 209.346,292.787 234.600 C 281.037 259.029,249.263 289.002,209.667 313.009 C 203.597 316.689,203.149 317.042,203.342 317.985 C 203.634 319.414,219.052 356.412,219.571 356.931 C 220.839 358.199,245.033 348.156,257.352 341.248 C 298.664 318.081,322.893 286.809,340.372 234.096 C 357.244 183.213,352.701 117.172,329.872 81.486 C 328.027 78.601,328.262 78.556,322.800 82.857 M193.921 86.300 C 193.406 86.898,188.192 96.756,175.993 120.200 C 174.504 123.060,168.165 135.210,161.906 147.200 C 155.646 159.190,148.967 171.995,147.062 175.656 C 145.158 179.317,143.608 182.647,143.618 183.056 C 143.647 184.327,151.814 201.793,152.426 201.894 C 152.815 201.959,154.865 198.152,158.782 190.095 C 161.962 183.553,169.671 167.760,175.913 155.000 C 200.722 104.285,208.000 89.289,208.000 88.882 C 208.000 88.648,206.965 88.249,205.700 87.995 C 204.435 87.741,201.441 87.099,199.046 86.567 C 196.652 86.035,194.655 85.600,194.608 85.600 C 194.562 85.600,194.253 85.915,193.921 86.300 M74.600 90.985 C 69.320 91.916,62.570 93.094,59.600 93.602 C 56.630 94.110,53.991 94.723,53.736 94.963 C 53.387 95.291,54.460 98.740,58.040 108.800 C 64.632 127.326,69.129 139.980,77.726 164.200 C 81.787 175.640,87.635 192.110,90.721 200.800 C 93.807 209.490,99.780 226.320,103.995 238.200 C 108.210 250.080,113.613 265.290,116.001 272.000 C 118.390 278.710,123.247 292.390,126.795 302.400 C 130.343 312.410,135.483 326.900,138.217 334.600 C 140.951 342.300,145.773 355.890,148.932 364.800 C 155.555 383.476,154.573 382.011,161.000 382.806 C 168.163 383.691,179.099 382.400,195.200 378.768 C 201.382 377.373,209.709 375.219,209.989 374.943 C 210.335 374.600,208.655 370.706,184.917 316.800 C 181.696 309.485,177.908 300.845,170.013 282.800 C 160.980 262.153,142.803 220.718,138.603 211.200 C 137.001 207.570,133.488 199.560,130.795 193.400 C 125.111 180.397,108.974 143.629,97.703 118.000 C 93.398 108.210,88.907 97.960,87.722 95.222 C 85.617 90.355,84.959 89.153,84.451 89.246 C 84.313 89.272,79.880 90.054,74.600 90.985 M204.793 111.300 C 165.436 190.822,156.000 210.024,156.000 210.594 C 156.000 211.180,162.311 225.180,162.908 225.917 C 163.557 226.719,164.065 225.750,201.690 151.800 C 207.846 139.700,213.650 128.360,214.588 126.600 C 219.876 116.676,231.638 93.114,231.504 92.713 C 231.360 92.279,218.859 90.050,216.368 90.015 C 215.400 90.001,214.678 91.328,204.793 111.300 M239.330 93.658 C 239.089 93.956,234.622 102.480,229.403 112.600 C 224.185 122.720,218.427 133.880,216.608 137.400 C 214.789 140.920,210.013 150.190,205.995 158.000 C 201.977 165.810,194.463 180.390,189.298 190.400 C 184.133 200.410,178.194 211.930,176.101 216.000 C 174.007 220.070,171.058 225.762,169.547 228.650 C 166.209 235.028,166.103 233.327,170.440 242.936 C 176.057 255.383,177.122 257.600,177.480 257.600 C 177.662 257.600,179.410 254.585,181.363 250.900 C 183.316 247.215,187.655 239.070,191.005 232.800 C 194.355 226.530,200.064 215.820,203.692 209.000 C 207.320 202.180,213.168 191.200,216.688 184.600 C 229.353 160.852,236.729 147.002,249.494 123.000 C 256.632 109.580,262.815 98.005,263.236 97.277 C 264.578 94.955,264.499 94.906,258.900 94.617 C 253.427 94.334,245.582 93.750,241.984 93.358 C 240.365 93.181,239.650 93.262,239.330 93.658 M272.499 95.130 C 272.224 95.305,270.362 98.497,268.362 102.224 C 266.361 105.951,259.859 118.090,253.913 129.200 C 247.966 140.310,239.907 155.340,236.004 162.600 C 232.100 169.860,226.837 179.670,224.307 184.400 C 214.396 202.931,195.132 238.882,188.112 251.947 L 180.726 265.695 189.420 284.947 C 194.201 295.536,198.280 304.380,198.483 304.600 C 200.012 306.257,222.411 290.761,234.663 279.572 C 255.570 260.476,279.108 226.109,290.119 198.600 C 302.516 167.630,301.132 117.222,287.310 96.336 L 286.294 94.800 279.647 94.806 C 275.991 94.809,272.775 94.955,272.499 95.130 M326.400 97.297 C 332.413 100.154,336.935 108.561,336.891 116.800 C 336.874 119.958,336.985 120.429,338.442 123.426 C 341.000 128.685,341.774 134.190,340.744 139.783 C 340.321 142.078,340.361 142.443,341.303 144.829 C 343.508 150.414,343.674 156.332,341.781 161.817 C 340.927 164.293,340.838 164.979,341.179 166.461 C 341.841 169.332,341.667 173.981,340.764 177.553 L 339.929 180.857 341.017 183.729 C 343.305 189.764,342.688 197.984,339.457 204.496 C 338.193 207.043,338.141 207.319,338.495 209.496 C 339.289 214.370,338.211 220.433,335.582 225.876 C 334.177 228.786,334.000 229.484,334.000 232.112 C 334.000 239.771,329.661 248.771,323.774 253.327 C 321.883 254.790,321.588 255.213,321.358 256.797 C 320.324 263.901,316.088 271.257,310.532 275.601 C 308.740 277.001,308.349 277.573,307.603 279.880 C 305.553 286.228,301.920 291.220,295.921 295.935 C 293.571 297.782,293.291 298.161,292.858 300.096 C 291.039 308.224,282.907 316.833,273.288 320.813 C 269.443 322.404,269.438 322.408,268.213 325.083 C 260.031 342.956,230.989 350.661,218.719 338.215 C 207.345 326.678,219.358 305.455,240.169 300.317 L 243.584 299.474 245.256 296.637 C 248.783 290.651,255.999 284.660,262.883 282.003 L 265.800 280.877 267.873 276.738 C 270.250 271.992,273.310 268.090,276.902 265.224 C 279.039 263.519,280.851 262.500,287.151 259.459 C 287.801 259.145,288.323 258.305,288.802 256.800 C 290.546 251.324,293.083 247.338,297.387 243.315 C 299.528 241.314,300.400 240.220,300.400 239.534 C 300.400 236.596,302.907 230.217,305.456 226.669 C 306.883 224.683,306.891 224.647,306.830 220.783 C 306.729 214.322,308.268 208.813,311.501 204.074 L 313.324 201.400 313.391 196.600 C 313.463 191.421,314.154 188.047,315.816 184.768 L 316.774 182.878 315.787 178.988 C 314.306 173.151,314.594 168.459,316.767 163.016 L 317.888 160.207 317.110 157.603 C 316.147 154.386,315.980 148.393,316.755 144.900 C 317.298 142.451,317.287 142.350,316.183 139.900 C 314.526 136.224,314.013 133.533,314.006 128.489 C 314.000 124.302,313.916 123.810,312.829 121.657 C 305.784 107.702,314.684 91.728,326.400 97.297 M80.880 101.250 C 89.408 103.059,96.156 112.641,96.523 123.464 L 96.647 127.128 98.837 129.493 C 102.880 133.860,105.600 140.657,105.600 146.394 C 105.600 148.960,105.670 149.150,107.458 151.430 C 111.042 155.999,113.200 162.138,113.200 167.760 C 113.200 170.829,113.218 170.884,114.643 172.134 C 119.096 176.042,123.172 184.791,123.193 190.487 C 123.200 192.241,123.381 192.575,125.787 195.246 C 129.936 199.853,132.318 205.533,132.991 212.424 C 133.245 215.019,133.271 215.066,135.384 216.717 C 141.202 221.260,145.146 229.670,145.830 238.992 C 146.069 242.250,146.242 242.933,146.975 243.515 C 151.558 247.153,155.453 255.667,156.203 263.684 C 156.458 266.418,156.610 266.845,157.545 267.455 C 165.888 272.895,171.832 286.138,170.917 297.243 L 170.700 299.887 173.182 302.843 C 177.622 308.132,180.340 314.781,181.228 322.532 L 181.694 326.600 183.768 328.800 C 197.652 343.528,196.957 369.544,182.489 376.694 C 167.958 383.874,150.569 366.689,150.217 344.800 L 150.130 339.400 148.314 336.800 C 143.712 330.211,141.135 321.311,141.744 314.107 L 141.996 311.124 139.963 308.862 C 134.364 302.635,130.547 291.561,131.350 283.876 L 131.597 281.515 128.963 278.671 C 124.326 273.663,121.425 266.552,120.927 258.978 L 120.676 255.153 118.895 253.276 C 113.506 247.599,110.893 241.092,110.510 232.400 L 110.290 227.400 108.146 225.078 C 104.637 221.278,102.076 215.155,101.400 208.950 C 101.161 206.759,100.943 206.298,99.335 204.596 C 94.236 199.198,91.600 192.315,91.600 184.397 L 91.600 180.847 89.565 178.523 C 85.854 174.288,83.200 167.173,83.200 161.460 C 83.200 159.505,83.037 159.092,81.576 157.344 C 78.027 153.096,75.600 146.210,75.600 140.389 L 75.600 137.630 73.363 135.123 C 62.840 123.330,64.877 103.586,76.859 101.230 C 77.816 101.042,78.636 100.868,78.680 100.844 C 78.724 100.820,79.714 101.002,80.880 101.250 M319.400 102.065 C 315.132 104.415,313.206 111.033,315.015 117.127 C 315.764 119.649,315.795 119.652,317.953 117.359 C 321.365 113.732,326.232 112.954,330.772 115.309 C 333.472 116.710,333.346 116.776,333.095 114.100 C 332.324 105.876,324.679 99.158,319.400 102.065 M77.400 107.260 C 71.139 109.567,69.072 118.830,72.995 127.000 C 74.177 129.463,76.542 132.449,76.931 131.971 C 77.007 131.877,77.764 130.739,78.612 129.442 C 81.234 125.434,84.874 123.707,89.699 124.182 L 92.400 124.448 92.400 122.708 C 92.400 113.623,83.897 104.866,77.400 107.260 M323.383 119.952 C 319.517 121.708,318.715 124.374,321.600 125.882 C 325.183 127.755,329.704 126.479,331.451 123.102 C 332.845 120.405,327.220 118.209,323.383 119.952 M333.502 127.756 C 330.262 131.632,325.551 132.617,320.864 130.400 C 319.469 129.740,318.254 129.200,318.164 129.200 C 317.748 129.200,318.064 133.670,318.610 135.510 C 319.392 138.143,319.662 138.272,321.325 136.812 C 325.577 133.079,330.146 133.079,335.912 136.810 C 337.850 138.063,338.147 132.934,336.407 128.300 C 335.370 125.541,335.355 125.538,333.502 127.756 M85.296 130.844 C 81.844 132.553,80.944 135.200,83.816 135.200 C 86.789 135.200,91.512 131.876,90.611 130.417 C 90.173 129.709,87.089 129.957,85.296 130.844 M93.851 134.947 C 91.263 138.993,88.265 140.570,83.300 140.495 L 80.000 140.445 80.000 142.138 C 80.000 145.537,82.879 153.200,84.156 153.200 C 84.401 153.200,85.037 152.379,85.569 151.375 C 88.259 146.305,93.595 143.891,98.736 145.418 C 99.881 145.758,101.006 145.920,101.237 145.777 C 102.242 145.156,100.299 138.843,98.130 135.681 C 95.912 132.448,95.495 132.377,93.851 134.947 M326.633 139.780 C 322.751 141.196,322.386 143.072,325.693 144.611 C 328.974 146.139,333.212 145.420,334.439 143.128 C 335.588 140.980,329.962 138.567,326.633 139.780 M320.187 149.367 C 319.883 151.795,320.269 155.472,320.865 155.840 C 321.080 155.973,322.364 155.491,323.719 154.769 C 328.148 152.408,332.741 153.141,336.391 156.791 C 338.453 158.853,339.023 158.677,339.374 155.868 C 340.013 150.754,338.114 145.730,336.349 147.864 C 333.798 150.947,327.775 151.160,323.156 148.330 C 320.670 146.807,320.499 146.867,320.187 149.367 M93.600 151.438 C 89.441 153.239,87.543 157.231,90.472 158.019 C 94.523 159.110,100.400 155.772,100.400 152.379 C 100.400 150.911,96.169 150.325,93.600 151.438 M103.229 157.428 C 100.522 162.531,95.333 164.508,88.700 162.963 C 87.734 162.738,87.600 162.824,87.600 163.669 C 87.600 168.318,92.418 177.239,93.744 175.047 C 96.884 169.855,100.567 167.752,105.864 168.126 L 109.313 168.369 109.075 165.885 C 108.681 161.762,106.056 155.600,104.694 155.600 C 104.422 155.600,103.762 156.423,103.229 157.428 M325.800 159.545 C 322.633 160.986,322.841 162.418,326.529 164.580 C 330.991 167.194,337.160 165.278,334.755 162.025 C 332.749 159.312,328.749 158.204,325.800 159.545 M319.415 167.673 C 318.412 171.050,318.676 177.424,319.837 177.870 C 320.125 177.980,320.960 177.614,321.692 177.055 C 325.644 174.041,330.149 173.539,334.360 175.643 C 337.152 177.039,337.136 177.042,337.625 174.932 C 338.782 169.950,338.024 168.467,335.023 169.841 C 330.950 171.706,326.808 170.829,322.739 167.241 C 320.363 165.147,320.158 165.174,319.415 167.673 M103.506 174.398 C 100.932 175.173,97.994 177.820,98.607 178.811 C 99.398 180.091,103.572 178.963,105.700 176.895 C 108.168 174.497,107.124 173.309,103.506 174.398 M110.864 178.372 C 108.493 182.591,104.761 184.570,99.620 184.337 L 96.600 184.200 96.480 186.963 C 96.326 190.527,97.439 194.269,99.629 197.548 C 101.649 200.574,101.703 200.573,103.234 197.500 C 106.037 191.877,109.209 189.793,114.933 189.816 L 118.866 189.832 118.597 188.040 C 118.072 184.542,116.061 180.522,113.608 178.070 C 112.005 176.467,111.930 176.475,110.864 178.372 M325.171 181.191 C 322.126 182.801,322.408 184.163,326.000 185.194 C 328.559 185.928,332.598 184.672,333.581 182.835 C 334.701 180.744,328.362 179.504,325.171 181.191 M334.262 187.981 C 330.256 191.113,325.373 191.203,321.456 188.215 C 320.724 187.657,319.996 187.200,319.840 187.200 C 319.229 187.200,317.960 190.908,317.731 193.358 C 317.374 197.187,317.493 197.319,320.274 196.175 C 325.191 194.154,329.896 195.096,333.657 198.857 C 336.471 201.671,336.245 201.643,337.300 199.300 C 338.800 195.968,338.326 186.318,336.669 186.432 C 336.411 186.450,335.328 187.147,334.262 187.981 M112.650 196.188 C 109.225 197.408,105.390 202.973,107.433 203.757 C 109.785 204.660,113.619 203.531,115.654 201.337 C 119.584 197.100,117.950 194.299,112.650 196.188 M121.336 201.900 C 118.849 207.162,114.480 209.885,109.137 209.503 C 107.622 209.394,106.295 209.447,106.188 209.619 C 105.462 210.793,108.579 218.763,110.603 220.909 C 111.827 222.207,112.132 222.094,113.233 219.935 C 115.495 215.502,120.238 212.642,125.272 212.674 C 128.908 212.698,128.949 212.647,128.204 209.086 C 127.386 205.177,124.305 199.600,122.964 199.600 C 122.667 199.600,121.934 200.635,121.336 201.900 M320.900 202.196 C 319.096 202.980,319.211 204.117,321.307 206.212 C 323.973 208.878,327.141 209.415,330.580 207.783 C 335.669 205.368,326.190 199.897,320.900 202.196 M313.614 209.711 C 312.282 212.416,310.889 218.214,311.309 219.306 C 311.536 219.898,311.927 219.805,314.635 218.519 C 320.721 215.629,326.322 216.398,330.235 220.660 C 331.162 221.670,332.114 222.377,332.350 222.231 C 333.639 221.434,334.724 212.000,333.526 212.000 C 333.266 212.000,332.233 212.397,331.232 212.881 C 326.335 215.252,320.488 213.638,317.154 208.996 C 315.465 206.644,315.086 206.721,313.614 209.711 M121.941 220.406 C 120.330 221.257,117.508 224.319,117.724 224.980 C 118.574 227.571,127.200 223.165,127.200 220.140 C 127.200 219.310,123.678 219.489,121.941 220.406 M130.846 223.900 C 128.278 228.969,125.128 230.968,119.600 231.037 L 115.800 231.084 115.814 234.242 C 115.832 238.242,117.090 242.287,119.375 245.698 C 121.579 248.988,122.023 249.019,123.634 245.997 C 126.751 240.148,133.060 237.199,138.955 238.836 C 141.314 239.491,141.425 239.084,140.331 233.800 C 139.660 230.559,137.315 226.205,134.940 223.791 C 132.277 221.086,132.272 221.086,130.846 223.900 M317.600 223.174 C 313.349 224.472,312.272 225.826,313.839 227.904 C 317.381 232.601,322.963 233.266,327.100 229.483 C 330.224 226.627,322.687 221.621,317.600 223.174 M307.715 231.474 C 306.845 232.802,305.184 237.650,305.451 238.083 C 305.559 238.257,306.865 238.400,308.352 238.400 C 313.854 238.400,318.636 241.635,320.185 246.404 C 321.240 249.652,321.396 249.686,323.731 247.184 C 326.066 244.683,327.710 241.596,328.639 237.972 C 329.442 234.837,329.099 234.476,326.565 235.788 C 320.551 238.900,314.282 237.578,310.573 232.415 C 308.904 230.092,308.670 230.015,307.715 231.474 M305.736 245.022 C 305.039 246.840,308.571 251.045,311.543 251.936 C 316.373 253.383,317.409 251.061,313.658 247.196 C 311.205 244.667,306.381 243.343,305.736 245.022 M133.906 245.598 C 130.292 246.686,126.156 251.760,128.233 252.557 C 131.620 253.857,136.413 251.663,138.870 247.686 C 140.210 245.518,137.692 244.458,133.906 245.598 M298.129 249.300 C 295.460 252.071,292.718 257.278,293.511 258.071 C 293.704 258.264,295.018 258.604,296.431 258.826 C 302.771 259.821,306.027 262.891,308.601 270.300 C 309.407 272.620,315.508 263.824,316.231 259.300 L 316.502 257.600 313.522 257.600 C 307.820 257.600,303.655 254.902,301.636 249.900 C 300.525 247.149,300.247 247.101,298.129 249.300 M144.130 249.700 C 143.928 249.975,143.411 250.898,142.981 251.751 C 140.259 257.155,134.514 259.788,127.600 258.800 C 124.412 258.345,126.749 268.125,131.020 273.115 C 132.845 275.248,132.874 275.243,134.383 272.568 C 137.406 267.213,142.256 264.225,147.871 264.261 C 151.770 264.285,151.753 264.307,150.940 260.341 C 149.767 254.619,145.462 247.891,144.130 249.700 M292.809 266.100 C 292.835 268.832,296.223 272.798,299.219 273.605 C 302.092 274.379,302.625 273.586,301.240 270.600 C 299.517 266.887,292.781 263.292,292.809 266.100 M283.590 267.253 C 279.776 269.162,275.987 272.655,274.032 276.064 C 272.216 279.232,272.326 279.599,275.100 279.607 C 282.856 279.630,289.608 283.501,292.228 289.426 C 293.390 292.053,293.615 292.009,296.789 288.536 C 299.104 286.002,301.869 280.879,301.475 279.851 C 301.293 279.377,300.705 279.198,299.313 279.191 C 294.252 279.168,288.923 273.926,288.138 268.199 C 287.760 265.444,287.368 265.362,283.590 267.253 M144.523 272.831 C 141.363 274.395,138.666 278.067,140.234 278.669 C 142.699 279.614,149.600 275.347,149.600 272.877 C 149.600 271.689,146.879 271.664,144.523 272.831 M153.974 276.451 C 151.043 282.257,147.477 284.580,141.400 284.639 L 137.400 284.678 137.280 287.428 C 137.066 292.319,138.897 298.146,141.954 302.300 C 143.569 304.494,143.992 304.444,145.713 301.851 C 149.429 296.255,155.776 293.702,161.800 295.382 C 165.541 296.425,165.385 296.484,165.518 293.961 C 165.819 288.251,162.849 280.785,158.570 276.500 C 155.507 273.432,155.498 273.432,153.974 276.451 M271.685 286.498 C 271.006 287.315,271.959 290.329,273.520 292.299 C 276.917 296.587,286.579 297.578,285.233 293.500 C 283.748 289.000,273.853 283.886,271.685 286.498 M261.764 288.790 C 257.505 290.933,250.864 297.179,251.332 298.600 C 251.405 298.820,252.963 299.319,254.794 299.709 C 263.110 301.480,268.594 306.348,270.034 313.240 C 270.643 316.156,270.736 316.201,273.342 314.831 C 278.240 312.254,282.602 307.887,284.491 303.667 C 285.490 301.436,285.394 301.374,281.202 301.539 C 272.452 301.882,266.774 297.481,265.413 289.300 C 265.076 287.277,264.836 287.243,261.764 288.790 M156.731 302.792 C 153.169 303.867,149.261 307.670,150.664 308.696 C 153.559 310.813,163.312 306.754,162.720 303.679 C 162.509 302.587,159.088 302.080,156.731 302.792 M248.972 306.529 C 248.012 309.030,251.637 314.403,255.526 316.242 C 262.120 319.362,264.031 315.921,258.835 310.284 C 256.250 307.480,249.581 304.941,248.972 306.529 M239.600 306.782 C 222.053 312.434,215.667 329.980,228.757 336.572 C 237.910 341.182,252.871 336.430,259.176 326.910 C 261.001 324.155,260.861 323.755,257.956 323.427 C 248.838 322.395,242.961 317.117,242.083 309.171 C 241.782 306.443,241.498 306.171,239.600 306.782 M167.201 308.998 C 163.170 314.857,157.033 317.428,150.857 315.846 C 147.696 315.036,147.598 315.104,147.607 318.124 C 147.620 322.724,150.539 332.000,151.974 332.000 C 152.202 332.000,153.114 330.849,154.003 329.443 C 158.364 322.537,166.128 319.451,173.218 321.806 C 176.063 322.751,176.263 322.413,175.243 318.382 C 174.320 314.733,172.196 310.498,170.286 308.500 C 168.706 306.847,168.678 306.852,167.201 308.998 M167.337 329.623 C 163.076 330.450,157.595 335.724,158.512 338.115 C 159.119 339.697,164.533 340.451,167.651 339.389 C 170.822 338.308,174.784 333.923,174.796 331.480 C 174.803 330.107,170.438 329.021,167.337 329.623 M178.825 337.465 C 175.761 344.538,168.200 348.374,161.200 346.407 C 156.325 345.036,156.586 344.922,156.686 348.381 C 156.967 358.184,163.954 368.170,171.968 370.223 C 186.258 373.884,193.293 352.604,182.758 337.586 C 180.664 334.601,180.073 334.583,178.825 337.465 "
              stroke="none" fill="#fbfbfb" fill-rule="evenodd"></path>
    </g>
</svg>