<?xml version="1.0" encoding="UTF-8" standalone="no"?>
<svg
   xmlns:dc="http://purl.org/dc/elements/1.1/"
   xmlns:cc="http://creativecommons.org/ns#"
   xmlns:rdf="http://www.w3.org/1999/02/22-rdf-syntax-ns#"
   xmlns:svg="http://www.w3.org/2000/svg"
   xmlns="http://www.w3.org/2000/svg"
   xmlns:sodipodi="http://sodipodi.sourceforge.net/DTD/sodipodi-0.dtd"
   xmlns:inkscape="http://www.inkscape.org/namespaces/inkscape"
   width="28.84262mm"
   height="23.97018625mm"
   viewBox="0 0 115.37048 95.880745"
   version="1.1"
   id="svg8"
   inkscape:version="1.0.1 (3bc2e813f5, 2020-09-07)"
   sodipodi:docname="Bryn Signature.svg">
  <defs
     id="defs2" />
  <sodipodi:namedview
     id="base"
     pagecolor="#ffffff"
     bordercolor="#666666"
     borderopacity="1.0"
     fit-margin-top="0"
     fit-margin-left="0"
     fit-margin-right="0"
     fit-margin-bottom="0" />
  <metadata
     id="metadata5">
    <rdf:RDF>
      <cc:Work
         rdf:about="">
        <dc:format>image/svg+xml</dc:format>
        <dc:type
           rdf:resource="http://purl.org/dc/dcmitype/StillImage" />
        <dc:title></dc:title>
      </cc:Work>
    </rdf:RDF>
  </metadata>
  <g
     inkscape:label="Layer 1"
     inkscape:groupmode="layer"
     id="layer1"
     transform="translate(-6.1826594,-166.72108)">
    <path
       style="fill:#000000;fill-opacity:1;fill-rule:nonzero;stroke:none;stroke-width:0.264583"
       id="path12"
       d="m 17.784461,176.00248 c 0.555554,3.5884 0.860026,7.20961 1.140677,10.82781 0.452493,7.35671 0.251743,14.72924 -0.0253,22.08771 -0.172593,4.14066 -0.441312,8.28277 -0.297468,12.42795 0.05655,1.0662 0.04332,0.57359 0.05068,1.47749 0,0 3.489951,-1.79434 3.489951,-1.79434 v 0 c -0.05828,-0.8931 -0.02185,-0.40933 -0.114613,-1.4509 -0.277605,-4.08119 -0.08978,-8.17018 0.02655,-12.25453 0.216184,-7.3788 0.368344,-14.76539 0.05696,-22.14427 -0.211682,-3.67701 -0.480848,-7.34953 -0.811068,-11.01789 0,0 -3.516369,1.84097 -3.516369,1.84097 z" />
    <path
       style="fill:#000000;fill-opacity:1;fill-rule:nonzero;stroke:none;stroke-width:0.264583"
       id="path14"
       d="m 12.746354,177.01896 c 2.182427,-2.18183 4.843912,-3.76023 7.498333,-5.2889 -0.336174,0.22882 -1.399627,0.79785 -1.008521,0.68646 0.8029,-0.22867 1.506838,-0.72039 2.275052,-1.04717 0.76385,-0.32492 1.535956,-0.6321 2.319173,-0.90708 1.385358,-0.48638 3.134749,-0.98874 4.58879,-1.2532 0.684046,-0.12441 1.379466,-0.17509 2.069201,-0.26264 1.455068,-0.0162 3.085682,-0.0767 4.277481,0.9341 0.252839,0.21444 0.486484,0.47751 0.611026,0.78475 0.332621,0.82057 -0.04799,1.45524 -0.290385,2.23027 -0.252193,0.46605 -0.474996,0.94925 -0.756576,1.39816 -1.874047,2.98767 -4.689422,5.41145 -7.260934,7.77992 -1.368962,1.22684 -2.743022,2.45091 -4.217773,3.55099 -0.747,0.55722 -1.551055,1.02578 -2.251716,1.64054 0.09502,0.13946 0.12471,0.36582 0.28507,0.41839 0.333701,0.1094 1.486703,-0.51672 1.582711,-0.56142 1.526208,-0.71059 3.051561,-1.41338 4.595099,-2.08596 3.206702,-1.29012 6.568723,-2.33974 10.035132,-2.60212 0.629531,-0.0477 1.262261,-0.0319 1.893393,-0.0478 2.822591,0.0432 5.521179,0.85878 7.830174,2.49982 0.440529,0.31309 0.844069,0.67521 1.2661,1.01281 2.043785,1.86605 3.413821,4.27901 4.087818,6.95756 0.14143,0.56207 0.22226,1.13767 0.333391,1.70651 0.379521,3.433 -0.367734,6.80595 -1.980224,9.85132 -0.384897,0.72692 -0.850839,1.40794 -1.27626,2.11191 -2.243794,3.21642 -5.203574,5.81832 -8.424008,8.02257 -2.499878,1.71106 -1.875798,1.42593 -3.159424,1.97565 -4.782629,2.5196 -9.759664,4.7419 -14.99373,6.14814 -2.872538,0.77176 -3.85175,0.84577 -6.706367,1.28221 -2.2384,0.29168 -4.49163,0.32279 -6.7438129,0.31637 0,0 -3.0419077,2.21242 -3.0419077,2.21242 v 0 c 2.316652,-0.0294 4.6342026,-0.0896 6.9356196,-0.39086 2.840496,-0.4395 3.962017,-0.54047 6.813007,-1.29876 5.23691,-1.39289 10.224361,-3.58687 15.022984,-6.0753 2.092698,-1.19783 4.207664,-2.35756 6.278092,-3.59348 3.595626,-2.14636 7.02328,-4.73469 9.751118,-7.9358 0.581747,-0.68267 1.079688,-1.43254 1.619533,-2.14882 0.427538,-0.72086 0.896887,-1.41851 1.282613,-2.16258 1.620276,-3.12556 2.348571,-6.5872 1.944796,-10.09049 -0.117031,-0.5806 -0.204637,-1.16791 -0.351089,-1.7418 -0.700699,-2.74579 -2.091068,-5.23733 -4.187582,-7.15674 -0.428058,-0.35155 -0.835792,-0.72942 -1.284176,-1.05464 -2.370302,-1.71925 -5.076105,-2.56952 -7.990536,-2.65551 -0.642056,0.008 -1.285428,-0.0165 -1.926164,0.0255 -3.475333,0.22782 -6.856264,1.254 -10.084572,2.50401 -1.513835,0.6479 -3.016957,1.31457 -4.511593,2.0057 -0.111285,0.0515 -1.200702,0.50895 -1.312168,0.71736 -0.05681,0.10622 0.04752,0.23617 0.07129,0.35426 0.679171,-0.55897 1.421282,-1.03248 2.117066,-1.57122 1.435199,-1.11127 2.782928,-2.32819 4.127533,-3.54568 2.544731,-2.36636 5.480156,-4.92905 7.282735,-7.92852 0.285708,-0.47542 0.502111,-0.98918 0.753166,-1.48376 0.255376,-1.00602 0.603599,-1.5683 0.159361,-2.56951 -0.153866,-0.34678 -0.418669,-0.6452 -0.706575,-0.89226 -1.264245,-1.08489 -2.953385,-1.08648 -4.517221,-1.07028 -0.704974,0.083 -1.415547,0.12755 -2.11492,0.24902 -5.248397,0.91155 -10.023414,3.38995 -14.55409,6.07908 -2.734528,1.5899 -5.449412,3.25089 -7.7180955,5.48405 0,0 3.6635655,-1.51749 3.6635655,-1.51749 z" />
    <path
       style="fill:#000000;fill-opacity:1;fill-rule:nonzero;stroke:none;stroke-width:0.264583"
       id="path36"
       d="m 62.269046,208.13877 c -0.668155,3.05575 -1.664231,6.03359 -2.673773,8.99093 -0.9642,2.69994 -1.991699,5.40256 -3.529785,7.83439 -1.088469,1.45709 -2.939502,2.23695 3.208502,-1.1017 0.188613,-0.10243 0.945705,-1.47085 1.061852,-1.67201 0.981268,-1.57096 1.606642,-3.31778 2.227672,-5.05239 0.761723,-2.15691 2.113225,-3.97385 3.603273,-5.67665 0.332531,-0.35356 0.652452,-0.71943 0.997596,-1.0607 0.694235,-0.68643 1.456574,-1.34472 2.249199,-1.91563 0.404945,-0.29167 1.698734,-1.04277 1.250712,-0.82293 -0.701709,0.34434 -1.381654,0.74109 -2.015635,1.19828 -0.376981,0.27187 0.826351,-0.42572 1.239527,-0.63858 2.168282,-1.07828 4.411028,-1.98432 6.752543,-2.60263 1.427538,-0.33991 2.610109,-0.32369 3.818387,0.53899 0.599236,0.52103 0.681998,0.89567 0.551204,1.65048 0,0 3.54348,-1.75393 3.54348,-1.75393 v 0 c 0.06051,-0.87767 -0.08882,-1.40125 -0.766781,-2.00281 -1.298726,-1.00494 -2.47908,-1.11344 -4.080648,-0.77984 -2.373786,0.59099 -4.643816,1.48554 -6.839582,2.56374 -3.815734,1.91669 -7.423319,3.85023 -10.215809,7.11185 -1.511408,1.76957 -2.840736,3.60537 -3.601849,5.83059 -0.624658,1.72441 -1.281229,3.44504 -2.281259,4.99436 -0.390726,0.63245 -0.376788,0.63596 -0.795274,1.21736 -0.108773,0.15112 -0.515519,0.49473 -0.335685,0.44648 2.961471,-0.79458 2.966194,-0.48344 3.983945,-2.0474 1.417979,-2.47663 2.416757,-5.15919 3.358849,-7.8459 1.027017,-3.01351 2.023395,-6.04169 2.848797,-9.11744 0,0 -3.559458,1.71309 -3.559458,1.71309 z" />
    <path
       style="fill:#000000;fill-opacity:1;fill-rule:nonzero;stroke:none;stroke-width:0.264583"
       id="path46"
       d="m 77.923415,217.25002 c 0.106055,1.58281 0.320947,3.17134 1.027358,4.61406 0.167172,0.34142 0.383524,0.65647 0.575286,0.98471 0.923759,1.22946 1.987794,2.12308 3.543602,2.40599 0.991264,0.18026 1.356873,0.0636 2.350492,-0.0489 1.317617,-0.29305 2.53423,-0.85759 3.687146,-1.54783 1.477595,-0.88461 2.971631,-1.74496 4.40608,-2.69795 0.701627,-0.46613 1.50801,-1.41552 2.06681,-2.02111 1.58225,-1.86604 2.67264,-4.04839 3.12068,-6.45802 0.0754,-0.40531 0.10887,-0.81729 0.16331,-1.22593 0.024,-0.35144 0.0678,-0.70209 0.0719,-1.05432 0.005,-0.38973 -0.0286,-0.99816 -0.19056,-1.38742 -0.0422,-0.10148 -0.10198,-0.30885 -0.20109,-0.26132 -3.81256,1.82811 -3.49378,0.78161 -3.7518,2.8012 -0.0275,0.31573 -0.0581,0.63119 -0.0824,0.94718 -0.124794,1.62389 -0.216284,3.24358 -0.40875,4.86224 -0.243059,2.04412 -0.373404,2.71271 -0.71034,4.82235 -1.061622,6.02165 -2.928308,11.88424 -5.63649,17.3716 -0.606885,1.22969 -1.299856,2.41498 -1.949783,3.62247 -3.004357,5.01427 -6.818098,9.46963 -11.444489,13.05558 -3.083277,2.38987 -2.273935,2.0448 -4.15032,2.70078 -1.092428,0.4144 -2.150012,0.93597 -3.277283,1.2432 -2.231731,0.60824 -5.271778,0.88869 -7.204707,-0.73705 -1.422289,-1.19625 -1.509178,-2.30275 -2.057154,-3.981 -0.05305,-0.853 -0.200633,-1.70536 -0.159155,-2.55899 0.13751,-2.8299 1.301819,-5.61302 2.85554,-7.94715 1.505762,-2.26209 2.346745,-2.87485 4.290102,-4.76158 3.435488,-2.70081 1.707899,-1.46784 5.413356,-3.872 0.07005,-0.0455 -0.282855,0.17678 -0.208327,0.13912 0.96007,-0.48518 1.899518,-1.01109 2.866459,-1.48242 2.242962,-1.09334 3.519093,-1.58657 5.817822,-2.5456 3.501848,-1.44878 7.121324,-2.6074 10.586759,-4.14661 1.861736,-0.82691 2.510838,-1.21217 4.273056,-2.15249 1.673864,-0.9937 3.382554,-1.93094 5.021594,-2.98109 2.023731,-1.29663 4.004661,-3.50524 5.214021,-5.57925 0.25701,-0.44078 0.45982,-0.91101 0.68972,-1.36651 0.89519,-1.97193 1.24316,-4.11257 1.42755,-6.2527 0.12277,-1.99735 0.63097,-2.12344 -3.37919,1.27335 -0.16161,0.13689 0.0701,0.41783 0.0978,0.6278 0.0976,0.74035 0.11432,1.06736 0.17794,1.83651 0.19339,2.15589 0.17999,4.30998 -0.22983,6.43727 -0.0712,0.30893 -0.20363,0.94041 -0.32221,1.26708 -0.0351,0.0967 -0.0941,0.18284 -0.14118,0.27425 1.18812,-0.74021 2.48849,-1.32507 3.56438,-2.22064 0.20314,-0.16909 0.0292,-0.52794 0.0538,-0.7911 0.0309,-0.33047 0.0751,-0.65956 0.11262,-0.98934 0.43156,-2.27975 1.00473,-4.62222 2.1685,-6.65599 0.24208,-0.42305 0.54205,-0.81022 0.81308,-1.21533 0.79093,-0.92378 0.90682,-1.16578 1.86694,-1.88527 0.31044,-0.23263 1.30797,-0.83493 0.98123,-0.62579 -0.76287,0.4883 -1.6388,0.83336 -2.28964,1.46329 -0.26164,0.25323 0.69881,-0.2123 1.05811,-0.27134 0.35979,-0.0591 0.7272,-0.0545 1.0908,-0.0818 1.3844,0.0312 2.81757,0.24644 3.97059,1.08104 0.67507,0.48863 0.92013,0.88954 1.43067,1.5338 0.17224,0.32324 0.37569,0.63169 0.51672,0.96972 0.80657,1.93326 0.68691,4.23759 0.595,6.28425 -0.0963,1.32496 -0.0586,0.69147 -0.11724,1.90023 0,0 3.47394,-1.75351 3.47394,-1.75351 v 0 c 0.0322,-1.18852 0.01,-0.56235 0.0715,-1.87838 0.0644,-2.55677 0.14642,-5.23403 -1.22583,-7.49946 -0.52278,-0.66884 -0.81969,-1.13581 -1.50381,-1.65996 -1.18006,-0.90413 -2.65645,-1.18608 -4.1034,-1.2595 -0.37668,0.009 -0.75546,-0.0128 -1.13003,0.0281 -2.12857,0.23251 -3.30276,1.33967 -5.42117,2.54741 -1.1194,0.63819 -1.9912,1.61697 -2.74893,2.63722 -0.26365,0.42037 -0.55482,0.82468 -0.79095,1.26109 -1.13532,2.09825 -1.72078,4.47323 -2.17515,6.79537 -0.0433,0.3381 -0.0913,0.67564 -0.13002,1.0143 -0.0317,0.27766 -0.35894,0.86603 -0.0813,0.83447 3.59246,-0.40826 3.4808,-0.59254 3.90785,-2.80904 0.34391,-2.15842 0.32495,-4.3376 0.16943,-6.51476 -0.0565,-0.84971 -0.0636,-1.06677 -0.14377,-1.88002 -0.0216,-0.21857 0.14147,-0.70002 -0.0734,-0.65478 -3.87913,0.81662 -3.52559,0.37722 -3.60707,2.32388 -0.15773,2.08336 -0.50603,4.16334 -1.39914,6.07163 -0.22865,0.43908 -0.43117,0.89277 -0.68594,1.31722 -0.605411,1.00867 -1.312921,1.92217 -2.122331,2.77649 -0.45752,0.48292 -0.93627,0.9476 -1.44282,1.37882 -0.52443,0.44644 -1.29997,0.654 -1.64517,1.24996 -0.24643,0.42543 0.87451,-0.44957 1.31176,-0.67436 -1.71861,0.93777 -2.474581,1.38965 -4.2879,2.21115 -3.47517,1.57438 -7.11885,2.73714 -10.642679,4.19137 -2.269948,0.93811 -3.625766,1.46084 -5.842715,2.52833 -3.013318,1.45096 -5.873152,3.12479 -8.739592,4.86139 -0.964562,0.58437 -1.909278,1.20413 -2.820231,1.86898 -0.891466,0.65063 -1.720918,1.38223 -2.581378,2.07334 -1.944073,1.93581 -2.778141,2.55915 -4.278439,4.87103 -1.565619,2.41253 -2.706696,5.25483 -2.818432,8.15625 -0.03409,0.88533 0.120229,1.76788 0.180343,2.65181 0.578241,1.76684 0.691441,2.96383 2.17443,4.24473 1.984518,1.71409 5.20604,1.48494 7.534786,0.87286 1.155311,-0.30366 2.239793,-0.83135 3.35969,-1.24702 2.158026,-1.21072 4.366461,-2.33568 6.474076,-3.63217 1.224145,-0.75302 2.378204,-1.61857 3.507295,-2.50781 4.648936,-3.66135 8.413771,-8.11957 11.442301,-13.19268 0.644485,-1.21353 1.329025,-2.40661 1.933453,-3.64058 2.720501,-5.55405 4.640882,-11.46925 5.785842,-17.54299 0.44356,-2.5321 0.46181,-2.47488 0.78332,-4.88011 0.21915,-1.63945 0.33881,-3.28518 0.53947,-4.92596 0.0381,-0.31148 0.09,-0.62112 0.13499,-0.93168 0.0615,-0.19662 0.38111,-0.65147 0.18453,-0.58984 -1.17752,0.36913 -2.24688,1.02295 -3.34734,1.58134 -0.0413,0.0209 0.10806,0.0104 0.12889,0.0517 0.0742,0.14733 0.11149,0.31263 0.13682,0.47565 0.10676,0.68697 0.0379,1.06798 -0.006,1.78614 -0.0544,0.39421 -0.087,0.79206 -0.16331,1.18263 -0.46108,2.36012 -1.606576,4.47217 -3.187734,6.26985 -0.340003,0.34935 -0.662625,0.7165 -1.020006,1.04805 -0.345239,0.32029 -1.54763,0.99288 -1.085009,0.90482 0.780717,-0.14859 1.387184,-0.78128 2.114847,-1.10082 0.419465,-0.18421 -0.780553,0.48137 -1.186739,0.69326 -0.390522,0.20371 -0.791355,0.38905 -1.200544,0.55207 -0.38858,0.15482 -0.792911,0.26673 -1.189365,0.40009 -0.9227,0.15162 -1.313561,0.28731 -2.245813,0.16642 -1.528791,-0.19825 -2.47033,-0.97569 -3.389815,-2.14937 -0.180782,-0.31223 -0.385315,-0.61186 -0.542351,-0.93669 -0.688387,-1.42391 -0.864851,-2.99754 -0.889172,-4.5583 0,0 -3.509745,1.82522 -3.509745,1.82522 z" />
    <path
       style="fill:#000000;fill-opacity:1;fill-rule:nonzero;stroke:none;stroke-width:0.264583"
       id="path40"
       d="m 17.784461,176.00248 c 0.555554,3.5884 0.860026,7.20961 1.140677,10.82781 0.452493,7.35671 0.251743,14.72924 -0.0253,22.08771 -0.172593,4.14066 -0.441312,8.28277 -0.297468,12.42795 0.05655,1.0662 0.04332,0.57359 0.05068,1.47749 0,0 3.489951,-1.79434 3.489951,-1.79434 v 0 c -0.05828,-0.8931 -0.02185,-0.40933 -0.114613,-1.4509 -0.277605,-4.08119 -0.08978,-8.17018 0.02655,-12.25453 0.216184,-7.3788 0.368344,-14.76539 0.05696,-22.14427 -0.211682,-3.67701 -0.480848,-7.34953 -0.811068,-11.01789 0,0 -3.516369,1.84097 -3.516369,1.84097 z" />
    <path
       style="fill:#000000;fill-opacity:1;fill-rule:nonzero;stroke:none;stroke-width:0.264583"
       id="path42"
       d="m 12.746354,177.01896 c 2.182427,-2.18183 4.843912,-3.76023 7.498333,-5.2889 -0.336174,0.22882 -1.399627,0.79785 -1.008521,0.68646 0.8029,-0.22867 1.506838,-0.72039 2.275052,-1.04717 0.76385,-0.32492 1.535956,-0.6321 2.319173,-0.90708 1.385358,-0.48638 3.134749,-0.98874 4.58879,-1.2532 0.684046,-0.12441 1.379466,-0.17509 2.069201,-0.26264 1.455068,-0.0162 3.085682,-0.0767 4.277481,0.9341 0.252839,0.21444 0.486484,0.47751 0.611026,0.78475 0.332621,0.82057 -0.04799,1.45524 -0.290385,2.23027 -0.252193,0.46605 -0.474996,0.94925 -0.756576,1.39816 -1.874047,2.98767 -4.689422,5.41145 -7.260934,7.77992 -1.368962,1.22684 -2.743022,2.45091 -4.217773,3.55099 -0.747,0.55722 -1.551055,1.02578 -2.251716,1.64054 0.09502,0.13946 0.12471,0.36582 0.28507,0.41839 0.333701,0.1094 1.486703,-0.51672 1.582711,-0.56142 1.526208,-0.71059 3.051561,-1.41338 4.595099,-2.08596 3.206702,-1.29012 6.568723,-2.33974 10.035132,-2.60212 0.629531,-0.0477 1.262261,-0.0319 1.893393,-0.0478 2.822591,0.0432 5.521179,0.85878 7.830174,2.49982 0.440529,0.31309 0.844069,0.67521 1.2661,1.01281 2.043785,1.86605 3.413821,4.27901 4.087818,6.95756 0.14143,0.56207 0.22226,1.13767 0.333391,1.70651 0.379521,3.433 -0.367734,6.80595 -1.980224,9.85132 -0.384897,0.72692 -0.850839,1.40794 -1.27626,2.11191 -2.243794,3.21642 -5.203574,5.81832 -8.424008,8.02257 -2.499878,1.71106 -1.875798,1.42593 -3.159424,1.97565 -4.782629,2.5196 -9.759664,4.7419 -14.99373,6.14814 -2.872538,0.77176 -3.85175,0.84577 -6.706367,1.28221 -2.2384,0.29168 -4.49163,0.32279 -6.7438129,0.31637 0,0 -3.0419077,2.21242 -3.0419077,2.21242 v 0 c 2.316652,-0.0294 4.6342026,-0.0896 6.9356196,-0.39086 2.840496,-0.4395 3.962017,-0.54047 6.813007,-1.29876 5.23691,-1.39289 10.224361,-3.58687 15.022984,-6.0753 2.092698,-1.19783 4.207664,-2.35756 6.278092,-3.59348 3.595626,-2.14636 7.02328,-4.73469 9.751118,-7.9358 0.581747,-0.68267 1.079688,-1.43254 1.619533,-2.14882 0.427538,-0.72086 0.896887,-1.41851 1.282613,-2.16258 1.620276,-3.12556 2.348571,-6.5872 1.944796,-10.09049 -0.117031,-0.5806 -0.204637,-1.16791 -0.351089,-1.7418 -0.700699,-2.74579 -2.091068,-5.23733 -4.187582,-7.15674 -0.428058,-0.35155 -0.835792,-0.72942 -1.284176,-1.05464 -2.370302,-1.71925 -5.076105,-2.56952 -7.990536,-2.65551 -0.642056,0.008 -1.285428,-0.0165 -1.926164,0.0255 -3.475333,0.22782 -6.856264,1.254 -10.084572,2.50401 -1.513835,0.6479 -3.016957,1.31457 -4.511593,2.0057 -0.111285,0.0515 -1.200702,0.50895 -1.312168,0.71736 -0.05681,0.10622 0.04752,0.23617 0.07129,0.35426 0.679171,-0.55897 1.421282,-1.03248 2.117066,-1.57122 1.435199,-1.11127 2.782928,-2.32819 4.127533,-3.54568 2.544731,-2.36636 5.480156,-4.92905 7.282735,-7.92852 0.285708,-0.47542 0.502111,-0.98918 0.753166,-1.48376 0.255376,-1.00602 0.603599,-1.5683 0.159361,-2.56951 -0.153866,-0.34678 -0.418669,-0.6452 -0.706575,-0.89226 -1.264245,-1.08489 -2.953385,-1.08648 -4.517221,-1.07028 -0.704974,0.083 -1.415547,0.12755 -2.11492,0.24902 -5.248397,0.91155 -10.023414,3.38995 -14.55409,6.07908 -2.734528,1.5899 -5.449412,3.25089 -7.7180955,5.48405 0,0 3.6635655,-1.51749 3.6635655,-1.51749 z" />
    <path
       style="fill:#000000;fill-opacity:1;fill-rule:nonzero;stroke:none;stroke-width:0.264583"
       id="path44"
       d="m 62.269046,208.13877 c -0.668155,3.05575 -1.664231,6.03359 -2.673773,8.99093 -0.9642,2.69994 -1.991699,5.40256 -3.529785,7.83439 -1.088469,1.45709 -2.939502,2.23695 3.208502,-1.1017 0.188613,-0.10243 0.945705,-1.47085 1.061852,-1.67201 0.981268,-1.57096 1.606642,-3.31778 2.227672,-5.05239 0.761723,-2.15691 2.113225,-3.97385 3.603273,-5.67665 0.332531,-0.35356 0.652452,-0.71943 0.997596,-1.0607 0.694235,-0.68643 1.456574,-1.34472 2.249199,-1.91563 0.404945,-0.29167 1.698734,-1.04277 1.250712,-0.82293 -0.701709,0.34434 -1.381654,0.74109 -2.015635,1.19828 -0.376981,0.27187 0.826351,-0.42572 1.239527,-0.63858 2.168282,-1.07828 4.411028,-1.98432 6.752543,-2.60263 1.427538,-0.33991 2.610109,-0.32369 3.818387,0.53899 0.599236,0.52103 0.681998,0.89567 0.551204,1.65048 0,0 3.54348,-1.75393 3.54348,-1.75393 v 0 c 0.06051,-0.87767 -0.08882,-1.40125 -0.766781,-2.00281 -1.298726,-1.00494 -2.47908,-1.11344 -4.080648,-0.77984 -2.373786,0.59099 -4.643816,1.48554 -6.839582,2.56374 -3.815734,1.91669 -7.423319,3.85023 -10.215809,7.11185 -1.511408,1.76957 -2.840736,3.60537 -3.601849,5.83059 -0.624658,1.72441 -1.281229,3.44504 -2.281259,4.99436 -0.390726,0.63245 -0.376788,0.63596 -0.795274,1.21736 -0.108773,0.15112 -0.515519,0.49473 -0.335685,0.44648 2.961471,-0.79458 2.966194,-0.48344 3.983945,-2.0474 1.417979,-2.47663 2.416757,-5.15919 3.358849,-7.8459 1.027017,-3.01351 2.023395,-6.04169 2.848797,-9.11744 0,0 -3.559458,1.71309 -3.559458,1.71309 z" />
    <path
       style="fill:#000000;fill-opacity:1;fill-rule:nonzero;stroke:none;stroke-width:0.264583"
       id="path47"
       d="m 77.923415,217.25002 c 0.106055,1.58281 0.320947,3.17134 1.027358,4.61406 0.167172,0.34142 0.383524,0.65647 0.575286,0.98471 0.923759,1.22946 1.987794,2.12308 3.543602,2.40599 0.991264,0.18026 1.356873,0.0636 2.350492,-0.0489 1.317617,-0.29305 2.53423,-0.85759 3.687146,-1.54783 1.477595,-0.88461 2.971631,-1.74496 4.40608,-2.69795 0.701627,-0.46613 1.50801,-1.41552 2.06681,-2.02111 1.58225,-1.86604 2.67264,-4.04839 3.12068,-6.45802 0.0754,-0.40531 0.10887,-0.81729 0.16331,-1.22593 0.024,-0.35144 0.0678,-0.70209 0.0719,-1.05432 0.005,-0.38973 -0.0286,-0.99816 -0.19056,-1.38742 -0.0422,-0.10148 -0.10198,-0.30885 -0.20109,-0.26132 -3.81256,1.82811 -3.49378,0.78161 -3.7518,2.8012 -0.0275,0.31573 -0.0581,0.63119 -0.0824,0.94718 -0.124794,1.62389 -0.216284,3.24358 -0.40875,4.86224 -0.243059,2.04412 -0.373404,2.71271 -0.71034,4.82235 -1.061622,6.02165 -2.928308,11.88424 -5.63649,17.3716 -0.606885,1.22969 -1.299856,2.41498 -1.949783,3.62247 -3.004357,5.01427 -6.818098,9.46963 -11.444489,13.05558 -3.083277,2.38987 -2.273935,2.0448 -4.15032,2.70078 -1.092428,0.4144 -2.150012,0.93597 -3.277283,1.2432 -2.231731,0.60824 -5.271778,0.88869 -7.204707,-0.73705 -1.422289,-1.19625 -1.509178,-2.30275 -2.057154,-3.981 -0.05305,-0.853 -0.200633,-1.70536 -0.159155,-2.55899 0.13751,-2.8299 1.301819,-5.61302 2.85554,-7.94715 1.505762,-2.26209 2.346745,-2.87485 4.290102,-4.76158 3.435488,-2.70081 1.707899,-1.46784 5.413356,-3.872 0.07005,-0.0455 -0.282855,0.17678 -0.208327,0.13912 0.96007,-0.48518 1.899518,-1.01109 2.866459,-1.48242 2.242962,-1.09334 3.519093,-1.58657 5.817822,-2.5456 3.501848,-1.44878 7.121324,-2.6074 10.586759,-4.14661 1.861736,-0.82691 2.510838,-1.21217 4.273056,-2.15249 1.673864,-0.9937 3.382554,-1.93094 5.021594,-2.98109 2.023731,-1.29663 4.004661,-3.50524 5.214021,-5.57925 0.25701,-0.44078 0.45982,-0.91101 0.68972,-1.36651 0.89519,-1.97193 1.24316,-4.11257 1.42755,-6.2527 0.12277,-1.99735 0.63097,-2.12344 -3.37919,1.27335 -0.16161,0.13689 0.0701,0.41783 0.0978,0.6278 0.0976,0.74035 0.11432,1.06736 0.17794,1.83651 0.19339,2.15589 0.17999,4.30998 -0.22983,6.43727 -0.0712,0.30893 -0.20363,0.94041 -0.32221,1.26708 -0.0351,0.0967 -0.0941,0.18284 -0.14118,0.27425 1.18812,-0.74021 2.48849,-1.32507 3.56438,-2.22064 0.20314,-0.16909 0.0292,-0.52794 0.0538,-0.7911 0.0309,-0.33047 0.0751,-0.65956 0.11262,-0.98934 0.43156,-2.27975 1.00473,-4.62222 2.1685,-6.65599 0.24208,-0.42305 0.54205,-0.81022 0.81308,-1.21533 0.79093,-0.92378 0.90682,-1.16578 1.86694,-1.88527 0.31044,-0.23263 1.30797,-0.83493 0.98123,-0.62579 -0.76287,0.4883 -1.6388,0.83336 -2.28964,1.46329 -0.26164,0.25323 0.69881,-0.2123 1.05811,-0.27134 0.35979,-0.0591 0.7272,-0.0545 1.0908,-0.0818 1.3844,0.0312 2.81757,0.24644 3.97059,1.08104 0.67507,0.48863 0.92013,0.88954 1.43067,1.5338 0.17224,0.32324 0.37569,0.63169 0.51672,0.96972 0.80657,1.93326 0.68691,4.23759 0.595,6.28425 -0.0963,1.32496 -0.0586,0.69147 -0.11724,1.90023 0,0 3.47394,-1.75351 3.47394,-1.75351 v 0 c 0.0322,-1.18852 0.01,-0.56235 0.0715,-1.87838 0.0644,-2.55677 0.14642,-5.23403 -1.22583,-7.49946 -0.52278,-0.66884 -0.81969,-1.13581 -1.50381,-1.65996 -1.18006,-0.90413 -2.65645,-1.18608 -4.1034,-1.2595 -0.37668,0.009 -0.75546,-0.0128 -1.13003,0.0281 -2.12857,0.23251 -3.30276,1.33967 -5.42117,2.54741 -1.1194,0.63819 -1.9912,1.61697 -2.74893,2.63722 -0.26365,0.42037 -0.55482,0.82468 -0.79095,1.26109 -1.13532,2.09825 -1.72078,4.47323 -2.17515,6.79537 -0.0433,0.3381 -0.0913,0.67564 -0.13002,1.0143 -0.0317,0.27766 -0.35894,0.86603 -0.0813,0.83447 3.59246,-0.40826 3.4808,-0.59254 3.90785,-2.80904 0.34391,-2.15842 0.32495,-4.3376 0.16943,-6.51476 -0.0565,-0.84971 -0.0636,-1.06677 -0.14377,-1.88002 -0.0216,-0.21857 0.14147,-0.70002 -0.0734,-0.65478 -3.87913,0.81662 -3.52559,0.37722 -3.60707,2.32388 -0.15773,2.08336 -0.50603,4.16334 -1.39914,6.07163 -0.22865,0.43908 -0.43117,0.89277 -0.68594,1.31722 -0.605411,1.00867 -1.312921,1.92217 -2.122331,2.77649 -0.45752,0.48292 -0.93627,0.9476 -1.44282,1.37882 -0.52443,0.44644 -1.29997,0.654 -1.64517,1.24996 -0.24643,0.42543 0.87451,-0.44957 1.31176,-0.67436 -1.71861,0.93777 -2.474581,1.38965 -4.2879,2.21115 -3.47517,1.57438 -7.11885,2.73714 -10.642679,4.19137 -2.269948,0.93811 -3.625766,1.46084 -5.842715,2.52833 -3.013318,1.45096 -5.873152,3.12479 -8.739592,4.86139 -0.964562,0.58437 -1.909278,1.20413 -2.820231,1.86898 -0.891466,0.65063 -1.720918,1.38223 -2.581378,2.07334 -1.944073,1.93581 -2.778141,2.55915 -4.278439,4.87103 -1.565619,2.41253 -2.706696,5.25483 -2.818432,8.15625 -0.03409,0.88533 0.120229,1.76788 0.180343,2.65181 0.578241,1.76684 0.691441,2.96383 2.17443,4.24473 1.984518,1.71409 5.20604,1.48494 7.534786,0.87286 1.155311,-0.30366 2.239793,-0.83135 3.35969,-1.24702 2.158026,-1.21072 4.366461,-2.33568 6.474076,-3.63217 1.224145,-0.75302 2.378204,-1.61857 3.507295,-2.50781 4.648936,-3.66135 8.413771,-8.11957 11.442301,-13.19268 0.644485,-1.21353 1.329025,-2.40661 1.933453,-3.64058 2.720501,-5.55405 4.640882,-11.46925 5.785842,-17.54299 0.44356,-2.5321 0.46181,-2.47488 0.78332,-4.88011 0.21915,-1.63945 0.33881,-3.28518 0.53947,-4.92596 0.0381,-0.31148 0.09,-0.62112 0.13499,-0.93168 0.0615,-0.19662 0.38111,-0.65147 0.18453,-0.58984 -1.17752,0.36913 -2.24688,1.02295 -3.34734,1.58134 -0.0413,0.0209 0.10806,0.0104 0.12889,0.0517 0.0742,0.14733 0.11149,0.31263 0.13682,0.47565 0.10676,0.68697 0.0379,1.06798 -0.006,1.78614 -0.0544,0.39421 -0.087,0.79206 -0.16331,1.18263 -0.46108,2.36012 -1.606576,4.47217 -3.187734,6.26985 -0.340003,0.34935 -0.662625,0.7165 -1.020006,1.04805 -0.345239,0.32029 -1.54763,0.99288 -1.085009,0.90482 0.780717,-0.14859 1.387184,-0.78128 2.114847,-1.10082 0.419465,-0.18421 -0.780553,0.48137 -1.186739,0.69326 -0.390522,0.20371 -0.791355,0.38905 -1.200544,0.55207 -0.38858,0.15482 -0.792911,0.26673 -1.189365,0.40009 -0.9227,0.15162 -1.313561,0.28731 -2.245813,0.16642 -1.528791,-0.19825 -2.47033,-0.97569 -3.389815,-2.14937 -0.180782,-0.31223 -0.385315,-0.61186 -0.542351,-0.93669 -0.688387,-1.42391 -0.864851,-2.99754 -0.889172,-4.5583 0,0 -3.509745,1.82522 -3.509745,1.82522 z" />
  </g>
</svg>
