<svg id="svg" version="1.1" xmlns="http://www.w3.org/2000/svg" xmlns:xlink="http://www.w3.org/1999/xlink" width="400"
     height="400" viewBox="0, 0, 400,400">
    <g id="svgg">
        <path id="path0"
              d="M190.840 17.244 C 188.772 17.428,186.162 17.843,185.040 18.166 C 183.918 18.490,182.010 18.884,180.800 19.042 C 179.590 19.200,177.880 19.656,177.000 20.056 C 176.120 20.455,174.999 20.786,174.508 20.791 C 172.329 20.813,159.869 26.459,153.000 30.537 C 142.099 37.010,130.014 49.241,123.296 60.600 C 122.125 62.580,121.000 64.470,120.795 64.800 C 119.521 66.858,116.000 74.808,116.000 75.627 C 116.000 75.876,115.731 76.646,115.402 77.340 C 114.748 78.719,113.381 83.163,112.739 86.000 C 112.515 86.990,111.943 89.510,111.468 91.600 C 110.161 97.354,110.189 116.506,111.512 121.655 C 112.001 123.555,112.400 125.573,112.400 126.140 C 112.400 126.706,112.746 128.122,113.168 129.285 C 113.590 130.448,114.061 132.030,114.213 132.800 C 114.366 133.570,114.830 134.955,115.245 135.878 C 115.660 136.801,116.000 137.724,116.000 137.930 C 116.000 138.326,117.752 142.461,118.481 143.786 C 118.719 144.218,119.690 146.068,120.639 147.897 C 126.156 158.531,136.350 170.218,145.600 176.513 C 146.598 177.192,150.105 179.521,152.000 180.763 C 152.952 181.387,159.184 184.465,162.600 185.998 C 164.594 186.893,167.425 187.857,170.800 188.789 C 172.230 189.184,173.862 189.691,174.426 189.915 C 174.990 190.140,176.520 190.443,177.826 190.589 C 179.132 190.735,181.550 191.149,183.200 191.508 C 187.321 192.405,200.667 192.404,204.400 191.506 C 205.830 191.162,208.170 190.750,209.600 190.591 C 211.030 190.431,212.650 190.122,213.200 189.904 C 213.750 189.685,215.370 189.184,216.800 188.789 C 225.916 186.274,236.856 180.531,244.159 174.429 C 252.021 167.858,259.920 158.115,264.125 149.800 C 267.282 143.556,267.903 141.911,270.616 132.600 C 271.285 130.304,272.081 124.327,272.649 117.339 C 272.940 113.746,271.953 103.527,270.915 99.400 C 270.583 98.080,270.092 96.010,269.822 94.800 C 269.553 93.590,269.033 92.024,268.667 91.320 C 268.300 90.616,268.000 89.750,268.000 89.395 C 268.000 88.463,265.104 82.269,262.744 78.153 C 257.313 68.679,247.376 58.523,238.059 52.923 C 235.771 51.548,227.710 47.600,227.189 47.600 C 226.932 47.600,226.154 47.332,225.460 47.005 C 224.329 46.470,221.641 45.659,217.000 44.451 C 206.627 41.752,186.770 43.007,179.521 46.822 C 178.707 47.250,177.825 47.600,177.559 47.600 C 177.049 47.600,173.016 49.358,172.000 50.023 C 171.670 50.239,170.791 50.695,170.046 51.036 C 169.301 51.377,168.221 51.979,167.646 52.374 C 167.071 52.769,165.590 53.740,164.355 54.531 C 158.865 58.049,151.174 65.888,147.018 72.200 C 144.165 76.533,140.800 83.103,140.800 84.340 C 140.800 84.595,140.440 85.475,140.000 86.296 C 139.560 87.116,139.200 88.168,139.200 88.631 C 139.200 89.095,138.851 90.490,138.424 91.730 C 136.279 97.966,136.159 115.947,138.228 121.166 C 138.540 121.955,138.959 123.410,139.157 124.400 C 139.621 126.717,142.454 133.469,144.108 136.200 C 148.703 143.788,154.067 150.104,159.083 153.830 C 161.344 155.510,165.429 158.231,166.400 158.706 C 166.950 158.974,167.670 159.360,168.000 159.562 C 170.360 161.008,176.909 163.501,179.699 164.016 C 180.964 164.249,182.655 164.715,183.458 165.050 C 185.620 165.953,201.404 165.930,204.085 165.019 C 205.122 164.666,206.994 164.189,208.245 163.958 C 209.496 163.727,211.165 163.191,211.954 162.769 C 212.743 162.346,213.619 162.000,213.901 162.000 C 214.376 162.000,217.814 160.420,219.200 159.564 C 219.530 159.361,220.250 158.972,220.800 158.701 C 230.687 153.823,244.800 135.466,244.800 127.484 C 244.800 126.989,245.160 125.285,245.600 123.697 C 246.711 119.687,246.730 110.816,245.637 106.448 C 245.218 104.772,244.694 102.680,244.473 101.800 C 243.664 98.571,242.271 95.342,239.553 90.389 C 236.209 84.295,228.079 76.962,221.000 73.654 C 219.460 72.934,217.848 72.153,217.417 71.918 C 208.715 67.164,189.373 68.981,180.276 75.406 C 173.895 79.913,169.419 84.849,166.862 90.200 C 166.126 91.740,165.334 93.357,165.101 93.793 C 164.868 94.229,164.360 95.939,163.972 97.593 C 163.584 99.247,163.076 101.320,162.843 102.200 C 161.831 106.019,163.216 115.776,165.356 119.915 C 165.710 120.600,166.000 121.356,166.000 121.596 C 166.000 121.836,166.333 122.520,166.740 123.116 C 167.148 123.712,168.183 125.260,169.040 126.555 C 172.204 131.331,177.469 135.389,183.800 137.932 C 188.774 139.930,199.022 139.948,203.551 137.966 C 204.514 137.545,205.497 137.200,205.736 137.200 C 206.397 137.200,211.772 133.401,213.367 131.806 C 221.996 123.177,222.322 107.812,214.040 100.083 C 206.961 93.477,195.903 93.736,190.637 100.633 C 186.116 106.554,189.970 116.390,196.029 114.391 C 198.028 113.731,198.382 113.109,198.113 110.728 C 197.339 103.862,206.504 106.561,207.420 113.469 C 208.786 123.760,195.906 130.469,185.768 124.747 C 179.040 120.950,174.444 112.041,175.569 104.974 C 179.806 78.337,214.855 73.591,228.882 97.755 C 232.974 104.803,234.621 114.815,232.809 121.627 C 232.375 123.262,232.015 124.940,232.009 125.356 C 231.988 127.080,228.423 133.859,225.570 137.600 C 222.542 141.571,215.603 147.600,214.060 147.600 C 213.866 147.600,213.264 147.949,212.722 148.375 C 212.180 148.802,211.256 149.271,210.667 149.419 C 210.079 149.566,208.930 150.028,208.114 150.444 C 207.298 150.860,206.223 151.200,205.724 151.200 C 205.224 151.200,204.048 151.515,203.108 151.900 C 200.579 152.937,186.416 152.937,184.520 151.900 C 183.816 151.515,182.775 151.200,182.208 151.200 C 180.527 151.200,172.520 147.709,171.567 146.561 C 171.311 146.252,170.931 146.000,170.721 146.000 C 170.070 146.000,164.693 141.752,162.780 139.727 C 158.716 135.423,156.967 132.922,154.585 128.000 C 153.786 126.350,152.901 124.550,152.618 124.000 C 152.335 123.450,151.975 122.286,151.817 121.414 C 151.660 120.541,151.291 119.362,150.997 118.793 C 149.105 115.136,149.241 99.684,151.215 93.898 C 151.647 92.633,152.000 91.318,152.000 90.978 C 152.000 90.637,152.340 89.693,152.756 88.879 C 153.172 88.066,154.013 86.320,154.626 85.000 C 156.928 80.041,159.248 76.863,164.400 71.614 C 169.760 66.153,176.719 61.417,181.200 60.181 C 181.750 60.029,182.470 59.677,182.800 59.397 C 183.130 59.118,184.030 58.769,184.800 58.622 C 185.570 58.475,187.190 58.014,188.400 57.598 C 194.430 55.523,212.058 55.491,215.900 57.547 C 216.361 57.793,217.697 58.201,218.869 58.451 C 220.041 58.702,221.627 59.243,222.394 59.654 C 223.161 60.064,224.082 60.400,224.440 60.400 C 224.799 60.400,225.521 60.735,226.046 61.145 C 226.571 61.555,227.447 62.030,227.992 62.201 C 228.538 62.372,229.438 62.823,229.992 63.202 C 230.547 63.582,232.012 64.541,233.248 65.333 C 235.249 66.616,240.291 70.623,241.712 72.061 C 248.514 78.943,257.200 93.345,257.200 97.741 C 257.200 98.029,257.540 99.421,257.955 100.833 C 261.456 112.731,258.913 133.711,252.771 143.600 C 252.566 143.930,252.224 144.603,252.011 145.095 C 250.710 148.103,245.770 154.721,241.668 158.953 C 236.411 164.377,230.577 168.776,224.800 171.672 C 223.590 172.279,222.434 172.781,222.231 172.787 C 222.029 172.794,221.579 173.043,221.231 173.339 C 220.884 173.636,219.790 174.155,218.800 174.493 C 217.810 174.831,216.460 175.302,215.800 175.538 C 207.185 178.628,195.338 180.101,187.956 179.000 C 185.450 178.626,182.320 178.177,181.000 178.001 C 178.423 177.659,175.095 176.715,169.500 174.741 C 166.363 173.635,160.367 170.704,158.846 169.534 C 158.321 169.130,157.743 168.800,157.560 168.800 C 157.378 168.800,156.457 168.254,155.514 167.587 C 154.571 166.920,153.350 166.072,152.800 165.704 C 148.291 162.684,142.408 156.916,138.529 151.710 C 134.495 146.299,130.416 139.556,130.391 138.259 C 130.386 138.007,130.030 137.350,129.600 136.800 C 129.170 136.250,128.814 135.477,128.809 135.082 C 128.804 134.687,128.350 133.518,127.800 132.485 C 127.250 131.452,126.800 130.279,126.800 129.878 C 126.800 129.478,126.449 128.036,126.020 126.675 C 122.339 115.001,122.340 97.948,126.022 86.600 C 126.450 85.280,126.802 83.930,126.804 83.600 C 126.806 83.270,127.250 82.100,127.791 81.000 C 128.332 79.900,128.781 78.766,128.787 78.479 C 128.794 78.193,129.144 77.293,129.564 76.479 C 129.985 75.666,130.850 73.920,131.487 72.600 C 136.017 63.209,146.568 50.696,154.827 44.921 C 158.100 42.632,167.343 37.200,167.965 37.200 C 168.181 37.200,169.204 36.750,170.238 36.200 C 171.273 35.650,172.363 35.200,172.661 35.200 C 172.959 35.200,173.875 34.840,174.696 34.400 C 175.516 33.960,176.512 33.600,176.907 33.600 C 177.302 33.600,178.295 33.319,179.113 32.975 C 179.931 32.632,182.310 31.987,184.400 31.544 C 186.490 31.100,189.010 30.564,190.000 30.352 C 192.342 29.851,212.062 29.854,214.400 30.356 C 215.390 30.569,217.730 31.040,219.600 31.404 C 221.470 31.768,223.567 32.309,224.260 32.607 C 224.953 32.905,226.213 33.272,227.060 33.423 C 227.907 33.574,229.161 34.035,229.847 34.449 C 230.533 34.862,231.436 35.200,231.853 35.200 C 232.270 35.200,233.239 35.535,234.006 35.944 C 234.773 36.353,235.850 36.830,236.400 37.002 C 238.066 37.526,245.361 41.753,249.489 44.586 C 255.557 48.749,265.361 58.200,268.600 63.007 C 269.480 64.313,270.804 66.190,271.543 67.178 C 272.282 68.166,273.059 69.340,273.271 69.787 C 273.482 70.234,274.173 71.500,274.805 72.600 C 275.438 73.700,276.511 75.770,277.190 77.200 C 277.869 78.630,278.771 80.520,279.195 81.400 C 279.620 82.280,280.092 83.540,280.245 84.200 C 280.398 84.860,280.855 86.027,281.261 86.794 C 281.668 87.561,282.000 88.504,282.000 88.890 C 282.000 89.276,282.349 90.510,282.776 91.634 C 283.203 92.757,283.675 94.694,283.826 95.938 C 283.977 97.182,284.438 99.534,284.850 101.164 C 285.859 105.153,285.947 124.648,284.975 128.800 C 284.640 130.230,284.191 132.480,283.977 133.800 C 283.763 135.120,283.231 137.236,282.794 138.502 C 282.357 139.767,281.994 141.117,281.986 141.502 C 281.979 141.886,281.625 142.920,281.200 143.800 C 280.775 144.680,280.415 145.670,280.401 146.000 C 280.387 146.330,279.932 147.500,279.391 148.600 C 278.850 149.700,278.406 150.801,278.404 151.046 C 278.402 151.291,278.067 151.921,277.661 152.446 C 277.255 152.971,276.793 153.926,276.636 154.568 C 276.479 155.211,276.002 156.180,275.575 156.722 C 275.149 157.264,274.800 157.835,274.800 157.990 C 274.800 159.312,267.365 169.857,263.090 174.600 C 258.150 180.081,246.227 190.400,244.836 190.400 C 244.655 190.400,244.054 190.757,243.500 191.193 C 242.602 191.899,238.637 194.093,235.679 195.521 C 235.086 195.807,234.330 196.214,234.000 196.424 C 233.670 196.634,232.950 197.000,232.400 197.237 C 231.850 197.474,230.680 197.998,229.800 198.401 C 228.920 198.804,227.508 199.348,226.661 199.611 C 225.815 199.873,224.645 200.337,224.061 200.641 C 223.478 200.946,222.743 201.196,222.428 201.198 C 222.114 201.199,220.674 201.553,219.228 201.985 C 204.441 206.404,185.668 206.543,169.400 202.353 C 165.459 201.339,163.384 200.679,162.622 200.197 C 162.170 199.912,161.170 199.548,160.400 199.389 C 159.630 199.230,158.370 198.786,157.600 198.402 C 156.830 198.019,155.390 197.343,154.400 196.901 C 151.781 195.731,148.094 194.038,145.794 192.949 C 144.691 192.427,143.611 192.000,143.394 192.001 C 143.177 192.002,142.280 191.664,141.400 191.250 C 139.329 190.276,136.361 189.274,133.600 188.615 C 132.390 188.326,130.612 187.800,129.650 187.445 C 128.687 187.090,127.486 186.800,126.981 186.800 C 126.476 186.800,124.564 186.452,122.732 186.026 C 112.110 183.557,92.395 184.197,79.800 187.418 C 78.480 187.755,76.410 188.281,75.200 188.586 C 72.244 189.330,69.425 190.312,66.960 191.454 C 65.838 191.974,64.800 192.400,64.652 192.400 C 62.669 192.400,49.609 199.916,42.800 204.976 C 32.538 212.602,20.405 226.665,15.690 236.400 C 15.424 236.950,15.033 237.670,14.822 238.000 C 13.446 240.154,10.332 247.621,8.232 253.800 C 7.091 257.157,5.488 264.111,4.588 269.600 C 3.758 274.668,3.382 287.770,3.946 292.000 C 4.919 299.301,5.299 301.585,6.013 304.400 C 8.149 312.828,9.033 315.803,9.992 317.784 C 10.437 318.702,10.800 319.621,10.800 319.826 C 10.800 320.282,15.908 330.526,16.970 332.200 C 24.450 343.990,34.034 354.377,42.990 360.400 C 44.462 361.390,45.876 362.386,46.133 362.614 C 46.982 363.365,51.537 365.964,55.200 367.787 C 60.013 370.182,61.726 370.876,69.000 373.376 C 70.100 373.754,71.900 374.237,73.000 374.449 C 74.100 374.661,75.650 375.086,76.444 375.392 C 82.613 377.771,104.195 377.964,113.600 375.726 C 115.030 375.386,117.550 374.802,119.200 374.430 C 120.850 374.057,122.593 373.538,123.074 373.276 C 123.554 373.014,124.346 372.800,124.834 372.800 C 125.321 372.800,126.638 372.369,127.760 371.842 C 128.882 371.314,130.793 370.414,132.006 369.842 C 133.219 369.269,134.323 368.800,134.460 368.800 C 134.901 368.800,143.779 363.733,145.618 362.432 C 146.598 361.738,148.039 360.748,148.819 360.232 C 154.391 356.543,164.544 345.831,169.065 338.871 C 173.292 332.364,173.600 331.863,173.600 331.495 C 173.600 331.292,173.960 330.669,174.400 330.109 C 174.840 329.550,175.200 328.781,175.200 328.400 C 175.200 328.019,175.560 327.250,176.000 326.691 C 176.440 326.131,176.806 325.342,176.813 324.937 C 176.819 324.532,177.268 323.300,177.809 322.200 C 178.350 321.100,178.794 319.933,178.796 319.608 C 178.798 319.282,179.148 318.112,179.573 317.008 C 181.425 312.201,182.906 303.827,183.750 293.400 C 184.026 289.989,182.408 275.788,181.425 273.000 C 181.115 272.120,180.741 270.770,180.593 270.000 C 180.224 268.068,178.206 262.058,177.438 260.600 C 177.090 259.940,176.804 259.183,176.802 258.917 C 176.800 258.457,174.029 252.969,172.299 250.000 C 164.742 237.027,152.167 225.266,139.000 218.855 C 133.943 216.392,128.022 214.129,125.289 213.614 C 124.128 213.396,122.808 213.018,122.355 212.776 C 118.009 210.450,91.294 210.387,86.998 212.693 C 86.557 212.930,85.117 213.322,83.798 213.566 C 81.483 213.993,78.746 214.914,75.400 216.393 C 71.039 218.320,68.946 219.286,68.400 219.622 C 68.070 219.825,67.170 220.358,66.400 220.805 C 59.814 224.633,55.630 227.977,49.585 234.245 C 45.207 238.785,39.315 247.115,37.594 251.200 C 37.362 251.750,36.835 252.920,36.423 253.800 C 34.800 257.263,33.092 261.932,32.400 264.800 C 32.214 265.570,31.647 267.910,31.139 270.000 C 29.793 275.540,29.787 291.780,31.129 296.392 C 31.608 298.038,32.000 299.930,32.000 300.598 C 32.000 301.266,32.347 302.460,32.772 303.252 C 33.196 304.044,33.671 305.391,33.827 306.246 C 33.983 307.101,34.433 308.430,34.826 309.200 C 35.220 309.970,36.125 311.860,36.837 313.400 C 41.248 322.939,50.094 333.573,58.150 339.022 C 60.982 340.938,62.687 342.015,63.800 342.591 C 64.460 342.933,66.170 343.836,67.600 344.598 C 69.030 345.359,70.475 345.987,70.811 345.991 C 71.147 345.996,71.867 346.315,72.411 346.700 C 72.955 347.085,74.300 347.608,75.400 347.863 C 76.500 348.118,78.210 348.593,79.200 348.920 C 85.816 351.104,99.693 351.787,106.800 350.278 C 112.887 348.986,113.375 348.867,115.400 348.192 C 130.465 343.171,143.513 332.328,150.529 319.000 C 152.657 314.957,154.526 310.144,155.266 306.800 C 155.485 305.810,155.939 304.010,156.275 302.800 C 157.060 299.974,157.460 287.097,156.859 284.000 C 155.351 276.234,154.974 274.940,152.489 269.000 C 148.748 260.061,141.650 251.467,133.600 246.134 C 131.730 244.895,129.712 243.548,129.116 243.141 C 128.520 242.733,127.902 242.400,127.742 242.400 C 127.583 242.400,126.721 242.052,125.826 241.626 C 117.327 237.583,101.412 235.458,95.769 237.614 C 95.126 237.859,93.610 238.237,92.400 238.452 C 90.029 238.875,87.011 239.920,83.760 241.444 C 82.638 241.970,81.596 242.400,81.444 242.400 C 81.292 242.400,80.680 242.732,80.084 243.137 C 79.488 243.543,78.190 244.393,77.200 245.026 C 74.097 247.011,70.701 249.965,67.873 253.139 C 65.498 255.805,64.517 257.138,62.087 261.000 C 61.810 261.440,61.307 262.430,60.969 263.200 C 60.630 263.970,60.026 265.320,59.626 266.200 C 56.067 274.023,55.257 290.710,58.163 296.329 C 58.513 297.006,58.801 297.884,58.801 298.280 C 58.802 298.676,59.140 299.552,59.552 300.228 C 59.963 300.903,60.438 301.889,60.606 302.420 C 60.775 302.950,61.223 303.838,61.602 304.392 C 61.982 304.947,62.971 306.458,63.801 307.751 C 67.675 313.786,79.380 322.800,83.342 322.800 C 83.667 322.800,84.789 323.167,85.834 323.615 C 89.947 325.378,102.130 325.072,107.800 323.063 C 118.424 319.298,124.975 312.868,129.664 301.600 C 131.045 298.282,131.069 285.217,129.700 282.249 C 129.205 281.176,128.800 280.088,128.800 279.831 C 128.800 278.887,125.085 273.339,123.072 271.277 C 112.023 259.957,93.692 260.673,85.547 272.741 C 80.572 280.112,81.100 289.094,86.842 294.782 C 92.606 300.492,100.275 300.639,104.382 295.119 C 107.812 290.510,103.803 284.125,99.805 287.830 C 96.078 291.285,92.603 283.932,95.960 279.694 C 100.271 274.251,108.320 274.561,113.923 280.385 C 121.399 288.156,118.253 303.334,108.000 308.970 C 102.274 312.117,92.311 313.055,88.172 310.836 C 87.314 310.376,86.318 310.000,85.960 310.000 C 85.601 310.000,84.879 309.671,84.354 309.268 C 83.829 308.866,83.066 308.414,82.657 308.264 C 79.669 307.170,71.600 297.815,71.600 295.446 C 71.600 295.194,71.232 294.301,70.782 293.462 C 68.297 288.826,69.047 275.563,72.121 269.800 C 72.355 269.360,72.814 268.460,73.141 267.800 C 76.604 260.804,87.079 252.606,94.347 251.204 C 95.366 251.008,97.460 250.547,99.000 250.180 C 102.100 249.441,108.810 249.566,111.000 250.402 C 111.660 250.654,113.100 251.028,114.200 251.233 C 122.983 252.870,134.067 261.461,138.442 270.023 C 139.166 271.440,139.936 272.838,140.152 273.129 C 140.905 274.140,142.438 278.212,142.815 280.200 C 143.023 281.300,143.465 283.184,143.797 284.387 C 144.702 287.668,144.598 295.760,143.600 299.800 C 143.165 301.560,142.807 303.363,142.805 303.806 C 142.802 304.249,142.440 305.284,142.000 306.104 C 141.560 306.925,141.200 307.783,141.200 308.010 C 141.200 308.513,138.629 313.797,137.682 315.240 C 135.883 317.984,135.254 318.826,132.739 321.854 C 127.674 327.954,117.336 334.465,109.600 336.427 C 98.947 339.128,92.922 339.127,82.400 336.422 C 72.635 333.912,62.426 327.184,55.486 318.688 C 51.561 313.882,46.400 304.993,46.400 303.040 C 46.400 302.666,46.123 301.825,45.785 301.170 C 45.446 300.516,44.983 298.950,44.756 297.690 C 44.528 296.431,44.057 294.590,43.708 293.600 C 42.650 290.599,42.813 275.905,43.945 272.201 C 44.415 270.662,44.806 268.952,44.814 268.401 C 44.821 267.851,45.175 266.680,45.600 265.800 C 46.025 264.920,46.379 263.933,46.386 263.606 C 46.411 262.536,50.127 255.047,52.344 251.600 C 57.116 244.180,66.705 235.229,73.900 231.478 C 79.348 228.637,84.661 226.400,85.959 226.400 C 86.405 226.400,87.722 226.050,88.885 225.622 C 91.038 224.830,95.880 224.131,102.000 223.730 C 106.302 223.448,117.002 224.564,120.102 225.617 C 121.367 226.048,122.770 226.400,123.218 226.400 C 123.665 226.400,124.738 226.760,125.600 227.200 C 126.462 227.640,127.366 228.000,127.609 228.000 C 128.076 228.000,132.185 229.786,133.200 230.429 C 133.530 230.639,134.520 231.167,135.400 231.604 C 142.446 235.099,152.759 244.142,157.293 250.800 C 157.667 251.350,158.548 252.610,159.250 253.600 C 159.952 254.590,161.137 256.570,161.883 258.000 C 162.630 259.430,163.383 260.870,163.558 261.200 C 166.009 265.843,168.513 273.407,169.251 278.400 C 169.462 279.830,169.897 282.630,170.217 284.623 C 170.959 289.233,170.955 293.638,170.205 298.200 C 169.880 300.180,169.611 302.511,169.607 303.380 C 169.589 307.470,164.707 321.312,161.418 326.600 C 161.008 327.260,160.282 328.430,159.805 329.200 C 156.356 334.772,153.199 338.715,148.731 343.032 C 142.431 349.119,135.900 353.814,130.400 356.210 C 129.630 356.545,128.730 356.996,128.400 357.212 C 128.070 357.428,127.530 357.716,127.200 357.851 C 126.870 357.986,125.880 358.423,125.000 358.822 C 122.406 359.998,118.771 361.220,116.200 361.780 C 114.880 362.067,113.260 362.517,112.600 362.779 C 111.940 363.042,109.780 363.412,107.800 363.602 C 105.820 363.792,102.462 364.144,100.337 364.384 C 97.535 364.701,95.337 364.700,92.337 364.381 C 90.062 364.138,86.580 363.804,84.600 363.637 C 82.620 363.471,79.920 363.015,78.600 362.624 C 72.129 360.708,68.162 359.446,67.800 359.188 C 67.580 359.032,66.749 358.695,65.954 358.439 C 64.269 357.897,57.306 354.356,55.409 353.078 C 54.693 352.595,53.048 351.501,51.754 350.647 C 41.723 344.026,31.401 332.353,25.939 321.453 C 22.542 314.674,20.790 310.193,19.771 305.676 C 19.458 304.287,19.026 302.822,18.810 302.419 C 18.595 302.017,18.232 300.183,18.004 298.344 C 17.777 296.505,17.326 293.470,17.003 291.600 C 16.251 287.245,16.261 280.545,17.028 275.200 C 17.359 272.890,17.790 269.740,17.986 268.200 C 18.181 266.660,18.531 264.901,18.764 264.292 C 18.996 263.683,19.446 262.063,19.764 260.692 C 20.083 259.321,20.625 257.660,20.969 257.000 C 21.313 256.340,21.596 255.478,21.598 255.084 C 21.599 254.690,21.938 253.700,22.351 252.884 C 22.764 252.068,23.226 250.827,23.377 250.128 C 23.528 249.428,23.910 248.641,24.226 248.379 C 24.542 248.117,24.800 247.681,24.800 247.411 C 24.800 246.426,28.188 240.451,31.724 235.200 C 36.717 227.785,45.764 218.637,53.200 213.484 C 57.299 210.644,58.827 209.714,61.456 208.458 C 62.367 208.022,63.224 207.485,63.361 207.264 C 63.497 207.043,64.135 206.746,64.777 206.605 C 65.419 206.464,66.150 206.102,66.400 205.800 C 66.650 205.498,67.428 205.129,68.128 204.980 C 68.827 204.830,69.615 204.534,69.878 204.323 C 70.519 203.807,75.297 202.067,77.868 201.413 C 79.005 201.124,80.155 200.751,80.423 200.585 C 80.692 200.420,83.002 199.852,85.556 199.325 C 98.773 196.598,116.983 197.009,127.200 200.266 C 128.190 200.581,129.900 201.087,131.000 201.389 C 132.100 201.692,134.260 202.420,135.800 203.008 C 137.340 203.597,139.313 204.342,140.184 204.666 C 141.055 204.989,142.225 205.510,142.784 205.824 C 143.343 206.138,144.250 206.587,144.800 206.821 C 146.039 207.350,151.184 210.305,153.663 211.911 C 161.223 216.810,168.999 223.654,174.216 230.000 C 175.029 230.990,175.809 231.890,175.948 232.000 C 176.086 232.110,177.015 233.280,178.011 234.600 C 179.728 236.876,180.223 237.607,183.077 242.073 C 184.408 244.157,188.655 252.697,189.902 255.800 C 191.999 261.013,192.800 263.279,192.800 263.993 C 192.800 264.421,193.136 265.632,193.548 266.685 C 193.959 267.738,194.419 269.609,194.569 270.841 C 194.720 272.074,195.106 273.958,195.428 275.028 C 195.750 276.098,196.199 279.679,196.426 282.987 C 196.653 286.294,197.100 290.324,197.419 291.943 C 197.739 293.561,198.000 295.558,198.000 296.379 C 198.000 297.200,198.373 299.296,198.829 301.036 C 199.285 302.776,199.809 305.100,199.993 306.200 C 200.177 307.300,200.640 309.100,201.020 310.200 C 203.622 317.724,203.796 318.171,205.903 322.800 C 208.397 328.279,211.108 333.426,211.804 334.003 C 212.132 334.275,212.400 334.671,212.400 334.884 C 212.400 336.058,218.455 344.019,223.745 349.800 C 230.996 357.724,235.863 361.753,246.000 368.225 C 247.779 369.361,253.210 372.400,253.461 372.400 C 253.630 372.400,255.580 373.278,260.644 375.635 C 261.548 376.056,262.538 376.401,262.844 376.402 C 263.150 376.404,263.920 376.676,264.555 377.007 C 265.190 377.338,266.720 377.862,267.955 378.171 C 269.190 378.480,270.920 379.011,271.800 379.349 C 272.680 379.688,273.850 379.975,274.400 379.987 C 274.950 379.999,276.300 380.289,277.400 380.632 C 287.381 383.741,309.191 383.127,323.200 379.342 C 324.410 379.015,326.464 378.479,327.765 378.151 C 329.066 377.822,330.501 377.294,330.954 376.977 C 331.407 376.660,332.041 376.400,332.363 376.400 C 332.684 376.400,333.679 376.063,334.574 375.651 C 335.468 375.240,337.460 374.333,339.000 373.636 C 340.540 372.939,342.070 372.203,342.400 372.001 C 342.730 371.799,344.033 371.101,345.296 370.451 C 357.417 364.206,370.457 351.991,379.083 338.800 C 379.874 337.590,380.944 335.960,381.461 335.178 C 381.977 334.397,382.400 333.564,382.400 333.327 C 382.400 333.091,382.661 332.682,382.980 332.417 C 383.298 332.152,383.771 331.275,384.030 330.468 C 384.289 329.661,384.715 328.730,384.976 328.400 C 385.237 328.070,385.952 326.450,386.564 324.800 C 387.176 323.150,387.995 321.080,388.385 320.200 C 388.774 319.320,389.228 317.970,389.394 317.200 C 389.560 316.430,389.957 315.290,390.276 314.666 C 390.595 314.043,391.034 312.423,391.252 311.066 C 391.471 309.710,391.904 307.790,392.214 306.800 C 394.514 299.473,394.269 277.653,391.774 267.600 C 389.519 258.514,384.611 246.283,381.181 241.200 C 380.810 240.650,379.572 238.760,378.431 237.000 C 371.206 225.858,357.620 213.911,345.200 207.775 C 343.550 206.960,341.545 205.957,340.746 205.546 C 339.946 205.136,339.046 204.799,338.746 204.798 C 338.445 204.796,337.660 204.502,337.000 204.143 C 336.340 203.785,334.900 203.257,333.800 202.970 C 332.700 202.683,330.990 202.179,330.000 201.850 C 319.400 198.328,296.707 197.410,288.840 200.186 C 287.975 200.491,286.397 200.868,285.333 201.024 C 284.270 201.179,282.538 201.643,281.485 202.053 C 280.432 202.464,279.262 202.806,278.885 202.813 C 278.508 202.819,277.300 203.268,276.200 203.809 C 275.100 204.350,273.992 204.794,273.737 204.796 C 273.302 204.800,269.718 206.444,268.400 207.245 C 268.070 207.446,267.080 207.970,266.200 208.411 C 265.320 208.851,263.880 209.650,263.000 210.186 C 262.120 210.723,260.950 211.390,260.400 211.669 C 259.850 211.949,258.465 212.902,257.323 213.789 C 256.180 214.675,254.470 215.972,253.523 216.671 C 250.105 219.193,241.413 228.154,239.180 231.457 C 238.861 231.929,237.580 233.819,236.333 235.657 C 234.150 238.875,231.677 243.111,230.761 245.200 C 230.520 245.750,229.890 247.149,229.361 248.309 C 228.833 249.469,228.400 250.612,228.400 250.848 C 228.400 251.085,228.131 251.846,227.803 252.540 C 226.901 254.443,225.919 257.994,224.002 266.288 C 222.894 271.080,222.726 288.156,223.751 291.700 C 224.085 292.855,224.553 295.060,224.791 296.600 C 225.244 299.527,226.387 303.404,227.654 306.311 C 228.064 307.252,228.400 308.310,228.400 308.663 C 228.400 309.017,228.739 309.867,229.154 310.553 C 229.569 311.239,230.031 312.205,230.181 312.700 C 232.499 320.354,246.680 337.534,254.861 342.600 C 255.216 342.820,256.473 343.654,257.654 344.454 C 260.387 346.305,265.268 349.046,266.473 349.406 C 266.983 349.559,267.785 349.926,268.256 350.222 C 269.290 350.873,273.059 352.253,275.800 352.984 C 276.900 353.277,278.430 353.783,279.200 354.108 C 279.970 354.433,281.770 354.825,283.200 354.979 C 284.630 355.133,286.880 355.513,288.200 355.824 C 293.762 357.132,307.068 356.401,315.000 354.352 C 319.492 353.191,321.915 352.433,323.000 351.850 C 323.660 351.495,324.408 351.204,324.663 351.202 C 325.080 351.200,328.482 349.651,330.000 348.772 C 330.330 348.581,331.320 348.055,332.200 347.603 C 333.080 347.151,334.163 346.561,334.606 346.291 C 335.049 346.021,336.129 345.362,337.006 344.826 C 341.240 342.239,349.262 334.986,352.297 331.000 C 353.302 329.680,354.321 328.420,354.562 328.200 C 355.192 327.626,357.200 324.482,357.200 324.071 C 357.200 323.880,357.560 323.398,358.000 323.000 C 358.440 322.602,358.800 322.059,358.800 321.794 C 358.800 321.529,359.250 320.649,359.800 319.838 C 360.350 319.028,360.800 318.127,360.800 317.836 C 360.800 317.546,361.129 316.879,361.532 316.354 C 362.290 315.367,363.125 313.200,364.404 308.905 C 364.812 307.533,365.281 306.193,365.444 305.928 C 365.608 305.663,366.065 303.636,366.460 301.423 C 366.855 299.210,367.355 296.590,367.572 295.600 C 368.305 292.246,368.083 283.007,367.164 278.604 C 365.557 270.909,364.555 267.119,363.570 265.000 C 363.160 264.120,362.277 262.103,361.606 260.518 C 360.373 257.604,360.046 257.026,356.797 252.027 C 349.482 240.771,338.241 232.287,324.200 227.425 C 317.056 224.951,304.395 223.855,298.200 225.175 C 296.880 225.456,294.852 225.832,293.693 226.009 C 290.819 226.451,282.785 229.191,280.800 230.408 C 280.470 230.610,279.480 231.137,278.600 231.578 C 277.720 232.019,276.651 232.610,276.223 232.890 C 275.796 233.171,274.536 233.964,273.423 234.653 C 268.884 237.463,261.520 244.865,258.352 249.800 C 256.449 252.766,253.600 257.968,253.596 258.486 C 253.594 258.769,253.150 259.900,252.609 261.000 C 252.068 262.100,251.619 263.366,251.613 263.814 C 251.606 264.261,251.260 265.611,250.845 266.814 C 249.062 271.980,249.030 286.885,250.790 292.600 C 251.197 293.920,251.646 295.540,251.788 296.200 C 252.908 301.391,260.260 312.961,265.252 317.389 C 270.967 322.457,278.754 326.850,284.400 328.191 C 285.610 328.478,287.230 328.958,288.000 329.257 C 289.017 329.651,291.646 329.800,297.600 329.800 C 306.049 329.800,307.346 329.610,313.000 327.545 C 313.660 327.304,315.010 326.813,316.000 326.453 C 316.990 326.094,318.250 325.526,318.800 325.191 C 319.350 324.856,320.099 324.406,320.464 324.191 C 326.007 320.929,329.712 317.447,334.713 310.800 C 336.219 308.798,339.600 301.827,339.600 300.724 C 339.600 300.395,339.976 299.062,340.436 297.763 C 342.823 291.015,341.414 278.690,337.331 270.614 C 323.400 243.056,283.345 245.012,276.164 273.600 C 270.502 296.139,296.220 313.993,311.471 298.110 C 318.963 290.307,315.298 276.400,305.748 276.400 C 300.655 276.400,297.805 281.708,301.787 283.776 C 306.430 286.188,302.872 292.853,297.481 291.842 C 286.254 289.735,284.832 274.297,295.200 267.064 C 299.830 263.834,308.064 262.752,312.634 264.774 C 313.661 265.228,314.655 265.600,314.843 265.600 C 315.685 265.600,319.796 268.632,321.894 270.800 C 323.975 272.951,325.218 274.969,327.435 279.800 C 328.503 282.125,328.757 292.606,327.809 295.200 C 327.447 296.190,326.964 297.630,326.736 298.400 C 326.507 299.170,326.068 300.084,325.760 300.431 C 325.452 300.779,325.200 301.248,325.200 301.474 C 325.200 302.025,321.387 307.143,320.040 308.400 C 318.241 310.079,315.707 312.000,315.291 312.000 C 315.075 312.000,314.688 312.253,314.432 312.561 C 310.308 317.530,292.048 318.597,284.006 314.338 C 283.239 313.932,282.412 313.600,282.168 313.600 C 281.924 313.600,281.398 313.240,281.000 312.800 C 280.602 312.360,280.070 312.000,279.818 312.000 C 277.582 312.000,266.400 300.063,266.400 297.676 C 266.400 297.531,265.968 296.509,265.440 295.406 C 260.491 285.072,261.377 270.509,267.616 259.600 C 270.567 254.442,276.352 248.130,280.562 245.476 C 283.768 243.454,284.059 243.291,286.600 242.084 C 296.896 237.195,310.235 236.188,319.400 239.607 C 320.500 240.017,322.120 240.546,323.000 240.783 C 323.880 241.019,324.949 241.480,325.376 241.806 C 325.804 242.133,326.376 242.400,326.649 242.400 C 327.164 242.400,327.952 242.863,333.109 246.199 C 336.407 248.332,342.780 254.356,344.536 257.000 C 345.120 257.880,346.048 259.269,346.597 260.087 C 349.317 264.139,352.483 271.435,353.241 275.400 C 353.451 276.500,353.925 278.660,354.294 280.200 C 355.181 283.902,355.191 291.935,354.312 296.000 C 353.956 297.650,353.488 299.900,353.272 301.000 C 352.839 303.212,351.872 306.130,350.740 308.644 C 350.333 309.548,350.000 310.406,350.000 310.551 C 350.000 313.486,339.389 326.889,333.800 331.014 C 332.920 331.664,332.109 332.316,331.998 332.462 C 330.986 333.801,318.218 340.400,316.640 340.400 C 316.304 340.400,315.168 340.736,314.115 341.148 C 313.062 341.559,311.120 342.025,309.800 342.184 C 308.480 342.343,306.417 342.726,305.216 343.036 C 302.610 343.709,294.263 343.789,291.155 343.172 C 289.970 342.937,287.560 342.503,285.800 342.207 C 280.452 341.311,273.461 338.666,267.400 335.247 C 266.293 334.622,265.489 334.096,261.600 331.449 C 251.153 324.339,240.300 307.984,237.942 295.800 C 237.729 294.700,237.363 292.990,237.128 292.000 C 236.066 287.519,235.930 285.699,236.087 278.000 C 236.220 271.467,236.391 269.485,236.927 268.251 C 237.297 267.399,237.608 266.049,237.618 265.251 C 237.627 264.453,237.912 263.080,238.250 262.200 C 238.589 261.320,239.101 259.700,239.388 258.600 C 239.675 257.500,240.199 256.060,240.552 255.400 C 240.906 254.740,241.211 253.930,241.230 253.600 C 241.249 253.270,241.874 251.920,242.619 250.600 C 243.363 249.280,244.339 247.480,244.788 246.600 C 245.673 244.865,246.026 244.310,248.919 240.096 C 250.963 237.120,260.060 227.714,262.400 226.157 C 263.170 225.645,265.240 224.234,267.000 223.022 C 268.760 221.810,270.401 220.814,270.646 220.809 C 270.891 220.804,271.550 220.440,272.109 220.000 C 272.669 219.560,273.389 219.200,273.709 219.200 C 274.030 219.200,274.736 218.851,275.278 218.425 C 275.820 217.998,276.789 217.520,277.432 217.362 C 278.074 217.203,278.960 216.845,279.400 216.566 C 280.265 216.018,284.690 214.586,289.800 213.201 C 308.496 208.135,331.639 213.043,350.150 226.000 C 351.068 226.643,351.607 227.088,355.250 230.214 C 359.423 233.795,366.282 241.860,369.251 246.675 C 372.155 251.386,376.800 261.167,376.800 262.570 C 376.800 262.938,377.077 263.775,377.415 264.430 C 377.754 265.084,378.217 266.650,378.444 267.910 C 378.672 269.169,379.096 270.920,379.388 271.800 C 381.478 278.109,381.354 298.480,379.182 305.542 C 378.752 306.940,378.394 308.470,378.386 308.942 C 378.379 309.414,378.025 310.520,377.600 311.400 C 377.175 312.280,376.821 313.367,376.814 313.815 C 376.806 314.264,376.440 315.337,376.000 316.200 C 375.560 317.063,375.198 317.956,375.196 318.185 C 375.194 318.413,374.750 319.500,374.209 320.600 C 373.668 321.700,373.219 322.749,373.213 322.930 C 373.206 323.112,372.435 324.552,371.500 326.130 C 370.565 327.709,369.677 329.299,369.526 329.665 C 369.375 330.030,368.402 331.560,367.363 333.065 C 359.065 345.084,347.905 354.821,335.600 360.777 C 334.170 361.469,332.334 362.388,331.521 362.818 C 330.707 363.248,329.807 363.601,329.521 363.602 C 329.234 363.604,328.460 363.894,327.800 364.248 C 327.140 364.601,325.700 365.125,324.600 365.413 C 323.500 365.700,321.790 366.208,320.800 366.541 C 311.193 369.776,287.198 370.661,280.291 368.035 C 279.734 367.823,278.135 367.442,276.739 367.190 C 275.342 366.937,274.018 366.579,273.795 366.395 C 273.572 366.210,272.492 365.837,271.395 365.566 C 270.298 365.295,268.773 364.741,268.006 364.336 C 267.239 363.931,266.274 363.600,265.860 363.600 C 265.447 363.600,264.454 363.257,263.654 362.839 C 262.855 362.420,260.639 361.328,258.732 360.412 C 248.819 355.653,238.101 347.006,230.223 337.409 C 226.867 333.322,223.200 328.280,223.200 327.754 C 223.200 327.594,222.952 327.179,222.650 326.831 C 221.675 325.712,216.000 314.204,216.000 313.346 C 216.000 313.139,215.640 312.263,215.200 311.400 C 214.760 310.537,214.400 309.497,214.400 309.090 C 214.400 308.682,214.047 307.505,213.616 306.474 C 213.186 305.443,212.664 303.700,212.458 302.600 C 212.251 301.500,211.810 299.430,211.477 298.000 C 210.900 295.527,209.877 288.179,209.388 283.000 C 209.044 279.363,210.799 262.133,211.744 259.873 C 212.039 259.166,212.410 257.727,212.568 256.677 C 212.725 255.626,213.198 254.009,213.618 253.083 C 214.039 252.158,214.387 250.950,214.393 250.400 C 214.398 249.850,214.741 248.845,215.155 248.167 C 215.569 247.488,216.041 246.318,216.204 245.567 C 216.367 244.815,216.823 243.570,217.217 242.800 C 217.611 242.030,218.127 240.950,218.364 240.400 C 218.601 239.850,218.964 239.130,219.172 238.800 C 219.379 238.470,219.854 237.570,220.227 236.800 C 221.189 234.812,222.300 232.793,223.201 231.400 C 223.627 230.740,224.277 229.660,224.645 229.000 C 226.417 225.826,232.707 218.109,237.200 213.598 C 242.486 208.290,245.340 205.959,253.400 200.365 C 259.228 196.320,262.371 193.687,268.000 188.130 C 274.421 181.792,275.056 181.064,279.523 174.918 C 283.850 168.968,291.200 155.814,291.200 154.023 C 291.200 153.769,291.511 152.984,291.891 152.280 C 292.271 151.576,292.795 150.190,293.056 149.200 C 293.317 148.210,293.801 146.590,294.131 145.600 C 295.661 141.014,296.172 139.135,296.852 135.600 C 297.254 133.510,297.787 130.900,298.037 129.800 C 298.933 125.842,298.683 102.733,297.703 99.000 C 297.241 97.240,296.743 94.900,296.596 93.800 C 296.227 91.042,293.278 81.296,291.698 77.613 C 289.356 72.156,286.430 66.284,284.615 63.400 C 274.135 46.747,261.079 34.797,244.400 26.591 C 238.111 23.496,236.882 22.943,234.800 22.272 C 233.810 21.953,232.460 21.506,231.800 21.278 C 229.050 20.329,224.869 19.231,223.000 18.968 C 221.900 18.813,220.280 18.432,219.400 18.121 C 216.156 16.974,199.600 16.466,190.840 17.244 M216.574 216.358 C 216.895 216.877,215.810 219.075,213.989 221.600 C 213.116 222.810,212.401 223.966,212.401 224.169 C 212.400 224.371,212.149 224.821,211.843 225.169 C 211.375 225.699,208.764 230.405,207.648 232.730 C 206.035 236.091,204.508 239.696,202.792 244.200 C 201.168 248.463,201.071 248.456,198.825 243.890 C 196.593 239.352,194.626 235.813,193.635 234.553 C 193.176 233.970,192.800 233.320,192.800 233.109 C 192.800 232.899,192.431 232.248,191.980 231.663 C 191.529 231.078,189.980 228.980,188.537 227.000 C 187.094 225.020,185.122 222.553,184.156 221.517 C 181.351 218.510,181.756 217.526,185.570 218.073 C 191.345 218.901,210.391 217.901,213.973 216.582 C 215.713 215.941,216.286 215.892,216.574 216.358 "
              stroke="none" fill="#0b0b0b" fill-rule="evenodd"></path>
        <path id="path1"
              d="M0.000 200.000 L 0.000 400.000 200.000 400.000 L 400.000 400.000 400.000 200.000 L 400.000 0.000 200.000 0.000 L 0.000 0.000 0.000 200.000 M212.600 17.192 C 215.460 17.392,218.520 17.810,219.400 18.121 C 220.280 18.432,221.900 18.813,223.000 18.968 C 224.869 19.231,229.050 20.329,231.800 21.278 C 232.460 21.506,233.810 21.953,234.800 22.272 C 236.882 22.943,238.111 23.496,244.400 26.591 C 255.189 31.899,261.769 36.657,270.233 45.269 C 276.218 51.359,280.181 56.355,284.615 63.400 C 286.430 66.284,289.356 72.156,291.698 77.613 C 293.278 81.296,296.227 91.042,296.596 93.800 C 296.743 94.900,297.241 97.240,297.703 99.000 C 298.683 102.733,298.933 125.842,298.037 129.800 C 297.787 130.900,297.254 133.510,296.852 135.600 C 296.172 139.135,295.661 141.014,294.131 145.600 C 293.801 146.590,293.317 148.210,293.056 149.200 C 292.795 150.190,292.271 151.576,291.891 152.280 C 291.511 152.984,291.200 153.769,291.200 154.023 C 291.200 155.814,283.850 168.968,279.523 174.918 C 275.056 181.064,274.421 181.792,268.000 188.130 C 262.371 193.687,259.228 196.320,253.400 200.365 C 245.340 205.959,242.486 208.290,237.200 213.598 C 232.707 218.109,226.417 225.826,224.645 229.000 C 224.277 229.660,223.627 230.740,223.201 231.400 C 222.300 232.793,221.189 234.812,220.227 236.800 C 219.854 237.570,219.379 238.470,219.172 238.800 C 218.964 239.130,218.601 239.850,218.364 240.400 C 218.127 240.950,217.611 242.030,217.217 242.800 C 216.823 243.570,216.367 244.815,216.204 245.567 C 216.041 246.318,215.569 247.488,215.155 248.167 C 214.741 248.845,214.398 249.850,214.393 250.400 C 214.387 250.950,214.039 252.158,213.618 253.083 C 213.198 254.009,212.725 255.626,212.568 256.677 C 212.410 257.727,212.039 259.166,211.744 259.873 C 210.799 262.133,209.044 279.363,209.388 283.000 C 209.877 288.179,210.900 295.527,211.477 298.000 C 211.810 299.430,212.251 301.500,212.458 302.600 C 212.664 303.700,213.186 305.443,213.616 306.474 C 214.047 307.505,214.400 308.682,214.400 309.090 C 214.400 309.497,214.760 310.537,215.200 311.400 C 215.640 312.263,216.000 313.139,216.000 313.346 C 216.000 314.204,221.675 325.712,222.650 326.831 C 222.952 327.179,223.200 327.594,223.200 327.754 C 223.200 328.280,226.867 333.322,230.223 337.409 C 238.101 347.006,248.819 355.653,258.732 360.412 C 260.639 361.328,262.855 362.420,263.654 362.839 C 264.454 363.257,265.447 363.600,265.860 363.600 C 266.274 363.600,267.239 363.931,268.006 364.336 C 268.773 364.741,270.298 365.295,271.395 365.566 C 272.492 365.837,273.572 366.210,273.795 366.395 C 274.018 366.579,275.342 366.937,276.739 367.190 C 278.135 367.442,279.734 367.823,280.291 368.035 C 287.198 370.661,311.193 369.776,320.800 366.541 C 321.790 366.208,323.500 365.700,324.600 365.413 C 325.700 365.125,327.140 364.601,327.800 364.248 C 328.460 363.894,329.234 363.604,329.521 363.602 C 329.807 363.601,330.707 363.248,331.521 362.818 C 332.334 362.388,334.170 361.469,335.600 360.777 C 347.905 354.821,359.065 345.084,367.363 333.065 C 368.402 331.560,369.375 330.030,369.526 329.665 C 369.677 329.299,370.565 327.709,371.500 326.130 C 372.435 324.552,373.206 323.112,373.213 322.930 C 373.219 322.749,373.668 321.700,374.209 320.600 C 374.750 319.500,375.194 318.413,375.196 318.185 C 375.198 317.956,375.560 317.063,376.000 316.200 C 376.440 315.337,376.806 314.264,376.814 313.815 C 376.821 313.367,377.175 312.280,377.600 311.400 C 378.025 310.520,378.379 309.414,378.386 308.942 C 378.394 308.470,378.752 306.940,379.182 305.542 C 381.354 298.480,381.478 278.109,379.388 271.800 C 379.096 270.920,378.672 269.169,378.444 267.910 C 378.217 266.650,377.754 265.084,377.415 264.430 C 377.077 263.775,376.800 262.938,376.800 262.570 C 376.800 261.167,372.155 251.386,369.251 246.675 C 366.282 241.860,359.423 233.795,355.250 230.214 C 350.617 226.239,351.165 226.657,346.546 223.555 C 336.962 217.117,324.546 212.704,313.800 211.915 C 301.034 210.979,294.289 211.677,283.400 215.064 C 281.640 215.611,279.840 216.287,279.400 216.566 C 278.960 216.845,278.074 217.203,277.432 217.362 C 276.789 217.520,275.820 217.998,275.278 218.425 C 274.736 218.851,274.030 219.200,273.709 219.200 C 273.389 219.200,272.669 219.560,272.109 220.000 C 271.550 220.440,270.891 220.804,270.646 220.809 C 270.401 220.814,268.760 221.810,267.000 223.022 C 265.240 224.234,263.170 225.645,262.400 226.157 C 260.060 227.714,250.963 237.120,248.919 240.096 C 246.026 244.310,245.673 244.865,244.788 246.600 C 244.339 247.480,243.363 249.280,242.619 250.600 C 241.874 251.920,241.249 253.270,241.230 253.600 C 241.211 253.930,240.906 254.740,240.552 255.400 C 240.199 256.060,239.675 257.500,239.388 258.600 C 239.101 259.700,238.589 261.320,238.250 262.200 C 237.912 263.080,237.627 264.453,237.618 265.251 C 237.608 266.049,237.297 267.399,236.927 268.251 C 236.391 269.485,236.220 271.467,236.087 278.000 C 235.930 285.699,236.066 287.519,237.128 292.000 C 237.363 292.990,237.729 294.700,237.942 295.800 C 240.300 307.984,251.153 324.339,261.600 331.449 C 266.925 335.073,267.126 335.193,271.400 337.311 C 274.052 338.625,275.999 339.402,280.600 340.984 C 281.700 341.362,284.040 341.912,285.800 342.207 C 287.560 342.503,289.970 342.937,291.155 343.172 C 294.263 343.789,302.610 343.709,305.216 343.036 C 306.417 342.726,308.480 342.343,309.800 342.184 C 311.120 342.025,313.062 341.559,314.115 341.148 C 315.168 340.736,316.304 340.400,316.640 340.400 C 318.218 340.400,330.986 333.801,331.998 332.462 C 332.109 332.316,332.920 331.664,333.800 331.014 C 339.389 326.889,350.000 313.486,350.000 310.551 C 350.000 310.406,350.333 309.548,350.740 308.644 C 351.872 306.130,352.839 303.212,353.272 301.000 C 353.488 299.900,353.956 297.650,354.312 296.000 C 355.191 291.935,355.181 283.902,354.294 280.200 C 353.925 278.660,353.451 276.500,353.241 275.400 C 352.483 271.435,349.317 264.139,346.597 260.087 C 346.048 259.269,345.120 257.880,344.536 257.000 C 342.780 254.356,336.407 248.332,333.109 246.199 C 327.952 242.863,327.164 242.400,326.649 242.400 C 326.376 242.400,325.804 242.133,325.376 241.806 C 324.949 241.480,323.880 241.019,323.000 240.783 C 322.120 240.546,320.500 240.017,319.400 239.607 C 313.871 237.544,304.279 237.096,296.800 238.551 C 281.584 241.511,268.712 253.084,263.768 268.251 C 261.331 275.726,262.115 288.463,265.440 295.406 C 265.968 296.509,266.400 297.531,266.400 297.676 C 266.400 300.063,277.582 312.000,279.818 312.000 C 280.070 312.000,280.602 312.360,281.000 312.800 C 281.398 313.240,281.924 313.600,282.168 313.600 C 282.412 313.600,283.239 313.932,284.006 314.338 C 292.048 318.597,310.308 317.530,314.432 312.561 C 314.688 312.253,315.075 312.000,315.291 312.000 C 315.707 312.000,318.241 310.079,320.040 308.400 C 321.387 307.143,325.200 302.025,325.200 301.474 C 325.200 301.248,325.452 300.779,325.760 300.431 C 326.068 300.084,326.507 299.170,326.736 298.400 C 326.964 297.630,327.447 296.190,327.809 295.200 C 328.757 292.606,328.503 282.125,327.435 279.800 C 325.218 274.969,323.975 272.951,321.894 270.800 C 319.796 268.632,315.685 265.600,314.843 265.600 C 314.655 265.600,313.661 265.228,312.634 264.774 C 308.064 262.752,299.830 263.834,295.200 267.064 C 284.832 274.297,286.254 289.735,297.481 291.842 C 302.872 292.853,306.430 286.188,301.787 283.776 C 297.805 281.708,300.655 276.400,305.748 276.400 C 315.298 276.400,318.963 290.307,311.471 298.110 C 296.220 313.993,270.502 296.139,276.164 273.600 C 283.345 245.012,323.400 243.056,337.331 270.614 C 341.414 278.690,342.823 291.015,340.436 297.763 C 339.976 299.062,339.600 300.395,339.600 300.724 C 339.600 301.827,336.219 308.798,334.713 310.800 C 329.712 317.447,326.007 320.929,320.464 324.191 C 320.099 324.406,319.350 324.856,318.800 325.191 C 318.250 325.526,316.990 326.094,316.000 326.453 C 315.010 326.813,313.660 327.304,313.000 327.545 C 307.346 329.610,306.049 329.800,297.600 329.800 C 291.646 329.800,289.017 329.651,288.000 329.257 C 287.230 328.958,285.610 328.478,284.400 328.191 C 278.754 326.850,270.967 322.457,265.252 317.389 C 260.260 312.961,252.908 301.391,251.788 296.200 C 251.646 295.540,251.197 293.920,250.790 292.600 C 249.030 286.885,249.062 271.980,250.845 266.814 C 251.260 265.611,251.606 264.261,251.613 263.814 C 251.619 263.366,252.068 262.100,252.609 261.000 C 253.150 259.900,253.594 258.769,253.596 258.486 C 253.600 257.968,256.449 252.766,258.352 249.800 C 261.520 244.865,268.884 237.463,273.423 234.653 C 274.536 233.964,275.796 233.171,276.223 232.890 C 276.651 232.610,277.720 232.019,278.600 231.578 C 279.480 231.137,280.470 230.610,280.800 230.408 C 282.785 229.191,290.819 226.451,293.693 226.009 C 294.852 225.832,296.880 225.456,298.200 225.175 C 304.395 223.855,317.056 224.951,324.200 227.425 C 338.241 232.287,349.482 240.771,356.797 252.027 C 360.046 257.026,360.373 257.604,361.606 260.518 C 362.277 262.103,363.160 264.120,363.570 265.000 C 364.555 267.119,365.557 270.909,367.164 278.604 C 368.083 283.007,368.305 292.246,367.572 295.600 C 367.355 296.590,366.855 299.210,366.460 301.423 C 366.065 303.636,365.608 305.663,365.444 305.928 C 365.281 306.193,364.812 307.533,364.404 308.905 C 363.125 313.200,362.290 315.367,361.532 316.354 C 361.129 316.879,360.800 317.546,360.800 317.836 C 360.800 318.127,360.350 319.028,359.800 319.838 C 359.250 320.649,358.800 321.529,358.800 321.794 C 358.800 322.059,358.440 322.602,358.000 323.000 C 357.560 323.398,357.200 323.880,357.200 324.071 C 357.200 324.482,355.192 327.626,354.562 328.200 C 354.321 328.420,353.302 329.680,352.297 331.000 C 349.262 334.986,341.240 342.239,337.006 344.826 C 336.129 345.362,335.049 346.021,334.606 346.291 C 334.163 346.561,333.080 347.151,332.200 347.603 C 331.320 348.055,330.330 348.581,330.000 348.772 C 328.482 349.651,325.080 351.200,324.663 351.202 C 324.408 351.204,323.660 351.495,323.000 351.850 C 321.915 352.433,319.492 353.191,315.000 354.352 C 307.068 356.401,293.762 357.132,288.200 355.824 C 286.880 355.513,284.630 355.133,283.200 354.979 C 281.770 354.825,279.970 354.433,279.200 354.108 C 278.430 353.783,276.900 353.277,275.800 352.984 C 273.059 352.253,269.290 350.873,268.256 350.222 C 267.785 349.926,266.983 349.559,266.473 349.406 C 265.268 349.046,260.387 346.305,257.654 344.454 C 256.473 343.654,255.216 342.820,254.861 342.600 C 246.680 337.534,232.499 320.354,230.181 312.700 C 230.031 312.205,229.569 311.239,229.154 310.553 C 228.739 309.867,228.400 309.017,228.400 308.663 C 228.400 308.310,228.064 307.252,227.654 306.311 C 226.387 303.404,225.244 299.527,224.791 296.600 C 224.553 295.060,224.085 292.855,223.751 291.700 C 222.726 288.156,222.894 271.080,224.002 266.288 C 225.919 257.994,226.901 254.443,227.803 252.540 C 228.131 251.846,228.400 251.085,228.400 250.848 C 228.400 250.612,228.833 249.469,229.361 248.309 C 229.890 247.149,230.520 245.750,230.761 245.200 C 231.677 243.111,234.150 238.875,236.333 235.657 C 237.580 233.819,238.861 231.929,239.180 231.457 C 241.413 228.154,250.105 219.193,253.523 216.671 C 254.470 215.972,256.180 214.675,257.323 213.789 C 258.465 212.902,259.850 211.949,260.400 211.669 C 260.950 211.390,262.120 210.723,263.000 210.186 C 263.880 209.650,265.320 208.851,266.200 208.411 C 267.080 207.970,268.070 207.446,268.400 207.245 C 269.718 206.444,273.302 204.800,273.737 204.796 C 273.992 204.794,275.100 204.350,276.200 203.809 C 277.300 203.268,278.508 202.819,278.885 202.813 C 279.262 202.806,280.432 202.464,281.485 202.053 C 282.538 201.643,284.270 201.179,285.333 201.024 C 286.397 200.868,287.975 200.491,288.840 200.186 C 296.707 197.410,319.400 198.328,330.000 201.850 C 330.990 202.179,332.700 202.683,333.800 202.970 C 334.900 203.257,336.340 203.785,337.000 204.143 C 337.660 204.502,338.445 204.796,338.746 204.798 C 339.046 204.799,339.946 205.136,340.746 205.546 C 341.545 205.957,343.550 206.960,345.200 207.775 C 357.620 213.911,371.206 225.858,378.431 237.000 C 379.572 238.760,380.810 240.650,381.181 241.200 C 384.611 246.283,389.519 258.514,391.774 267.600 C 394.269 277.653,394.514 299.473,392.214 306.800 C 391.904 307.790,391.471 309.710,391.252 311.066 C 391.034 312.423,390.595 314.043,390.276 314.666 C 389.957 315.290,389.560 316.430,389.394 317.200 C 389.228 317.970,388.774 319.320,388.385 320.200 C 387.995 321.080,387.176 323.150,386.564 324.800 C 385.952 326.450,385.237 328.070,384.976 328.400 C 384.715 328.730,384.289 329.661,384.030 330.468 C 383.771 331.275,383.298 332.152,382.980 332.417 C 382.661 332.682,382.400 333.091,382.400 333.327 C 382.400 333.564,381.977 334.397,381.461 335.178 C 380.944 335.960,379.874 337.590,379.083 338.800 C 370.457 351.991,357.417 364.206,345.296 370.451 C 344.033 371.101,342.730 371.799,342.400 372.001 C 342.070 372.203,340.540 372.939,339.000 373.636 C 337.460 374.333,335.468 375.240,334.574 375.651 C 333.679 376.063,332.684 376.400,332.363 376.400 C 332.041 376.400,331.407 376.660,330.954 376.977 C 330.501 377.294,329.066 377.822,327.765 378.151 C 326.464 378.479,324.410 379.015,323.200 379.342 C 309.191 383.127,287.381 383.741,277.400 380.632 C 276.300 380.289,274.950 379.999,274.400 379.987 C 273.850 379.975,272.680 379.688,271.800 379.349 C 270.920 379.011,269.190 378.480,267.955 378.171 C 266.720 377.862,265.190 377.338,264.555 377.007 C 263.920 376.676,263.150 376.404,262.844 376.402 C 262.538 376.401,261.548 376.056,260.644 375.635 C 255.580 373.278,253.630 372.400,253.461 372.400 C 253.210 372.400,247.779 369.361,246.000 368.225 C 235.863 361.753,230.996 357.724,223.745 349.800 C 218.455 344.019,212.400 336.058,212.400 334.884 C 212.400 334.671,212.132 334.275,211.804 334.003 C 211.108 333.426,208.397 328.279,205.903 322.800 C 203.796 318.171,203.622 317.724,201.020 310.200 C 200.640 309.100,200.177 307.300,199.993 306.200 C 199.809 305.100,199.285 302.776,198.829 301.036 C 198.373 299.296,198.000 297.200,198.000 296.379 C 198.000 295.558,197.739 293.561,197.419 291.943 C 197.100 290.324,196.653 286.294,196.426 282.987 C 196.199 279.679,195.750 276.098,195.428 275.028 C 195.106 273.958,194.720 272.074,194.569 270.841 C 194.419 269.609,193.959 267.738,193.548 266.685 C 193.136 265.632,192.800 264.421,192.800 263.993 C 192.800 263.279,191.999 261.013,189.902 255.800 C 188.655 252.697,184.408 244.157,183.077 242.073 C 180.223 237.607,179.728 236.876,178.011 234.600 C 177.015 233.280,176.086 232.110,175.948 232.000 C 175.809 231.890,175.029 230.990,174.216 230.000 C 168.999 223.654,161.223 216.810,153.663 211.911 C 151.184 210.305,146.039 207.350,144.800 206.821 C 144.250 206.587,143.343 206.138,142.784 205.824 C 142.225 205.510,141.055 204.989,140.184 204.666 C 139.313 204.342,137.340 203.597,135.800 203.008 C 134.260 202.420,132.100 201.692,131.000 201.389 C 129.900 201.087,128.190 200.581,127.200 200.266 C 119.884 197.934,101.674 196.732,92.800 197.997 C 89.184 198.512,81.014 200.221,80.423 200.585 C 80.155 200.751,79.005 201.124,77.868 201.413 C 75.297 202.067,70.519 203.807,69.878 204.323 C 69.615 204.534,68.827 204.830,68.128 204.980 C 67.428 205.129,66.650 205.498,66.400 205.800 C 66.150 206.102,65.419 206.464,64.777 206.605 C 64.135 206.746,63.497 207.043,63.361 207.264 C 63.224 207.485,62.367 208.022,61.456 208.458 C 58.827 209.714,57.299 210.644,53.200 213.484 C 45.764 218.637,36.717 227.785,31.724 235.200 C 28.188 240.451,24.800 246.426,24.800 247.411 C 24.800 247.681,24.542 248.117,24.226 248.379 C 23.910 248.641,23.528 249.428,23.377 250.128 C 23.226 250.827,22.764 252.068,22.351 252.884 C 21.938 253.700,21.599 254.690,21.598 255.084 C 21.596 255.478,21.313 256.340,20.969 257.000 C 20.625 257.660,20.083 259.321,19.764 260.692 C 19.446 262.063,18.996 263.683,18.764 264.292 C 18.531 264.901,18.181 266.660,17.986 268.200 C 17.790 269.740,17.359 272.890,17.028 275.200 C 16.261 280.545,16.251 287.245,17.003 291.600 C 17.326 293.470,17.777 296.505,18.004 298.344 C 18.232 300.183,18.595 302.017,18.810 302.419 C 19.026 302.822,19.458 304.287,19.771 305.676 C 20.790 310.193,22.542 314.674,25.939 321.453 C 31.401 332.353,41.723 344.026,51.754 350.647 C 53.048 351.501,54.693 352.595,55.409 353.078 C 57.306 354.356,64.269 357.897,65.954 358.439 C 66.749 358.695,67.580 359.032,67.800 359.188 C 68.162 359.446,72.129 360.708,78.600 362.624 C 79.920 363.015,82.620 363.471,84.600 363.637 C 86.580 363.804,90.062 364.138,92.337 364.381 C 95.337 364.700,97.535 364.701,100.337 364.384 C 102.462 364.144,105.820 363.792,107.800 363.602 C 109.780 363.412,111.940 363.042,112.600 362.779 C 113.260 362.517,114.880 362.067,116.200 361.780 C 118.771 361.220,122.406 359.998,125.000 358.822 C 125.880 358.423,126.870 357.986,127.200 357.851 C 127.530 357.716,128.070 357.428,128.400 357.212 C 128.730 356.996,129.630 356.545,130.400 356.210 C 135.900 353.814,142.431 349.119,148.731 343.032 C 153.199 338.715,156.356 334.772,159.805 329.200 C 160.282 328.430,161.008 327.260,161.418 326.600 C 164.707 321.312,169.589 307.470,169.607 303.380 C 169.611 302.511,169.880 300.180,170.205 298.200 C 170.955 293.638,170.959 289.233,170.217 284.623 C 169.897 282.630,169.462 279.830,169.251 278.400 C 168.513 273.407,166.009 265.843,163.558 261.200 C 163.383 260.870,162.630 259.430,161.883 258.000 C 161.137 256.570,159.952 254.590,159.250 253.600 C 158.548 252.610,157.667 251.350,157.293 250.800 C 152.759 244.142,142.446 235.099,135.400 231.604 C 134.520 231.167,133.530 230.639,133.200 230.429 C 132.185 229.786,128.076 228.000,127.609 228.000 C 127.366 228.000,126.462 227.640,125.600 227.200 C 124.738 226.760,123.665 226.400,123.218 226.400 C 122.770 226.400,121.367 226.048,120.102 225.617 C 117.002 224.564,106.302 223.448,102.000 223.730 C 95.880 224.131,91.038 224.830,88.885 225.622 C 87.722 226.050,86.405 226.400,85.959 226.400 C 84.661 226.400,79.348 228.637,73.900 231.478 C 66.705 235.229,57.116 244.180,52.344 251.600 C 50.127 255.047,46.411 262.536,46.386 263.606 C 46.379 263.933,46.025 264.920,45.600 265.800 C 45.175 266.680,44.821 267.851,44.814 268.401 C 44.806 268.952,44.415 270.662,43.945 272.201 C 42.813 275.905,42.650 290.599,43.708 293.600 C 44.057 294.590,44.528 296.431,44.756 297.690 C 44.983 298.950,45.446 300.516,45.785 301.170 C 46.123 301.825,46.400 302.666,46.400 303.040 C 46.400 304.993,51.561 313.882,55.486 318.688 C 62.426 327.184,72.635 333.912,82.400 336.422 C 92.922 339.127,98.947 339.128,109.600 336.427 C 117.336 334.465,127.674 327.954,132.739 321.854 C 135.254 318.826,135.883 317.984,137.682 315.240 C 138.629 313.797,141.200 308.513,141.200 308.010 C 141.200 307.783,141.560 306.925,142.000 306.104 C 142.440 305.284,142.802 304.249,142.805 303.806 C 142.807 303.363,143.165 301.560,143.600 299.800 C 144.598 295.760,144.702 287.668,143.797 284.387 C 143.465 283.184,143.023 281.300,142.815 280.200 C 142.438 278.212,140.905 274.140,140.152 273.129 C 139.936 272.838,139.166 271.440,138.442 270.023 C 134.067 261.461,122.983 252.870,114.200 251.233 C 113.100 251.028,111.660 250.654,111.000 250.402 C 108.810 249.566,102.100 249.441,99.000 250.180 C 97.460 250.547,95.366 251.008,94.347 251.204 C 87.079 252.606,76.604 260.804,73.141 267.800 C 72.814 268.460,72.355 269.360,72.121 269.800 C 69.047 275.563,68.297 288.826,70.782 293.462 C 71.232 294.301,71.600 295.194,71.600 295.446 C 71.600 297.815,79.669 307.170,82.657 308.264 C 83.066 308.414,83.829 308.866,84.354 309.268 C 84.879 309.671,85.601 310.000,85.960 310.000 C 86.318 310.000,87.314 310.376,88.172 310.836 C 91.304 312.515,99.710 312.340,104.600 310.494 C 119.491 304.873,122.983 285.582,110.565 277.535 C 104.653 273.703,95.558 276.750,94.640 282.870 C 94.006 287.102,97.240 290.208,99.805 287.830 C 103.803 284.125,107.812 290.510,104.382 295.119 C 97.119 304.880,80.887 295.444,82.157 282.200 C 83.978 263.208,108.743 256.597,123.072 271.277 C 125.085 273.339,128.800 278.887,128.800 279.831 C 128.800 280.088,129.205 281.176,129.700 282.249 C 131.069 285.217,131.045 298.282,129.664 301.600 C 124.975 312.868,118.424 319.298,107.800 323.063 C 102.130 325.072,89.947 325.378,85.834 323.615 C 84.789 323.167,83.667 322.800,83.342 322.800 C 79.380 322.800,67.675 313.786,63.801 307.751 C 62.971 306.458,61.982 304.947,61.602 304.392 C 61.223 303.838,60.775 302.950,60.606 302.420 C 60.438 301.889,59.963 300.903,59.552 300.228 C 59.140 299.552,58.802 298.676,58.801 298.280 C 58.801 297.884,58.513 297.006,58.163 296.329 C 55.257 290.710,56.067 274.023,59.626 266.200 C 60.026 265.320,60.630 263.970,60.969 263.200 C 61.307 262.430,61.810 261.440,62.087 261.000 C 64.517 257.138,65.498 255.805,67.873 253.139 C 70.701 249.965,74.097 247.011,77.200 245.026 C 78.190 244.393,79.488 243.543,80.084 243.137 C 80.680 242.732,81.292 242.400,81.444 242.400 C 81.596 242.400,82.638 241.970,83.760 241.444 C 87.011 239.920,90.029 238.875,92.400 238.452 C 93.610 238.237,95.126 237.859,95.769 237.614 C 101.412 235.458,117.327 237.583,125.826 241.626 C 126.721 242.052,127.583 242.400,127.742 242.400 C 127.902 242.400,128.520 242.733,129.116 243.141 C 129.712 243.548,131.730 244.895,133.600 246.134 C 141.650 251.467,148.748 260.061,152.489 269.000 C 154.974 274.940,155.351 276.234,156.859 284.000 C 157.460 287.097,157.060 299.974,156.275 302.800 C 155.939 304.010,155.485 305.810,155.266 306.800 C 154.526 310.144,152.657 314.957,150.529 319.000 C 143.513 332.328,130.465 343.171,115.400 348.192 C 113.375 348.867,112.887 348.986,106.800 350.278 C 99.693 351.787,85.816 351.104,79.200 348.920 C 78.210 348.593,76.500 348.118,75.400 347.863 C 74.300 347.608,72.955 347.085,72.411 346.700 C 71.867 346.315,71.147 345.996,70.811 345.991 C 70.475 345.987,69.030 345.359,67.600 344.598 C 66.170 343.836,64.460 342.933,63.800 342.591 C 62.687 342.015,60.982 340.938,58.150 339.022 C 50.094 333.573,41.248 322.939,36.837 313.400 C 36.125 311.860,35.220 309.970,34.826 309.200 C 34.433 308.430,33.983 307.101,33.827 306.246 C 33.671 305.391,33.196 304.044,32.772 303.252 C 32.347 302.460,32.000 301.266,32.000 300.598 C 32.000 299.930,31.608 298.038,31.129 296.392 C 29.787 291.780,29.793 275.540,31.139 270.000 C 31.647 267.910,32.214 265.570,32.400 264.800 C 33.092 261.932,34.800 257.263,36.423 253.800 C 36.835 252.920,37.362 251.750,37.594 251.200 C 41.893 240.999,54.446 227.753,66.400 220.805 C 67.170 220.358,68.070 219.825,68.400 219.622 C 68.946 219.286,71.039 218.320,75.400 216.393 C 78.746 214.914,81.483 213.993,83.798 213.566 C 85.117 213.322,86.557 212.930,86.998 212.693 C 91.294 210.387,118.009 210.450,122.355 212.776 C 122.808 213.018,124.128 213.396,125.289 213.614 C 128.022 214.129,133.943 216.392,139.000 218.855 C 152.167 225.266,164.742 237.027,172.299 250.000 C 174.029 252.969,176.800 258.457,176.802 258.917 C 176.804 259.183,177.090 259.940,177.438 260.600 C 178.206 262.058,180.224 268.068,180.593 270.000 C 180.741 270.770,181.115 272.120,181.425 273.000 C 182.408 275.788,184.026 289.989,183.750 293.400 C 182.906 303.827,181.425 312.201,179.573 317.008 C 179.148 318.112,178.798 319.282,178.796 319.608 C 178.794 319.933,178.350 321.100,177.809 322.200 C 177.268 323.300,176.819 324.532,176.813 324.937 C 176.806 325.342,176.440 326.131,176.000 326.691 C 175.560 327.250,175.200 328.019,175.200 328.400 C 175.200 328.781,174.840 329.550,174.400 330.109 C 173.960 330.669,173.600 331.292,173.600 331.495 C 173.600 331.863,173.292 332.364,169.065 338.871 C 164.544 345.831,154.391 356.543,148.819 360.232 C 148.039 360.748,146.598 361.738,145.618 362.432 C 143.779 363.733,134.901 368.800,134.460 368.800 C 134.323 368.800,133.219 369.269,132.006 369.842 C 130.793 370.414,128.882 371.314,127.760 371.842 C 126.638 372.369,125.321 372.800,124.834 372.800 C 124.346 372.800,123.554 373.014,123.074 373.276 C 122.593 373.538,120.850 374.057,119.200 374.430 C 117.550 374.802,115.030 375.386,113.600 375.726 C 104.195 377.964,82.613 377.771,76.444 375.392 C 75.650 375.086,74.100 374.661,73.000 374.449 C 68.887 373.655,61.244 370.794,55.200 367.787 C 51.537 365.964,46.982 363.365,46.133 362.614 C 45.876 362.386,44.462 361.390,42.990 360.400 C 34.034 354.377,24.450 343.990,16.970 332.200 C 15.908 330.526,10.800 320.282,10.800 319.826 C 10.800 319.621,10.437 318.702,9.992 317.784 C 9.033 315.803,8.149 312.828,6.013 304.400 C 5.299 301.585,4.919 299.301,3.946 292.000 C 3.382 287.770,3.758 274.668,4.588 269.600 C 5.488 264.111,7.091 257.157,8.232 253.800 C 10.332 247.621,13.446 240.154,14.822 238.000 C 15.033 237.670,15.424 236.950,15.690 236.400 C 20.405 226.665,32.538 212.602,42.800 204.976 C 49.609 199.916,62.669 192.400,64.652 192.400 C 64.800 192.400,65.838 191.974,66.960 191.454 C 69.425 190.312,72.244 189.330,75.200 188.586 C 76.410 188.281,78.480 187.755,79.800 187.418 C 92.395 184.197,112.110 183.557,122.732 186.026 C 124.564 186.452,126.476 186.800,126.981 186.800 C 127.486 186.800,128.687 187.090,129.650 187.445 C 130.612 187.800,132.390 188.326,133.600 188.615 C 136.361 189.274,139.329 190.276,141.400 191.250 C 142.280 191.664,143.177 192.002,143.394 192.001 C 143.611 192.000,144.691 192.427,145.794 192.949 C 148.094 194.038,151.781 195.731,154.400 196.901 C 155.390 197.343,156.830 198.019,157.600 198.402 C 158.370 198.786,159.630 199.230,160.400 199.389 C 161.170 199.548,162.170 199.912,162.622 200.197 C 163.384 200.679,165.459 201.339,169.400 202.353 C 185.668 206.543,204.441 206.404,219.228 201.985 C 220.674 201.553,222.114 201.199,222.428 201.198 C 222.743 201.196,223.478 200.946,224.061 200.641 C 224.645 200.337,225.815 199.873,226.661 199.611 C 227.508 199.348,228.920 198.804,229.800 198.401 C 230.680 197.998,231.850 197.474,232.400 197.237 C 232.950 197.000,233.670 196.634,234.000 196.424 C 234.330 196.214,235.086 195.807,235.679 195.521 C 238.637 194.093,242.602 191.899,243.500 191.193 C 244.054 190.757,244.655 190.400,244.836 190.400 C 246.227 190.400,258.150 180.081,263.090 174.600 C 267.365 169.857,274.800 159.312,274.800 157.990 C 274.800 157.835,275.149 157.264,275.575 156.722 C 276.002 156.180,276.479 155.211,276.636 154.568 C 276.793 153.926,277.255 152.971,277.661 152.446 C 278.067 151.921,278.402 151.291,278.404 151.046 C 278.406 150.801,278.850 149.700,279.391 148.600 C 279.932 147.500,280.387 146.330,280.401 146.000 C 280.415 145.670,280.775 144.680,281.200 143.800 C 281.625 142.920,281.979 141.886,281.986 141.502 C 281.994 141.117,282.357 139.767,282.794 138.502 C 283.231 137.236,283.763 135.120,283.977 133.800 C 284.191 132.480,284.640 130.230,284.975 128.800 C 285.947 124.648,285.859 105.153,284.850 101.164 C 284.438 99.534,283.977 97.182,283.826 95.938 C 283.675 94.694,283.203 92.757,282.776 91.634 C 282.349 90.510,282.000 89.276,282.000 88.890 C 282.000 88.504,281.668 87.561,281.261 86.794 C 280.855 86.027,280.398 84.860,280.245 84.200 C 280.092 83.540,279.620 82.280,279.195 81.400 C 278.771 80.520,277.869 78.630,277.190 77.200 C 276.511 75.770,275.438 73.700,274.805 72.600 C 274.173 71.500,273.482 70.234,273.271 69.787 C 273.059 69.340,272.282 68.166,271.543 67.178 C 270.804 66.190,269.480 64.313,268.600 63.007 C 265.361 58.200,255.557 48.749,249.489 44.586 C 245.361 41.753,238.066 37.526,236.400 37.002 C 235.850 36.830,234.773 36.353,234.006 35.944 C 233.239 35.535,232.270 35.200,231.853 35.200 C 231.436 35.200,230.533 34.862,229.847 34.449 C 229.161 34.035,227.907 33.574,227.060 33.423 C 226.213 33.272,224.953 32.905,224.260 32.607 C 223.567 32.309,221.470 31.768,219.600 31.404 C 217.730 31.040,215.390 30.569,214.400 30.356 C 212.062 29.854,192.342 29.851,190.000 30.352 C 189.010 30.564,186.490 31.100,184.400 31.544 C 182.310 31.987,179.931 32.632,179.113 32.975 C 178.295 33.319,177.302 33.600,176.907 33.600 C 176.512 33.600,175.516 33.960,174.696 34.400 C 173.875 34.840,172.959 35.200,172.661 35.200 C 172.363 35.200,171.273 35.650,170.238 36.200 C 169.204 36.750,168.181 37.200,167.965 37.200 C 167.343 37.200,158.100 42.632,154.827 44.921 C 149.769 48.458,140.667 57.870,137.151 63.200 C 133.205 69.181,132.860 69.753,131.487 72.600 C 130.850 73.920,129.985 75.666,129.564 76.479 C 129.144 77.293,128.794 78.193,128.787 78.479 C 128.781 78.766,128.332 79.900,127.791 81.000 C 127.250 82.100,126.806 83.270,126.804 83.600 C 126.802 83.930,126.450 85.280,126.022 86.600 C 122.340 97.948,122.339 115.001,126.020 126.675 C 126.449 128.036,126.800 129.478,126.800 129.878 C 126.800 130.279,127.250 131.452,127.800 132.485 C 128.350 133.518,128.804 134.687,128.809 135.082 C 128.814 135.477,129.170 136.250,129.600 136.800 C 130.030 137.350,130.386 138.007,130.391 138.259 C 130.416 139.556,134.495 146.299,138.529 151.710 C 142.408 156.916,148.291 162.684,152.800 165.704 C 153.350 166.072,154.571 166.920,155.514 167.587 C 156.457 168.254,157.378 168.800,157.560 168.800 C 157.743 168.800,158.321 169.130,158.846 169.534 C 160.367 170.704,166.363 173.635,169.500 174.741 C 175.095 176.715,178.423 177.659,181.000 178.001 C 182.320 178.177,185.450 178.626,187.956 179.000 C 195.338 180.101,207.185 178.628,215.800 175.538 C 216.460 175.302,217.810 174.831,218.800 174.493 C 219.790 174.155,220.884 173.636,221.231 173.339 C 221.579 173.043,222.029 172.794,222.231 172.787 C 222.682 172.772,226.554 170.847,228.200 169.821 C 231.768 167.595,232.877 166.799,235.800 164.367 C 242.447 158.838,249.896 149.982,252.011 145.095 C 252.224 144.603,252.566 143.930,252.771 143.600 C 258.913 133.711,261.456 112.731,257.955 100.833 C 257.540 99.421,257.200 98.029,257.200 97.741 C 257.200 93.345,248.514 78.943,241.712 72.061 C 240.291 70.623,235.249 66.616,233.248 65.333 C 232.012 64.541,230.547 63.582,229.992 63.202 C 229.438 62.823,228.538 62.372,227.992 62.201 C 227.447 62.030,226.571 61.555,226.046 61.145 C 225.521 60.735,224.799 60.400,224.440 60.400 C 224.082 60.400,223.161 60.064,222.394 59.654 C 221.627 59.243,220.041 58.702,218.869 58.451 C 217.697 58.201,216.361 57.793,215.900 57.547 C 212.058 55.491,194.430 55.523,188.400 57.598 C 187.190 58.014,185.570 58.475,184.800 58.622 C 184.030 58.769,183.130 59.118,182.800 59.397 C 182.470 59.677,181.750 60.029,181.200 60.181 C 176.719 61.417,169.760 66.153,164.400 71.614 C 159.248 76.863,156.928 80.041,154.626 85.000 C 154.013 86.320,153.172 88.066,152.756 88.879 C 152.340 89.693,152.000 90.637,152.000 90.978 C 152.000 91.318,151.647 92.633,151.215 93.898 C 149.241 99.684,149.105 115.136,150.997 118.793 C 151.291 119.362,151.660 120.541,151.817 121.414 C 151.975 122.286,152.335 123.450,152.618 124.000 C 152.901 124.550,153.786 126.350,154.585 128.000 C 156.967 132.922,158.716 135.423,162.780 139.727 C 164.693 141.752,170.070 146.000,170.721 146.000 C 170.931 146.000,171.311 146.252,171.567 146.561 C 172.520 147.709,180.527 151.200,182.208 151.200 C 182.775 151.200,183.816 151.515,184.520 151.900 C 186.416 152.937,200.579 152.937,203.108 151.900 C 204.048 151.515,205.224 151.200,205.724 151.200 C 206.223 151.200,207.298 150.860,208.114 150.444 C 208.930 150.028,210.079 149.566,210.667 149.419 C 211.256 149.271,212.180 148.802,212.722 148.375 C 213.264 147.949,213.866 147.600,214.060 147.600 C 215.603 147.600,222.542 141.571,225.570 137.600 C 228.423 133.859,231.988 127.080,232.009 125.356 C 232.015 124.940,232.375 123.262,232.809 121.627 C 234.621 114.815,232.974 104.803,228.882 97.755 C 214.855 73.591,179.806 78.337,175.569 104.974 C 174.444 112.041,179.040 120.950,185.768 124.747 C 195.906 130.469,208.786 123.760,207.420 113.469 C 206.504 106.561,197.339 103.862,198.113 110.728 C 198.382 113.109,198.028 113.731,196.029 114.391 C 189.970 116.390,186.116 106.554,190.637 100.633 C 193.839 96.439,198.903 94.676,205.063 95.610 C 218.736 97.682,224.609 115.028,216.126 128.289 C 214.059 131.520,207.437 137.200,205.736 137.200 C 205.497 137.200,204.514 137.545,203.551 137.966 C 192.698 142.715,176.111 137.230,169.040 126.555 C 168.183 125.260,167.148 123.712,166.740 123.116 C 166.333 122.520,166.000 121.836,166.000 121.596 C 166.000 121.356,165.710 120.600,165.356 119.915 C 163.216 115.776,161.831 106.019,162.843 102.200 C 163.076 101.320,163.584 99.247,163.972 97.593 C 164.360 95.939,164.868 94.229,165.101 93.793 C 165.334 93.357,166.126 91.740,166.862 90.200 C 169.419 84.849,173.895 79.913,180.276 75.406 C 189.373 68.981,208.715 67.164,217.417 71.918 C 217.848 72.153,219.460 72.934,221.000 73.654 C 224.552 75.314,226.684 76.693,230.611 79.872 C 232.703 81.565,238.366 88.225,239.553 90.389 C 242.271 95.342,243.664 98.571,244.473 101.800 C 244.694 102.680,245.218 104.772,245.637 106.448 C 246.730 110.816,246.711 119.687,245.600 123.697 C 245.160 125.285,244.800 126.989,244.800 127.484 C 244.800 129.898,239.878 140.151,236.573 144.620 C 232.523 150.095,225.458 156.403,220.800 158.701 C 220.250 158.972,219.530 159.361,219.200 159.564 C 217.814 160.420,214.376 162.000,213.901 162.000 C 213.619 162.000,212.743 162.346,211.954 162.769 C 211.165 163.191,209.496 163.727,208.245 163.958 C 206.994 164.189,205.122 164.666,204.085 165.019 C 201.404 165.930,185.620 165.953,183.458 165.050 C 182.655 164.715,180.964 164.249,179.699 164.016 C 176.909 163.501,170.360 161.008,168.000 159.562 C 167.670 159.360,166.950 158.974,166.400 158.706 C 165.429 158.231,161.344 155.510,159.083 153.830 C 154.067 150.104,148.703 143.788,144.108 136.200 C 142.454 133.469,139.621 126.717,139.157 124.400 C 138.959 123.410,138.540 121.955,138.228 121.166 C 136.159 115.947,136.279 97.966,138.424 91.730 C 138.851 90.490,139.200 89.095,139.200 88.631 C 139.200 88.168,139.560 87.116,140.000 86.296 C 140.440 85.475,140.800 84.595,140.800 84.340 C 140.800 83.103,144.165 76.533,147.018 72.200 C 151.174 65.888,158.865 58.049,164.355 54.531 C 165.590 53.740,167.071 52.769,167.646 52.374 C 168.221 51.979,169.301 51.377,170.046 51.036 C 170.791 50.695,171.670 50.239,172.000 50.023 C 173.016 49.358,177.049 47.600,177.559 47.600 C 177.825 47.600,178.707 47.250,179.521 46.822 C 186.770 43.007,206.627 41.752,217.000 44.451 C 221.641 45.659,224.329 46.470,225.460 47.005 C 226.154 47.332,226.932 47.600,227.189 47.600 C 227.710 47.600,235.771 51.548,238.059 52.923 C 247.376 58.523,257.313 68.679,262.744 78.153 C 265.104 82.269,268.000 88.463,268.000 89.395 C 268.000 89.750,268.300 90.616,268.667 91.320 C 269.033 92.024,269.553 93.590,269.822 94.800 C 270.092 96.010,270.583 98.080,270.915 99.400 C 271.953 103.527,272.940 113.746,272.649 117.339 C 272.081 124.327,271.285 130.304,270.616 132.600 C 267.903 141.911,267.282 143.556,264.125 149.800 C 259.920 158.115,252.021 167.858,244.159 174.429 C 236.856 180.531,225.916 186.274,216.800 188.789 C 215.370 189.184,213.750 189.685,213.200 189.904 C 212.650 190.122,211.030 190.431,209.600 190.591 C 208.170 190.750,205.830 191.162,204.400 191.506 C 200.667 192.404,187.321 192.405,183.200 191.508 C 181.550 191.149,179.132 190.735,177.826 190.589 C 176.520 190.443,174.990 190.140,174.426 189.915 C 173.862 189.691,172.230 189.184,170.800 188.789 C 167.425 187.857,164.594 186.893,162.600 185.998 C 159.184 184.465,152.952 181.387,152.000 180.763 C 150.105 179.521,146.598 177.192,145.600 176.513 C 136.350 170.218,126.156 158.531,120.639 147.897 C 119.690 146.068,118.719 144.218,118.481 143.786 C 117.752 142.461,116.000 138.326,116.000 137.930 C 116.000 137.724,115.660 136.801,115.245 135.878 C 114.830 134.955,114.366 133.570,114.213 132.800 C 114.061 132.030,113.590 130.448,113.168 129.285 C 112.746 128.122,112.400 126.706,112.400 126.140 C 112.400 125.573,112.001 123.555,111.512 121.655 C 110.189 116.506,110.161 97.354,111.468 91.600 C 111.943 89.510,112.515 86.990,112.739 86.000 C 113.381 83.163,114.748 78.719,115.402 77.340 C 115.731 76.646,116.000 75.876,116.000 75.627 C 116.000 74.808,119.521 66.858,120.795 64.800 C 121.000 64.470,122.125 62.580,123.296 60.600 C 130.014 49.241,142.099 37.010,153.000 30.537 C 159.869 26.459,172.329 20.813,174.508 20.791 C 174.999 20.786,176.120 20.455,177.000 20.056 C 177.880 19.656,179.590 19.200,180.800 19.042 C 182.010 18.884,183.918 18.490,185.040 18.166 C 189.281 16.943,202.406 16.479,212.600 17.192 M213.973 216.582 C 210.391 217.901,191.345 218.901,185.570 218.073 C 181.756 217.526,181.351 218.510,184.156 221.517 C 185.122 222.553,187.094 225.020,188.537 227.000 C 189.980 228.980,191.529 231.078,191.980 231.663 C 192.431 232.248,192.800 232.899,192.800 233.109 C 192.800 233.320,193.176 233.970,193.635 234.553 C 194.626 235.813,196.593 239.352,198.825 243.890 C 201.071 248.456,201.168 248.463,202.792 244.200 C 204.508 239.696,206.035 236.091,207.648 232.730 C 208.764 230.405,211.375 225.699,211.843 225.169 C 212.149 224.821,212.400 224.371,212.401 224.169 C 212.401 223.966,213.116 222.810,213.989 221.600 C 217.482 216.759,217.477 215.291,213.973 216.582 "
              stroke="none" fill="#fbfbfb" fill-rule="evenodd"></path>
    </g>
</svg>