<svg id="svg" version="1.1" xmlns="http://www.w3.org/2000/svg" xmlns:xlink="http://www.w3.org/1999/xlink" width="400"
     height="400" viewBox="0, 0, 400,400">
    <g id="svgg">
        <path id="path0"
              d="M58.948 46.811 C 54.309 48.595,57.472 63.701,64.169 71.750 C 66.413 74.447,67.589 76.652,67.598 78.179 C 67.615 81.034,72.444 90.859,75.325 93.900 C 77.305 95.989,79.398 95.784,81.663 93.279 C 84.240 90.428,84.202 90.432,86.639 92.839 C 89.312 95.478,89.311 95.606,86.562 99.144 C 65.097 126.768,58.794 161.272,69.413 193.012 C 72.593 202.516,76.503 209.330,84.785 219.801 C 86.003 221.341,87.500 223.270,88.110 224.087 C 99.366 239.152,113.225 247.059,141.600 254.607 C 148.173 256.355,148.019 256.219,146.675 259.096 C 142.964 267.040,143.294 274.501,148.173 293.000 C 150.661 302.435,151.371 304.000,153.162 304.000 C 154.383 304.000,154.102 304.257,181.582 278.000 C 215.387 245.699,216.050 245.091,217.029 245.467 C 217.346 245.588,222.788 251.203,229.122 257.944 C 235.456 264.685,244.590 274.394,249.419 279.520 C 254.249 284.647,260.090 290.884,262.400 293.380 C 266.120 297.400,280.815 313.072,296.177 329.400 C 299.074 332.480,303.865 337.610,306.822 340.800 C 323.039 358.293,325.483 360.093,339.104 364.565 C 348.716 367.721,362.160 369.144,363.243 367.120 C 364.714 364.371,362.494 349.904,358.928 339.000 C 355.173 327.519,354.492 326.607,333.806 305.404 C 274.462 244.576,247.461 216.208,247.981 215.235 C 248.205 214.816,249.450 213.513,250.748 212.337 C 254.844 208.627,289.399 175.826,299.100 166.440 C 311.360 154.578,311.404 155.120,297.800 150.611 C 282.158 145.427,273.021 144.335,266.083 146.820 C 264.827 147.269,263.490 147.738,263.111 147.862 C 262.186 148.165,261.847 147.183,261.019 141.800 C 254.763 101.151,223.311 68.581,183.999 62.044 C 180.880 61.525,162.742 60.763,159.380 61.009 C 149.961 61.699,147.222 62.080,141.901 63.439 C 133.225 65.655,119.953 71.906,108.696 79.077 C 105.211 81.298,104.706 81.268,102.340 78.700 C 99.947 76.104,99.941 76.239,102.570 73.807 C 106.324 70.334,106.030 68.488,101.135 64.799 C 97.321 61.926,93.388 59.988,88.714 58.681 C 85.685 57.834,84.926 57.430,82.924 55.600 C 79.656 52.613,75.461 49.755,72.987 48.829 C 69.455 47.508,60.488 46.219,58.948 46.811 M67.319 52.191 C 72.244 53.685,79.993 59.562,78.852 60.937 C 77.816 62.186,76.773 62.005,74.855 60.246 C 69.368 55.211,66.148 54.556,66.479 58.541 C 66.906 63.700,71.598 69.962,76.584 72.029 C 79.309 73.158,79.717 74.690,77.240 74.490 C 71.286 74.010,64.630 66.521,62.397 57.787 C 60.791 51.507,61.691 50.483,67.319 52.191 M91.510 65.185 C 96.224 67.015,99.395 69.292,99.132 70.657 C 98.729 72.749,87.603 76.822,86.622 75.236 C 86.088 74.371,87.021 73.660,89.493 73.050 C 93.784 71.992,94.625 70.690,92.099 69.018 C 87.966 66.283,81.946 65.595,78.042 67.412 C 74.116 69.240,73.056 67.768,76.936 65.876 C 81.182 63.804,87.217 63.518,91.510 65.185 M178.529 69.797 C 200.847 73.161,223.286 85.239,234.525 99.937 C 240.260 107.437,247.985 120.524,249.910 126.000 C 253.555 136.374,253.853 138.625,252.958 149.079 C 252.648 152.705,253.278 154.826,256.542 161.147 C 257.863 163.706,259.564 167.003,260.322 168.474 C 263.035 173.739,261.491 181.593,258.170 179.417 C 256.370 178.238,255.174 176.232,255.449 174.856 C 255.812 173.042,255.009 170.612,252.988 167.400 C 246.271 156.726,246.020 155.998,246.008 147.192 C 245.999 139.895,245.739 138.512,242.809 130.200 C 237.502 115.141,232.454 107.364,220.787 96.272 C 195.006 71.763,151.397 68.403,120.434 88.539 C 114.704 92.266,115.035 92.200,113.047 89.999 C 111.073 87.815,110.960 87.990,116.783 84.196 C 134.538 72.627,159.181 66.881,178.529 69.797 M83.652 71.100 C 84.912 74.310,83.321 84.713,81.054 88.091 C 78.567 91.795,73.781 86.735,72.315 78.851 C 71.595 74.983,73.910 74.786,75.206 78.605 C 76.718 83.060,78.316 85.299,79.364 84.430 C 80.327 83.630,81.289 78.237,81.144 74.451 C 81.071 72.553,81.154 70.775,81.329 70.500 C 81.900 69.602,83.195 69.937,83.652 71.100 M98.786 79.724 C 98.738 84.000,94.018 94.400,92.124 94.400 C 91.398 94.400,91.469 93.875,92.347 92.754 C 94.257 90.315,97.200 82.885,97.200 80.500 C 97.200 79.537,98.020 77.965,98.399 78.200 C 98.620 78.336,98.794 79.022,98.786 79.724 M169.692 84.022 C 183.001 84.942,190.305 86.945,201.200 92.666 C 224.497 104.900,238.586 128.666,238.588 155.736 C 238.589 162.699,238.492 162.887,235.056 162.550 C 230.847 162.138,231.200 162.639,231.200 157.062 C 231.200 134.187,219.853 112.710,201.428 100.716 C 179.712 86.578,152.204 86.487,128.918 100.476 C 125.243 102.684,125.026 102.674,122.867 100.216 C 121.333 98.468,121.480 98.059,124.314 96.177 C 134.609 89.342,149.631 84.418,162.492 83.664 C 163.092 83.629,166.332 83.790,169.692 84.022 M104.493 85.814 C 104.150 90.876,99.760 100.400,97.769 100.400 C 96.956 100.400,97.039 100.128,98.545 97.841 C 100.505 94.867,101.425 92.544,102.438 88.005 C 103.407 83.665,104.734 82.251,104.493 85.814 M110.212 92.242 C 109.660 96.659,107.690 101.438,104.927 105.060 C 103.536 106.884,102.399 106.917,103.549 105.100 C 106.130 101.020,107.528 97.547,108.419 93.000 C 109.210 88.963,110.700 88.333,110.212 92.242 M175.600 96.216 C 213.372 102.881,234.657 141.107,220.859 177.494 C 218.102 184.764,217.808 184.886,213.583 180.508 C 200.715 167.172,197.421 163.770,191.398 157.600 C 183.689 149.702,164.631 129.905,162.198 127.267 C 159.424 124.259,158.586 121.242,160.103 119.726 C 162.692 117.137,177.912 119.697,185.890 124.063 L 188.779 125.645 194.432 124.060 C 201.593 122.053,201.179 122.584,200.014 116.893 C 198.428 109.146,198.483 109.265,195.368 106.895 C 186.933 100.479,173.127 96.402,159.833 96.400 C 158.312 96.400,157.194 96.272,157.350 96.117 C 158.365 95.102,169.635 95.163,175.600 96.216 M116.000 97.360 C 116.000 99.210,114.614 104.410,113.572 106.468 C 112.098 109.378,109.953 112.400,109.361 112.400 C 108.601 112.400,108.593 112.423,110.338 109.541 C 112.199 106.468,113.389 103.372,113.996 100.023 C 114.782 95.685,116.000 94.067,116.000 97.360 M174.337 101.403 C 181.855 102.990,185.731 104.516,191.562 108.186 C 194.720 110.173,195.165 110.758,196.016 114.034 C 197.411 119.405,197.491 119.259,192.412 120.618 L 188.854 121.570 184.727 119.642 C 182.457 118.581,180.240 117.614,179.800 117.492 C 171.241 115.121,167.855 114.633,162.497 114.998 C 158.175 115.292,156.400 114.827,156.400 113.398 C 156.400 112.458,158.216 112.205,164.800 112.228 C 172.475 112.254,177.922 113.584,184.793 117.109 C 194.758 122.222,197.480 115.192,187.800 109.341 C 167.871 97.294,140.947 100.831,123.554 117.782 C 109.870 131.118,103.924 151.677,108.583 169.549 C 112.022 182.743,119.539 190.911,121.699 183.801 L 122.428 181.403 121.234 178.801 C 117.045 169.669,115.591 160.803,116.984 152.889 C 117.655 149.077,117.778 148.800,118.804 148.800 C 120.130 148.800,120.313 149.925,120.102 156.767 C 119.816 166.021,120.887 171.834,124.024 178.048 C 125.455 180.882,125.460 181.135,124.176 185.201 C 122.874 189.323,121.478 189.580,114.770 186.934 C 110.688 185.323,105.947 173.353,104.558 161.149 C 102.480 142.896,115.403 118.206,132.000 108.720 C 146.300 100.547,159.488 98.268,174.337 101.403 M121.852 102.591 C 122.696 104.791,118.956 114.542,116.276 117.131 L 114.898 118.462 117.036 114.131 C 118.551 111.059,119.359 108.811,119.814 106.400 C 120.690 101.755,121.180 100.839,121.852 102.591 M98.157 104.822 C 99.557 106.485,99.582 106.399,96.457 110.554 C 66.500 150.375,76.485 206.495,117.828 230.664 C 130.066 237.818,138.049 240.510,149.039 241.189 C 157.429 241.708,159.879 242.534,165.589 246.768 C 169.660 249.786,171.981 250.880,174.922 251.167 C 179.622 251.625,181.045 255.193,176.968 256.297 C 172.812 257.421,171.147 256.887,162.400 251.622 C 155.029 247.185,153.524 246.763,145.430 246.859 C 132.135 247.016,112.241 237.672,99.801 225.427 C 67.342 193.475,64.128 144.585,92.014 107.000 C 95.461 102.354,95.938 102.185,98.157 104.822 M147.717 112.100 C 148.244 112.815,149.358 114.644,150.193 116.165 L 151.712 118.930 151.490 123.745 C 151.275 128.417,150.888 129.629,149.624 129.594 C 148.395 129.560,148.203 128.736,148.334 124.068 C 148.534 116.956,146.608 113.368,144.271 116.500 C 142.584 118.761,142.495 119.217,142.014 128.200 C 141.457 138.594,141.450 138.641,140.366 138.925 C 138.113 139.514,138.031 138.481,139.168 123.900 C 139.531 119.251,140.419 117.393,144.627 112.477 C 146.353 110.460,146.496 110.443,147.717 112.100 M107.981 115.426 C 109.577 117.157,109.632 117.296,109.042 118.126 C 97.449 134.446,92.261 153.561,95.126 169.400 C 95.404 170.940,95.813 173.280,96.034 174.600 C 98.549 189.602,109.869 206.181,123.600 214.973 C 124.590 215.607,125.864 216.439,126.431 216.823 C 133.239 221.435,144.639 224.806,156.200 225.627 C 163.898 226.174,163.258 225.835,163.118 229.283 L 163.000 232.177 161.200 232.537 C 151.786 234.421,130.631 228.393,118.800 220.456 C 85.078 197.830,77.895 149.449,103.248 115.700 C 105.186 113.121,105.823 113.084,107.981 115.426 M135.800 133.600 L 135.800 134.600 130.600 134.800 C 122.365 135.117,119.032 137.697,123.133 140.581 L 124.866 141.800 134.733 142.000 C 144.499 142.198,144.601 142.209,144.724 143.073 C 144.952 144.675,143.870 144.823,133.719 144.579 L 124.200 144.351 120.896 142.112 C 115.659 138.563,115.606 138.858,122.200 134.824 L 126.199 132.377 131.000 132.488 L 135.800 132.600 135.800 133.600 M156.476 132.653 C 158.228 132.942,158.350 133.189,158.039 135.800 C 157.788 137.899,156.724 138.668,156.476 136.929 C 156.265 135.451,155.474 135.197,150.237 134.932 C 145.078 134.670,144.618 134.540,145.033 133.459 C 145.385 132.542,152.691 132.027,156.476 132.653 M150.580 139.300 C 150.987 141.171,150.236 146.493,149.500 146.956 C 147.991 147.904,147.389 146.813,147.509 143.347 C 147.666 138.777,147.795 138.400,149.200 138.400 C 150.104 138.400,150.431 138.613,150.580 139.300 M166.464 143.051 C 166.925 143.463,170.737 147.400,174.936 151.800 C 179.135 156.200,187.089 164.480,192.612 170.200 C 198.135 175.920,203.713 181.770,205.008 183.200 C 206.303 184.630,207.565 185.980,207.813 186.200 C 208.060 186.420,212.738 191.280,218.208 197.000 C 223.677 202.720,230.519 209.830,233.412 212.800 C 239.384 218.931,258.499 238.958,280.000 261.612 C 288.030 270.073,297.136 279.606,300.235 282.797 C 303.334 285.989,308.689 291.608,312.135 295.283 L 318.400 301.967 318.400 318.022 C 318.400 336.634,317.770 334.000,323.783 340.523 C 328.303 345.425,328.509 345.550,335.800 347.751 C 346.035 350.841,346.180 350.812,345.023 345.882 C 341.488 330.821,342.163 332.298,336.029 326.208 L 331.203 321.416 328.102 321.292 C 324.008 321.128,323.334 320.957,323.090 320.023 C 322.612 318.197,323.597 317.794,328.348 317.875 C 333.828 317.969,333.544 317.811,339.600 324.111 C 345.570 330.322,345.806 330.655,346.592 333.993 C 346.930 335.427,347.836 338.940,348.606 341.800 C 350.743 349.738,352.035 355.298,351.799 355.534 C 351.533 355.800,348.494 355.032,343.802 353.513 C 341.823 352.873,337.413 351.543,334.002 350.558 C 330.591 349.573,327.312 348.575,326.715 348.341 C 325.391 347.822,314.831 336.697,314.723 335.708 C 314.680 335.318,314.635 328.070,314.623 319.600 C 314.603 306.426,314.511 304.075,313.986 303.334 C 313.649 302.858,310.511 299.528,307.015 295.934 C 303.518 292.340,294.348 282.920,286.637 275.000 C 262.205 249.903,246.340 233.568,241.781 228.811 C 239.350 226.275,234.940 221.690,231.981 218.621 C 225.234 211.626,226.316 212.758,217.603 203.586 C 213.534 199.304,208.305 193.820,205.983 191.400 C 198.431 183.529,186.832 171.245,175.400 159.010 C 169.240 152.418,163.719 146.524,163.131 145.912 C 162.089 144.829,161.949 144.800,157.674 144.800 C 153.110 144.800,152.064 144.369,153.227 142.968 C 154.202 141.792,165.136 141.861,166.464 143.051 M101.634 151.136 C 100.751 163.585,103.097 174.861,108.553 184.391 C 112.176 190.721,111.845 190.468,118.806 192.201 C 126.128 194.025,125.445 194.433,127.651 186.913 L 129.314 181.241 127.459 177.521 C 123.322 169.223,121.584 154.583,124.514 152.721 C 127.816 150.623,129.906 152.313,148.312 171.953 C 189.421 215.820,186.873 212.875,184.634 213.948 C 163.841 223.914,134.690 218.867,117.362 202.302 C 103.652 189.195,96.214 164.322,101.040 147.722 C 101.949 144.593,102.055 145.200,101.634 151.136 M140.167 147.843 C 140.515 147.976,140.800 148.314,140.800 148.594 C 140.800 149.726,142.021 150.036,146.974 150.163 C 151.861 150.288,152.865 150.467,152.234 151.100 C 151.691 151.644,138.830 151.723,138.183 151.186 C 136.585 149.860,138.225 147.097,140.167 147.843 M157.449 152.127 L 157.499 156.041 160.249 158.976 C 164.529 163.542,167.600 164.010,167.600 160.095 C 167.600 158.254,167.528 158.148,163.778 154.446 C 159.925 150.642,159.529 149.691,162.108 150.431 C 162.768 150.620,163.342 150.826,163.383 150.888 C 163.424 150.949,164.930 152.580,166.729 154.511 L 170.000 158.022 170.000 160.762 C 170.000 164.181,169.720 164.435,165.950 164.447 L 163.028 164.456 159.054 160.429 L 155.079 156.401 155.330 152.577 C 155.606 148.377,155.758 147.894,156.737 148.084 C 157.296 148.192,157.408 148.826,157.449 152.127 M286.573 153.170 C 293.169 155.038,296.956 156.509,297.110 157.262 C 297.295 158.174,243.072 209.600,241.926 209.600 C 241.156 209.600,229.888 198.327,229.664 197.332 C 229.218 195.357,231.774 194.442,234.400 195.636 C 235.540 196.155,237.280 196.504,239.147 196.589 C 242.056 196.721,242.119 196.748,244.005 198.605 C 245.419 199.998,246.077 200.397,246.535 200.140 C 247.086 199.832,259.226 188.480,269.600 178.573 C 271.690 176.577,276.370 172.181,280.000 168.803 C 287.476 161.846,287.784 161.440,286.435 160.348 C 281.823 156.614,269.639 156.966,263.771 161.004 C 261.124 162.825,260.634 162.770,259.208 160.500 C 257.319 157.492,257.625 156.647,261.469 154.264 C 267.501 150.524,275.933 150.156,286.573 153.170 M150.140 155.700 C 150.442 156.415,153.900 160.420,157.823 164.600 C 166.379 173.715,187.952 196.581,197.400 206.546 C 201.140 210.491,206.180 215.824,208.600 218.396 C 211.020 220.969,222.180 232.773,233.400 244.628 C 244.620 256.484,256.935 269.517,260.767 273.592 C 264.599 277.666,269.554 282.890,271.778 285.200 C 274.002 287.510,278.967 292.722,282.811 296.782 C 303.363 318.488,301.179 316.569,305.789 316.971 C 309.366 317.283,310.094 317.670,309.920 319.166 L 309.800 320.200 304.685 320.200 L 299.570 320.200 295.479 316.000 C 291.874 312.299,280.393 300.177,257.800 276.215 C 254.060 272.249,249.019 266.932,246.597 264.402 C 244.175 261.871,239.480 256.920,236.164 253.400 C 232.847 249.880,226.729 243.393,222.567 238.985 C 218.405 234.577,210.771 226.477,205.601 220.985 C 195.278 210.018,190.114 204.568,184.576 198.800 C 182.570 196.710,179.763 193.740,178.339 192.200 C 176.914 190.660,175.220 188.853,174.574 188.185 C 172.127 185.651,160.193 173.026,149.711 161.879 C 146.271 158.222,145.785 157.096,146.814 155.174 C 147.529 153.837,149.482 154.146,150.140 155.700 M238.060 166.865 C 241.601 167.450,241.880 168.010,239.661 170.080 C 238.011 171.619,237.960 171.635,235.653 171.374 C 231.842 170.943,231.468 171.335,231.681 175.539 C 232.095 183.701,238.451 189.030,244.137 185.983 C 246.002 184.983,246.732 185.185,248.560 187.208 C 250.230 189.057,250.159 189.443,247.875 190.887 C 235.243 198.879,223.639 188.181,226.334 171.030 C 227.027 166.618,230.055 165.543,238.060 166.865 M249.588 169.300 C 251.297 172.280,251.351 172.172,245.405 177.744 C 239.416 183.357,239.110 183.483,237.047 181.199 C 234.756 178.663,234.887 178.393,241.294 172.467 C 247.774 166.474,247.933 166.413,249.588 169.300 M254.891 180.291 C 258.521 183.899,258.578 184.165,256.199 186.359 C 253.977 188.407,253.525 188.253,249.500 184.078 C 246.308 180.768,246.368 181.071,248.483 178.915 C 250.772 176.583,251.270 176.690,254.891 180.291 M224.180 179.300 C 225.103 182.273,224.835 183.980,223.162 185.795 C 219.771 189.473,218.916 187.950,221.413 182.679 C 223.159 178.994,223.831 178.174,224.180 179.300 M226.949 189.101 C 227.262 189.706,227.897 190.544,228.359 190.963 C 229.679 192.157,228.957 194.400,227.252 194.400 C 226.607 194.400,222.800 190.890,222.800 190.296 C 222.800 188.500,226.141 187.538,226.949 189.101 M189.439 216.463 C 190.033 217.424,186.138 220.491,184.692 220.200 C 181.133 219.484,181.209 219.078,185.230 217.321 C 188.511 215.888,189.019 215.784,189.439 216.463 M194.533 221.284 C 197.569 224.769,195.162 226.761,191.700 223.629 C 189.777 221.889,189.606 221.172,190.900 220.270 C 192.304 219.290,192.954 219.472,194.533 221.284 M183.400 222.527 C 194.568 225.606,198.216 234.860,191.739 243.683 C 189.020 247.387,185.229 244.269,187.191 239.944 C 189.876 234.028,184.432 227.128,176.582 226.498 C 173.432 226.245,172.800 226.942,172.800 230.673 C 172.800 234.298,168.758 238.077,167.958 235.200 C 167.203 232.485,167.823 224.005,168.852 222.976 C 170.249 221.580,178.985 221.309,183.400 222.527 M204.661 232.214 C 207.699 235.412,210.341 238.309,210.533 238.652 C 210.936 239.372,209.267 241.060,190.618 258.801 C 184.028 265.071,174.218 274.448,168.818 279.640 C 153.754 294.123,154.502 293.575,153.402 290.943 C 149.302 281.131,148.726 266.388,152.168 259.400 C 155.106 253.437,156.439 252.574,159.764 254.484 C 162.258 255.917,162.419 256.375,161.057 258.162 C 156.984 263.507,155.595 271.795,157.570 278.973 C 159.195 284.879,157.143 286.283,182.366 262.013 C 205.539 239.716,203.469 242.460,200.000 238.632 C 197.987 236.412,197.597 235.743,197.582 234.492 C 197.573 233.671,197.305 232.280,196.988 231.400 C 196.158 229.095,196.262 228.167,197.454 227.229 C 198.937 226.062,198.589 225.822,204.661 232.214 M182.328 233.031 C 184.611 234.985,184.683 234.835,178.558 240.782 C 172.507 246.657,172.766 246.552,169.327 244.536 C 167.023 243.186,167.044 243.127,171.300 238.972 C 179.721 230.751,179.686 230.770,182.328 233.031 M184.891 246.291 C 188.460 249.838,188.516 250.038,186.519 252.083 C 184.410 254.243,183.762 254.085,180.451 250.599 C 177.148 247.122,177.039 246.600,179.201 244.647 C 181.321 242.731,181.306 242.727,184.891 246.291 "
              stroke="none" fill="#0e0e0e" fill-rule="evenodd"></path>
        <path id="path1"
              d="M0.000 200.000 L 0.000 400.000 200.000 400.000 L 400.000 400.000 400.000 200.000 L 400.000 0.000 200.000 0.000 L 0.000 0.000 0.000 200.000 M67.333 47.455 C 73.450 48.461,77.332 50.490,82.924 55.600 C 84.926 57.430,85.685 57.834,88.714 58.681 C 93.388 59.988,97.321 61.926,101.135 64.799 C 106.030 68.488,106.324 70.334,102.570 73.807 C 99.941 76.239,99.947 76.104,102.340 78.700 C 104.706 81.268,105.211 81.298,108.696 79.077 C 119.953 71.906,133.225 65.655,141.901 63.439 C 147.222 62.080,149.961 61.699,159.380 61.009 C 162.742 60.763,180.880 61.525,183.999 62.044 C 223.311 68.581,254.763 101.151,261.019 141.800 C 261.847 147.183,262.186 148.165,263.111 147.862 C 263.490 147.738,264.827 147.269,266.083 146.820 C 273.021 144.335,282.158 145.427,297.800 150.611 C 311.404 155.120,311.360 154.578,299.100 166.440 C 289.399 175.826,254.844 208.627,250.748 212.337 C 249.450 213.513,248.205 214.816,247.981 215.235 C 247.461 216.208,274.462 244.576,333.806 305.404 C 354.492 326.607,355.173 327.519,358.928 339.000 C 362.494 349.904,364.714 364.371,363.243 367.120 C 362.160 369.144,348.716 367.721,339.104 364.565 C 325.483 360.093,323.039 358.293,306.822 340.800 C 303.865 337.610,299.074 332.480,296.177 329.400 C 280.815 313.072,266.120 297.400,262.400 293.380 C 260.090 290.884,254.249 284.647,249.419 279.520 C 244.590 274.394,235.456 264.685,229.122 257.944 C 222.788 251.203,217.346 245.588,217.029 245.467 C 216.050 245.091,215.387 245.699,181.582 278.000 C 154.102 304.257,154.383 304.000,153.162 304.000 C 151.371 304.000,150.661 302.435,148.173 293.000 C 143.294 274.501,142.964 267.040,146.675 259.096 C 148.019 256.219,148.173 256.355,141.600 254.607 C 113.225 247.059,99.366 239.152,88.110 224.087 C 87.500 223.270,86.003 221.341,84.785 219.801 C 76.503 209.330,72.593 202.516,69.413 193.012 C 58.794 161.272,65.097 126.768,86.562 99.144 C 89.311 95.606,89.312 95.478,86.639 92.839 C 84.202 90.432,84.240 90.428,81.663 93.279 C 79.398 95.784,77.305 95.989,75.325 93.900 C 72.444 90.859,67.615 81.034,67.598 78.179 C 67.589 76.652,66.413 74.447,64.169 71.750 C 58.541 64.986,55.507 54.736,57.448 49.041 C 58.406 46.230,59.158 46.109,67.333 47.455 M61.867 51.867 C 60.146 53.588,64.306 64.925,68.203 69.134 C 71.795 73.014,78.408 75.936,78.717 73.781 C 78.811 73.123,78.391 72.778,76.584 72.029 C 71.598 69.962,66.906 63.700,66.479 58.541 C 66.148 54.556,69.368 55.211,74.855 60.246 C 76.773 62.005,77.816 62.186,78.852 60.937 C 80.984 58.369,64.283 49.450,61.867 51.867 M80.920 64.393 C 78.857 64.833,74.681 66.830,74.494 67.466 C 74.211 68.422,75.929 68.396,78.042 67.412 C 81.946 65.595,87.966 66.283,92.099 69.018 C 94.625 70.690,93.784 71.992,89.493 73.050 C 86.351 73.826,85.158 75.600,87.779 75.600 C 93.177 75.600,100.468 71.264,98.579 69.177 C 95.448 65.717,86.313 63.242,80.920 64.393 M153.600 70.428 C 138.981 72.612,128.608 76.491,116.783 84.196 C 110.960 87.990,111.073 87.815,113.047 89.999 C 115.035 92.200,114.704 92.266,120.434 88.539 C 151.397 68.403,195.006 71.763,220.787 96.272 C 232.454 107.364,237.502 115.141,242.809 130.200 C 245.739 138.512,245.999 139.895,246.008 147.192 C 246.020 155.998,246.271 156.726,252.988 167.400 C 255.009 170.612,255.812 173.042,255.449 174.856 C 255.174 176.232,256.370 178.238,258.170 179.417 C 261.491 181.593,263.035 173.739,260.322 168.474 C 259.564 167.003,257.863 163.706,256.542 161.147 C 253.278 154.826,252.648 152.705,252.958 149.079 C 253.767 139.633,253.753 139.290,252.390 134.200 C 250.293 126.371,248.903 122.930,245.282 116.600 C 235.054 98.720,229.139 92.017,216.800 84.322 C 195.704 71.165,176.672 66.981,153.600 70.428 M81.329 70.500 C 81.154 70.775,81.071 72.553,81.144 74.451 C 81.289 78.237,80.327 83.630,79.364 84.430 C 78.316 85.299,76.718 83.060,75.206 78.605 C 74.548 76.664,72.918 75.349,72.138 76.129 C 71.643 76.624,72.737 81.226,73.982 83.886 C 77.471 91.343,80.310 91.473,82.795 84.291 C 85.006 77.898,83.806 66.604,81.329 70.500 M97.599 79.002 C 97.380 79.580,97.200 80.254,97.200 80.500 C 97.200 82.885,94.257 90.315,92.347 92.754 C 91.469 93.875,91.398 94.400,92.124 94.400 C 93.376 94.400,97.268 87.285,98.241 83.217 C 99.143 79.447,98.653 76.230,97.599 79.002 M160.000 83.865 C 147.605 85.077,133.920 89.799,124.314 96.177 C 121.480 98.059,121.333 98.468,122.867 100.216 C 125.026 102.674,125.243 102.684,128.918 100.476 C 147.418 89.362,167.919 87.058,187.600 93.882 C 213.591 102.894,231.200 128.411,231.200 157.062 C 231.200 162.639,230.847 162.138,235.056 162.550 C 238.492 162.887,238.589 162.699,238.588 155.736 C 238.586 135.122,229.978 115.451,215.134 102.141 C 203.025 91.283,187.984 85.286,169.692 84.022 C 163.681 83.607,162.788 83.592,160.000 83.865 M102.438 88.005 C 101.425 92.544,100.505 94.867,98.545 97.841 C 97.039 100.128,96.956 100.400,97.769 100.400 C 100.434 100.400,106.440 84.608,103.970 84.098 C 103.473 83.996,103.149 84.822,102.438 88.005 M109.068 90.300 C 108.969 90.465,108.677 91.680,108.419 93.000 C 107.528 97.547,106.130 101.020,103.549 105.100 C 102.399 106.917,103.536 106.884,104.927 105.060 C 108.487 100.393,111.898 90.000,109.870 90.000 C 109.527 90.000,109.167 90.135,109.068 90.300 M159.517 95.541 C 156.617 95.990,156.768 96.400,159.833 96.400 C 173.127 96.402,186.933 100.479,195.368 106.895 C 198.483 109.265,198.428 109.146,200.014 116.893 C 201.179 122.584,201.593 122.053,194.432 124.060 L 188.779 125.645 185.890 124.063 C 177.912 119.697,162.692 117.137,160.103 119.726 C 158.586 121.242,159.424 124.259,162.198 127.267 C 164.631 129.905,183.689 149.702,191.398 157.600 C 197.421 163.770,200.715 167.172,213.583 180.508 C 217.808 184.886,218.102 184.764,220.859 177.494 C 234.657 141.107,213.372 102.881,175.600 96.216 C 171.628 95.515,162.233 95.121,159.517 95.541 M114.824 96.537 C 114.618 97.079,114.245 98.648,113.996 100.023 C 113.389 103.372,112.199 106.468,110.338 109.541 C 108.593 112.423,108.601 112.400,109.361 112.400 C 110.637 112.400,114.109 106.067,115.225 101.704 C 116.328 97.390,116.018 93.396,114.824 96.537 M156.200 100.267 C 148.846 100.938,140.540 103.839,132.000 108.720 C 115.403 118.206,102.480 142.896,104.558 161.149 C 105.947 173.353,110.688 185.323,114.770 186.934 C 121.478 189.580,122.874 189.323,124.176 185.201 C 125.460 181.135,125.455 180.882,124.024 178.048 C 120.887 171.834,119.816 166.021,120.102 156.767 C 120.313 149.925,120.130 148.800,118.804 148.800 C 117.778 148.800,117.655 149.077,116.984 152.889 C 115.591 160.803,117.045 169.669,121.234 178.801 L 122.428 181.403 121.699 183.801 C 120.321 188.337,115.853 186.521,112.650 180.124 C 94.708 144.285,121.548 102.258,162.400 102.225 C 174.676 102.215,190.771 108.615,192.883 114.346 C 194.794 119.531,191.623 120.614,184.793 117.109 C 177.922 113.584,172.475 112.254,164.800 112.228 C 158.216 112.205,156.400 112.458,156.400 113.398 C 156.400 114.827,158.175 115.292,162.497 114.998 C 167.855 114.633,171.241 115.121,179.800 117.492 C 180.240 117.614,182.457 118.581,184.727 119.642 L 188.854 121.570 192.412 120.618 C 197.491 119.259,197.411 119.405,196.016 114.034 C 195.029 110.235,193.982 109.250,187.000 105.556 C 179.786 101.739,166.008 99.373,156.200 100.267 M120.615 102.500 C 120.527 102.775,120.167 104.530,119.814 106.400 C 119.359 108.811,118.551 111.059,117.036 114.131 L 114.898 118.462 116.276 117.131 C 119.667 113.856,123.525 102.000,121.200 102.000 C 120.966 102.000,120.703 102.225,120.615 102.500 M94.545 103.884 C 93.969 104.498,92.830 105.900,92.014 107.000 C 54.224 157.932,75.636 227.309,134.801 245.634 C 138.871 246.895,139.198 246.932,145.430 246.859 C 153.524 246.763,155.029 247.185,162.400 251.622 C 171.147 256.887,172.812 257.421,176.968 256.297 C 181.045 255.193,179.622 251.625,174.922 251.167 C 171.981 250.880,169.660 249.786,165.589 246.768 C 159.879 242.534,157.429 241.708,149.039 241.189 C 138.049 240.510,130.066 237.818,117.828 230.664 C 76.485 206.495,66.500 150.375,96.457 110.554 C 99.582 106.399,99.557 106.485,98.157 104.822 C 96.430 102.770,95.754 102.594,94.545 103.884 M144.627 112.477 C 140.419 117.393,139.531 119.251,139.168 123.900 C 138.031 138.481,138.113 139.514,140.366 138.925 C 141.450 138.641,141.457 138.594,142.014 128.200 C 142.495 119.217,142.584 118.761,144.271 116.500 C 146.608 113.368,148.534 116.956,148.334 124.068 C 148.203 128.736,148.395 129.560,149.624 129.594 C 150.888 129.629,151.275 128.417,151.490 123.745 L 151.712 118.930 150.193 116.165 C 146.987 110.326,146.656 110.106,144.627 112.477 M103.248 115.700 C 87.942 136.075,83.797 164.128,92.625 187.600 C 100.713 209.104,121.349 226.534,144.200 231.162 C 149.553 232.246,158.884 233.001,161.200 232.537 L 163.000 232.177 163.118 229.283 C 163.258 225.835,163.898 226.174,156.200 225.627 C 144.639 224.806,133.239 221.435,126.431 216.823 C 125.864 216.439,124.590 215.607,123.600 214.973 C 109.869 206.181,98.549 189.602,96.034 174.600 C 95.813 173.280,95.404 170.940,95.126 169.400 C 92.261 153.561,97.449 134.446,109.042 118.126 C 109.632 117.296,109.577 117.157,107.981 115.426 C 105.823 113.084,105.186 113.121,103.248 115.700 M122.200 134.824 C 115.606 138.858,115.659 138.563,120.896 142.112 L 124.200 144.351 133.719 144.579 C 143.870 144.823,144.952 144.675,144.724 143.073 C 144.601 142.209,144.499 142.198,134.733 142.000 L 124.866 141.800 123.133 140.581 C 119.032 137.697,122.365 135.117,130.600 134.800 L 135.800 134.600 135.800 133.600 L 135.800 132.600 131.000 132.488 L 126.199 132.377 122.200 134.824 M146.334 132.683 C 145.312 132.840,144.592 133.740,144.984 134.374 C 145.086 134.539,147.450 134.791,150.237 134.932 C 155.474 135.197,156.265 135.451,156.476 136.929 C 156.724 138.668,157.788 137.899,158.039 135.800 C 158.350 133.189,158.228 132.942,156.476 132.653 C 154.898 132.392,148.102 132.412,146.334 132.683 M147.816 139.300 C 147.236 141.923,147.406 146.497,148.100 146.945 C 149.487 147.839,150.173 146.809,150.488 143.358 C 150.876 139.107,150.692 138.400,149.200 138.400 C 148.297 138.400,147.968 138.614,147.816 139.300 M156.134 142.271 C 153.572 142.443,152.606 143.029,153.036 144.149 C 153.245 144.696,153.990 144.800,157.674 144.800 C 161.949 144.800,162.089 144.829,163.131 145.912 C 163.719 146.524,169.240 152.418,175.400 159.010 C 186.832 171.245,198.431 183.529,205.983 191.400 C 208.305 193.820,213.534 199.304,217.603 203.586 C 226.316 212.758,225.234 211.626,231.981 218.621 C 234.940 221.690,239.350 226.275,241.781 228.811 C 246.340 233.568,262.205 249.903,286.637 275.000 C 294.348 282.920,303.518 292.340,307.015 295.934 C 310.511 299.528,313.649 302.858,313.986 303.334 C 314.511 304.075,314.603 306.426,314.623 319.600 C 314.635 328.070,314.680 335.318,314.723 335.708 C 314.831 336.697,325.391 347.822,326.715 348.341 C 327.312 348.575,330.591 349.573,334.002 350.558 C 337.413 351.543,341.823 352.873,343.802 353.513 C 348.494 355.032,351.533 355.800,351.799 355.534 C 352.035 355.298,350.743 349.738,348.606 341.800 C 347.836 338.940,346.930 335.427,346.592 333.993 C 345.806 330.655,345.570 330.322,339.600 324.111 C 333.544 317.811,333.828 317.969,328.348 317.875 C 323.597 317.794,322.612 318.197,323.090 320.023 C 323.334 320.957,324.008 321.128,328.102 321.292 L 331.203 321.416 336.029 326.208 C 342.163 332.298,341.488 330.821,345.023 345.882 C 346.180 350.812,346.035 350.841,335.800 347.751 C 328.509 345.550,328.303 345.425,323.783 340.523 C 317.770 334.000,318.400 336.634,318.400 318.022 L 318.400 301.967 312.135 295.283 C 308.689 291.608,303.334 285.989,300.235 282.797 C 297.136 279.606,288.030 270.073,280.000 261.612 C 258.499 238.958,239.384 218.931,233.412 212.800 C 230.519 209.830,223.677 202.720,218.208 197.000 C 212.738 191.280,208.060 186.420,207.813 186.200 C 207.565 185.980,206.303 184.630,205.008 183.200 C 203.713 181.770,198.135 175.920,192.612 170.200 C 187.089 164.480,179.135 156.200,174.936 151.800 C 170.737 147.400,166.925 143.463,166.464 143.051 C 165.569 142.249,161.278 141.925,156.134 142.271 M101.040 147.722 C 96.214 164.322,103.652 189.195,117.362 202.302 C 134.690 218.867,163.841 223.914,184.634 213.948 C 186.873 212.875,189.421 215.820,148.312 171.953 C 129.906 152.313,127.816 150.623,124.514 152.721 C 121.584 154.583,123.322 169.223,127.459 177.521 L 129.314 181.241 127.651 186.913 C 125.445 194.433,126.128 194.025,118.806 192.201 C 111.845 190.468,112.176 190.721,108.553 184.391 C 103.097 174.861,100.751 163.585,101.634 151.136 C 102.055 145.200,101.949 144.593,101.040 147.722 M138.229 148.229 C 137.440 149.017,137.416 150.549,138.183 151.186 C 138.830 151.723,151.691 151.644,152.234 151.100 C 152.865 150.467,151.861 150.288,146.974 150.163 C 142.021 150.036,140.800 149.726,140.800 148.594 C 140.800 148.118,139.963 147.600,139.196 147.600 C 139.010 147.600,138.574 147.883,138.229 148.229 M155.828 148.355 C 155.693 148.574,155.469 150.474,155.330 152.577 L 155.079 156.401 159.054 160.429 L 163.028 164.456 165.950 164.447 C 169.720 164.435,170.000 164.181,170.000 160.762 L 170.000 158.022 166.729 154.511 C 164.930 152.580,163.424 150.949,163.383 150.888 C 163.342 150.826,162.768 150.620,162.108 150.431 C 159.529 149.691,159.925 150.642,163.778 154.446 C 167.528 158.148,167.600 158.254,167.600 160.095 C 167.600 164.010,164.529 163.542,160.249 158.976 L 157.499 156.041 157.449 152.127 C 157.401 148.315,156.766 146.837,155.828 148.355 M271.200 151.253 C 265.195 151.758,257.985 155.320,258.008 157.770 C 258.019 158.975,260.285 162.400,261.071 162.400 C 261.440 162.400,262.655 161.772,263.771 161.004 C 269.639 156.966,281.823 156.614,286.435 160.348 C 287.784 161.440,287.476 161.846,280.000 168.803 C 276.370 172.181,271.690 176.577,269.600 178.573 C 259.226 188.480,247.086 199.832,246.535 200.140 C 246.077 200.397,245.419 199.998,244.005 198.605 C 242.119 196.748,242.056 196.721,239.147 196.589 C 237.280 196.504,235.540 196.155,234.400 195.636 C 231.774 194.442,229.218 195.357,229.664 197.332 C 229.888 198.327,241.156 209.600,241.926 209.600 C 243.072 209.600,297.295 158.174,297.110 157.262 C 296.628 154.898,278.324 150.653,271.200 151.253 M146.814 155.174 C 145.785 157.096,146.271 158.222,149.711 161.879 C 160.193 173.026,172.127 185.651,174.574 188.185 C 175.220 188.853,176.914 190.660,178.339 192.200 C 179.763 193.740,182.570 196.710,184.576 198.800 C 190.114 204.568,195.278 210.018,205.601 220.985 C 210.771 226.477,218.405 234.577,222.567 238.985 C 226.729 243.393,232.847 249.880,236.164 253.400 C 239.480 256.920,244.175 261.871,246.597 264.402 C 249.019 266.932,254.060 272.249,257.800 276.215 C 280.393 300.177,291.874 312.299,295.479 316.000 L 299.570 320.200 304.685 320.200 L 309.800 320.200 309.920 319.166 C 310.094 317.670,309.366 317.283,305.789 316.971 C 301.179 316.569,303.363 318.488,282.811 296.782 C 278.967 292.722,274.002 287.510,271.778 285.200 C 269.554 282.890,264.599 277.666,260.767 273.592 C 256.935 269.517,244.620 256.484,233.400 244.628 C 222.180 232.773,211.020 220.969,208.600 218.396 C 206.180 215.824,201.140 210.491,197.400 206.546 C 187.952 196.581,166.379 173.715,157.823 164.600 C 153.900 160.420,150.442 156.415,150.140 155.700 C 149.482 154.146,147.529 153.837,146.814 155.174 M229.895 166.772 C 227.368 167.125,226.850 167.744,226.334 171.030 C 223.639 188.181,235.243 198.879,247.875 190.887 C 250.159 189.443,250.230 189.057,248.560 187.208 C 246.732 185.185,246.002 184.983,244.137 185.983 C 238.451 189.030,232.095 183.701,231.681 175.539 C 231.468 171.335,231.842 170.943,235.653 171.374 C 238.189 171.661,241.688 169.447,241.103 167.925 C 240.667 166.788,234.404 166.144,229.895 166.772 M241.294 172.467 C 234.887 178.393,234.756 178.663,237.047 181.199 C 239.110 183.483,239.416 183.357,245.405 177.744 C 251.351 172.172,251.297 172.280,249.588 169.300 C 247.933 166.413,247.774 166.474,241.294 172.467 M248.483 178.915 C 246.368 181.071,246.308 180.768,249.500 184.078 C 253.525 188.253,253.977 188.407,256.199 186.359 C 258.578 184.165,258.521 183.899,254.891 180.291 C 251.270 176.690,250.772 176.583,248.483 178.915 M221.413 182.679 C 218.916 187.950,219.771 189.473,223.162 185.795 C 224.780 184.039,224.819 183.931,224.581 181.895 C 224.086 177.673,223.745 177.758,221.413 182.679 M223.858 188.981 C 222.470 190.267,222.483 190.317,224.714 192.515 C 226.797 194.567,227.526 194.787,228.538 193.669 C 229.425 192.688,229.372 191.879,228.359 190.963 C 227.897 190.544,227.262 189.706,226.949 189.101 C 226.245 187.739,225.240 187.700,223.858 188.981 M185.230 217.321 C 181.209 219.078,181.133 219.484,184.692 220.200 C 185.833 220.430,186.201 220.254,187.854 218.692 C 190.885 215.829,189.865 215.296,185.230 217.321 M190.900 220.270 C 189.606 221.172,189.777 221.889,191.700 223.629 C 195.162 226.761,197.569 224.769,194.533 221.284 C 192.954 219.472,192.304 219.290,190.900 220.270 M171.222 222.009 C 168.218 222.644,167.646 224.091,167.669 231.000 C 167.688 236.628,168.329 237.304,171.161 234.684 C 172.742 233.221,172.800 233.080,172.800 230.673 C 172.800 226.942,173.432 226.245,176.582 226.498 C 184.432 227.128,189.876 234.028,187.191 239.944 C 186.013 242.540,187.362 245.600,189.685 245.600 C 192.757 245.600,196.052 234.915,194.277 230.708 C 191.607 224.379,180.258 220.097,171.222 222.009 M197.454 227.229 C 196.262 228.167,196.158 229.095,196.988 231.400 C 197.305 232.280,197.573 233.671,197.582 234.492 C 197.597 235.743,197.987 236.412,200.000 238.632 C 203.469 242.460,205.539 239.716,182.366 262.013 C 157.143 286.283,159.195 284.879,157.570 278.973 C 155.595 271.795,156.984 263.507,161.057 258.162 C 162.419 256.375,162.258 255.917,159.764 254.484 C 156.439 252.574,155.106 253.437,152.168 259.400 C 148.726 266.388,149.302 281.131,153.402 290.943 C 154.502 293.575,153.754 294.123,168.818 279.640 C 174.218 274.448,184.028 265.071,190.618 258.801 C 209.267 241.060,210.936 239.372,210.533 238.652 C 210.014 237.725,199.190 226.400,198.823 226.400 C 198.650 226.400,198.034 226.773,197.454 227.229 M177.083 233.480 C 172.831 237.318,167.600 242.599,167.600 243.054 C 167.600 243.601,170.579 245.429,172.085 245.807 C 173.165 246.078,184.000 236.232,184.000 234.981 C 184.000 234.244,180.802 231.600,179.911 231.600 C 179.501 231.600,178.228 232.446,177.083 233.480 M179.201 244.647 C 177.039 246.600,177.148 247.122,180.451 250.599 C 183.762 254.085,184.410 254.243,186.519 252.083 C 188.516 250.038,188.460 249.838,184.891 246.291 C 181.306 242.727,181.321 242.731,179.201 244.647 "
              stroke="none" fill="#fbfbfb" fill-rule="evenodd"></path>
    </g>
</svg>